<?xml version="1.0" encoding="UTF-8" standalone="no"?>
<svg
   width="52"
   height="52.000946"
   viewBox="0 0 4.0093248 4.0093977"
   version="1.1"
   id="svg8"
   sodipodi:docname="logoDodge.svg"
   inkscape:version="1.1.1 (3bf5ae0d25, 2021-09-20)"
   xmlns:inkscape="http://www.inkscape.org/namespaces/inkscape"
   xmlns:sodipodi="http://sodipodi.sourceforge.net/DTD/sodipodi-0.dtd"
   xmlns="http://www.w3.org/2000/svg"
   xmlns:svg="http://www.w3.org/2000/svg">
  <defs
     id="defs12" />
  <sodipodi:namedview
     id="namedview10"
     pagecolor="#ffffff"
     bordercolor="#666666"
     borderopacity="1.0"
     inkscape:pageshadow="2"
     inkscape:pageopacity="0.0"
     inkscape:pagecheckerboard="true"
     showgrid="false"
     fit-margin-top="3.546"
     fit-margin-left="0"
     fit-margin-right="0"
     fit-margin-bottom="3.546"
     inkscape:zoom="5.0685414"
     inkscape:cx="30.679438"
     inkscape:cy="28.903779"
     inkscape:window-width="1366"
     inkscape:window-height="745"
     inkscape:window-x="-8"
     inkscape:window-y="-8"
     inkscape:window-maximized="1"
     inkscape:current-layer="svg8" />
  <g
     id="g97"
     transform="matrix(0.02281244,0,0,0.02281244,-0.19396146,-0.19391728)">
    <path
       d="m 158.607,121.7 c -0.137,0.136 -0.277,0.28 -0.428,0.439 -0.357,0.377 -0.805,0.617 -1.26,0.799 -0.619,0.248 -1.24,0.428 -1.945,0.637 -1.25,0.37 -2.506,0.409 -3.76,0.309 -0.73,-0.059 -1.459,-0.253 -2.193,-0.735 -0.309,-0.202 -0.621,-0.438 -0.939,-0.616 -0.275,-0.153 -0.531,-0.206 -0.742,-0.149 -0.211,0.058 -0.363,0.207 -0.438,0.443 -0.084,0.268 -0.111,0.556 -0.139,0.841 -0.035,0.363 0.018,0.675 0.062,0.994 0.176,1.248 0.43,2.514 0.814,3.574 0.656,1.806 1.311,3.603 1.992,4.838 0.223,0.405 0.488,0.771 0.766,1.152 0.408,0.563 0.77,1.126 1.293,1.565 0.49,0.413 1.057,0.755 1.711,1.031 1.225,0.519 2.305,0.783 3.445,0.898 1.717,0.173 3.42,0.29 5.119,-0.094 a 23.998,23.998 0 0 0 4.537,-1.496 c 0.762,-0.335 1.574,-0.914 2.404,-1.62 1.129,-0.962 2.346,-2.14 3.199,-3.429 0.395,-0.597 0.754,-1.114 1.076,-1.56 0.232,-0.322 0.465,-0.72 0.775,-1.188 0.846,-1.269 1.404,-2.662 1.867,-4.011 0.85,-2.474 1.336,-4.915 1.57,-7.373 0.125,-1.323 -0.014,-1.874 -0.479,-3.107 -0.295,-0.783 -0.613,-1.562 -0.768,-2.364 a 16.757,16.757 0 0 1 -0.068,-5.92 c 0.109,-0.576 0.527,-1.992 0.719,-2.547 0.064,-0.182 0.139,-0.33 0.25,-0.412 0.115,-0.084 0.285,-0.055 0.467,0.139 0.188,0.198 0.295,0.48 0.408,0.82 0.123,0.37 0.287,0.725 0.451,1.065 0.178,0.365 0.412,0.605 0.701,0.755 0.24,0.123 0.506,0.113 0.758,-0.045 0.238,-0.151 0.455,-0.401 0.602,-0.709 0.145,-0.304 0.262,-0.633 0.305,-0.958 l 0.668,-4.281 c 1.277,-8.584 1.273,-17.158 -0.289,-25.733 -0.049,-2.711 -1.857,-4.133 -2.42,0.091 -1.029,7.744 -3.002,15.441 -5.461,22.114 -2.471,6.72 -9.85,21.123 -14.63,25.843 z m -79.675,38.858 a 2.101,2.101 0 0 0 -0.508,1.396 c 0,0.535 0.103,1.073 0.278,1.606 0.269,0.82 0.607,1.634 1.048,2.462 a 6.861,6.861 0 0 0 1.396,1.806 13.575,13.575 0 0 0 2.357,1.729 16.435,16.435 0 0 0 5.118,1.95 c 4.384,0.888 8.771,1.009 13.162,0.323 2.328,-0.364 4.664,-0.934 6.998,-1.943 1.205,-0.521 2.252,-1.275 3.146,-1.986 0.605,-0.482 1.129,-0.994 1.428,-1.493 0.373,-0.624 0.725,-1.392 1.119,-2.293 a 6.063,6.063 0 0 0 0.49,-1.819 c 0.035,-0.353 -0.014,-0.709 -0.064,-1.071 a 1.471,1.471 0 0 0 -0.443,-0.846 1.217,1.217 0 0 0 -0.865,-0.347 c -0.346,-0.006 -0.699,0.006 -1.045,0.121 -5.641,1.874 -11.285,2.908 -16.923,2.774 -5.015,-0.119 -10.027,-1.086 -15.04,-2.729 -0.303,-0.1 -0.629,-0.084 -0.94,-0.021 a 1.479,1.479 0 0 0 -0.712,0.381 z M 58.889,103.101 c -0.103,0.128 -0.305,0.1 -0.592,-0.107 a 2.804,2.804 0 0 1 -0.656,-0.709 c -0.22,-0.326 -0.424,-0.689 -0.661,-0.984 -0.193,-0.24 -0.401,-0.375 -0.626,-0.402 -0.257,-0.032 -0.465,0.074 -0.607,0.32 -0.139,0.24 -0.193,0.556 -0.13,0.887 0.062,0.324 0.186,0.646 0.313,0.964 0.263,0.659 0.604,1.216 0.969,1.8 2.726,4.361 5.713,7.554 8.834,10.454 0.87,0.809 1.683,1.769 2.257,2.759 0.425,0.733 0.718,1.497 1.003,2.335 0.157,0.46 0.197,0.934 0.149,1.392 -0.048,0.459 -0.234,0.884 -0.429,1.127 -0.176,0.221 -0.38,0.437 -0.632,0.52 a 3.532,3.532 0 0 1 -0.97,0.157 c -0.398,0.018 -0.819,-0.158 -1.239,-0.373 a 6.908,6.908 0 0 1 -1.481,-1.03 16.197,16.197 0 0 1 -2.526,-2.866 c -1.312,-1.922 -2.273,-3.854 -3.086,-5.782 a 7.325,7.325 0 0 0 -0.596,-1.178 c -0.215,-0.331 -0.459,-0.527 -0.662,-0.592 -0.188,-0.059 -0.373,0.012 -0.487,0.229 -0.124,0.237 -0.147,0.563 -0.104,0.897 0.036,0.287 0.037,0.574 0.094,0.855 0.483,2.398 1.159,4.789 2.165,7.174 0.847,2.008 1.647,3.781 2.882,5.67 0.562,0.859 1.272,1.457 1.939,2.055 2.733,2.455 4.866,5.285 6.91,8.262 2.129,3.101 3.979,6.316 5.218,9.605 0.881,2.338 1.444,4.623 1.628,6.744 0.056,0.641 0.005,1.282 0.153,1.928 0.111,0.48 0.326,0.887 0.656,1.3 0.29,0.362 0.647,0.637 1.069,0.837 a 6.71,6.71 0 0 0 1.253,0.438 c 3.07,0.773 6.131,1.231 9.191,1.177 a 3.252,3.252 0 0 0 1.219,-0.238 c 0.346,-0.146 0.616,-0.341 0.801,-0.642 0.191,-0.312 0.343,-0.665 0.463,-1.045 0.25,-0.792 0.47,-1.579 0.652,-2.354 0.598,-2.536 0.937,-5.068 0.815,-7.6 a 4.003,4.003 0 0 0 -0.139,-0.959 c -0.093,-0.311 -0.265,-0.508 -0.486,-0.616 -0.178,-0.087 -0.382,-0.05 -0.607,0.137 -0.241,0.2 -0.415,0.485 -0.538,0.795 -0.144,0.364 -0.286,0.714 -0.374,1.07 -0.344,1.402 -0.679,2.541 -1.24,3.577 -0.189,0.35 -0.43,0.691 -0.747,1.065 -0.325,0.384 -0.723,0.65 -1.174,0.83 a 2.33,2.33 0 0 1 -1.358,0.102 c -0.492,-0.103 -0.987,-0.337 -1.462,-0.704 a 5.997,5.997 0 0 1 -1.312,-1.449 c -0.4,-0.604 -0.689,-1.21 -0.85,-1.819 -0.28,-1.067 -0.427,-2.143 -0.366,-3.212 0.266,-4.652 1.828,-9.294 3.449,-13.867 0.232,-0.657 0.403,-1.279 0.364,-1.973 a 6.755,6.755 0 0 0 -0.417,-1.993 c -0.917,-2.518 -2.221,-5.034 -3.757,-7.429 a 10.46,10.46 0 0 0 -0.86,-1.163 c -0.286,-0.332 -0.597,-0.544 -0.935,-0.597 -0.354,-0.055 -0.698,0.038 -1.045,0.193 -0.354,0.158 -0.7,0.256 -1.044,0.224 -0.46,-0.044 -0.91,-0.258 -1.358,-0.546 a 35.44,35.44 0 0 1 -2.506,-1.76 c -1.022,-0.789 -2.058,-1.652 -2.982,-2.673 -0.683,-0.753 -1.145,-1.467 -1.551,-2.096 -0.152,-0.235 -0.333,-0.454 -0.447,-0.688 -0.126,-0.26 -0.117,-0.47 -0.03,-0.54 0.068,-0.056 0.25,-0.064 0.533,0.01 0.257,0.068 0.486,0.25 0.756,0.353 2.025,0.772 3.893,1.292 6.022,1.981 0.679,0.22 1.335,0.587 1.94,1.081 0.619,0.506 1.128,1.103 1.591,1.662 0.292,0.354 0.539,0.696 0.86,0.934 0.279,0.206 0.571,0.312 0.795,0.281 0.232,-0.032 0.427,-0.195 0.542,-0.453 0.118,-0.264 0.131,-0.581 0.07,-0.913 a 5.798,5.798 0 0 0 -0.244,-0.964 c -0.611,-1.68 -1.306,-3.352 -2.191,-5.032 a 13.767,13.767 0 0 0 -2.316,-3.212 34.429,34.429 0 0 0 -4.49,-3.887 16.881,16.881 0 0 1 -3.052,-2.881 C 70.339,99.046 69.816,98.11 69.511,97.21 69.37,96.796 69.245,96.379 69.238,95.905 c -0.005,-0.344 0.033,-0.677 0.169,-0.922 0.152,-0.274 0.41,-0.431 0.692,-0.571 0.26,-0.128 0.613,-0.147 0.97,-0.147 0.404,0 0.827,0.112 1.292,0.296 0.732,0.29 1.391,0.7 1.94,1.153 0.548,0.453 1.047,1 1.441,1.693 0.215,0.378 0.422,0.715 0.656,0.964 0.221,0.234 0.472,0.383 0.731,0.383 0.273,0 0.482,-0.146 0.647,-0.383 0.153,-0.221 0.188,-0.517 0.175,-0.855 a 4.896,4.896 0 0 0 -0.14,-0.964 C 77.466,95.16 77.07,93.772 76.446,92.377 75.162,89.506 73.454,86.584 71.242,83.903 67.986,79.958 64.067,76.429 60.254,73.014 58.291,71.256 56.571,69.202 55.059,66.996 54.367,65.985 53.848,64.989 53.554,63.998 a 6.07,6.07 0 0 1 -0.263,-1.713 c -10e-4,-0.396 0.12,-0.79 0.354,-1.172 0.198,-0.324 0.456,-0.613 0.781,-0.83 a 1.638,1.638 0 0 1 1.03,-0.295 c 0.354,0.022 0.707,0.071 1.044,0.204 0.675,0.264 1.337,0.533 1.984,0.934 0.325,0.202 0.627,0.331 0.94,0.373 0.313,0.042 0.568,-0.023 0.731,-0.229 0.134,-0.17 0.198,-0.415 0.17,-0.693 -0.029,-0.29 -0.168,-0.571 -0.338,-0.856 a 9.999,9.999 0 0 0 -0.671,-0.964 c -1.361,-1.782 -2.877,-3.545 -4.28,-5.089 -2.299,-2.529 -5.067,-4.992 -7.826,-6.896 -2.035,-1.404 -4.034,-2.483 -6.057,-3.103 -1.843,-0.563 -3.688,-0.677 -5.536,-0.66 -2.295,0.021 -4.565,0.608 -6.621,1.199 -0.955,0.274 -2.142,0.647 -3.309,1.227 a 27.204,27.204 0 0 0 -4.593,2.898 c -2.36,1.833 -4.304,3.928 -6.23,6.108 -2.259,2.555 -4.233,5.167 -5.69,7.821 A 8.913,8.913 0 0 0 8.612,63.439 1.544,1.544 0 0 0 8.528,64.29 c 0.062,0.308 0.234,0.541 0.492,0.653 0.268,0.117 0.578,0.139 0.875,0.046 0.289,-0.091 0.562,-0.239 0.851,-0.407 0.914,-0.534 1.962,-1.129 3.03,-1.563 a 6.196,6.196 0 0 1 2.194,-0.468 3.627,3.627 0 0 1 1.656,0.363 c 0.464,0.221 0.91,0.516 1.268,0.903 0.388,0.419 0.737,0.923 0.979,1.448 0.28,0.608 0.458,1.215 0.501,1.82 0.03,0.429 0.043,0.858 -0.021,1.285 -0.054,0.356 -0.18,0.675 -0.408,0.953 a 1.501,1.501 0 0 1 -0.846,0.53 c -0.355,0.077 -0.705,-0.002 -1.029,-0.214 -0.305,-0.2 -0.56,-0.48 -0.781,-0.842 a 6.405,6.405 0 0 1 -0.526,-1.071 3.2,3.2 0 0 0 -0.582,-0.974 c -0.219,-0.249 -0.464,-0.352 -0.667,-0.321 -0.234,0.036 -0.436,0.201 -0.562,0.469 -0.131,0.278 -0.175,0.606 -0.169,0.933 0.006,0.363 0.023,0.716 0.054,1.07 0.021,0.252 0.049,0.503 0.081,0.753 0.486,3.78 2.098,8.888 4.138,11.82 3.739,5.374 7.729,10.242 11.188,14.466 1.213,1.481 1.805,3.16 2.5,4.711 0.463,1.034 0.662,2.075 0.844,2.901 0.083,0.377 0.122,0.766 0.159,1.142 0.027,0.276 0.019,0.534 -0.13,0.683 a 0.395,0.395 0 0 1 -0.383,0.111 1.616,1.616 0 0 1 -0.701,-0.428 c -0.232,-0.24 -0.476,-0.501 -0.726,-0.79 -0.765,-0.886 -1.306,-1.737 -1.765,-2.54 a 61.982,61.982 0 0 1 -1.317,-2.401 c -0.152,-0.296 -0.201,-0.583 -0.288,-0.755 -0.103,-0.201 -0.286,-0.324 -0.448,-0.295 -0.167,0.028 -0.336,0.188 -0.537,0.422 -0.171,0.2 -0.264,0.483 -0.274,0.82 -0.011,0.363 0.057,0.713 0.114,1.07 0.308,1.937 0.81,3.893 1.589,5.726 0.348,0.819 0.818,1.661 1.343,2.498 2.175,3.464 2.694,4.615 5.51,7.603 0.302,0.321 0.603,0.638 0.896,0.944 0.651,0.681 1.405,1.213 2.188,1.638 0.625,0.339 1.253,0.512 1.88,0.516 0.465,0.002 0.917,-0.091 1.323,-0.274 a 2.85,2.85 0 0 0 1.08,-0.856 c 0.306,-0.393 0.566,-0.824 0.802,-1.299 a 11.867,11.867 0 0 0 1.041,-2.997 c 0.454,-2.332 0.885,-4.541 0.669,-6.636 -0.606,-5.91 -1.83,-11.791 -3.045,-17.042 -0.462,-1.998 -0.994,-4.5 -1.26,-6.963 -0.143,-1.323 -0.03,-2.678 0.27,-4.042 a 9.05,9.05 0 0 1 0.877,-2.354 c 0.239,-0.445 0.569,-0.823 0.871,-1.171 0.295,-0.34 0.65,-0.502 0.945,-0.597 0.326,-0.104 0.617,-0.139 0.92,0.046 0.333,0.204 0.666,0.456 0.955,0.822 0.375,0.472 0.637,0.966 0.795,1.453 0.225,0.694 0.515,1.403 0.492,2.126 -0.141,4.355 -1.158,8.679 -1.644,13.059 -0.177,1.595 0.441,3.21 0.983,4.817 0.328,0.973 0.659,1.602 1.058,2.192 0.276,0.409 0.58,1.033 1.004,1.662 0.998,1.48 2.107,2.727 3.162,3.661 0.296,0.263 0.604,0.521 0.915,0.745 0.221,0.158 0.461,0.237 0.716,0.225 0.238,-0.012 0.418,-0.099 0.513,-0.275 a 0.947,0.947 0 0 0 0.045,-0.713 c -0.088,-0.292 -0.25,-0.575 -0.428,-0.856 a 10.295,10.295 0 0 0 -0.805,-1.071 c -1.013,-1.221 -1.699,-2.429 -2.132,-3.641 -0.206,-0.576 -0.405,-1.143 -0.472,-1.713 a 2.676,2.676 0 0 1 0.145,-1.178 c 0.143,-0.418 0.388,-0.775 0.732,-1.049 0.344,-0.274 0.615,-0.52 0.931,-0.657 0.307,-0.133 0.622,-0.162 0.93,-0.183 0.322,-0.022 0.707,0.081 1.099,0.296 a 5.1,5.1 0 0 1 1.149,0.846 21.788,21.788 0 0 1 1.457,1.622 c 0.414,0.499 0.777,0.975 1.064,1.51 0.522,0.975 0.84,1.936 1.053,2.972 0.11,0.518 0.15,0.937 -0.019,1.096 z M 168.332,41.624 c 0.301,0.126 0.635,0.269 0.994,0.448 0.342,0.171 0.689,0.335 1.045,0.464 0.312,0.114 0.627,0.213 0.934,0.205 0.289,-0.007 0.541,-0.122 0.691,-0.341 0.143,-0.205 0.221,-0.486 0.156,-0.821 -0.064,-0.33 -0.215,-0.641 -0.408,-0.938 -0.391,-0.6 -0.873,-1.212 -1.396,-1.846 -0.822,-0.995 -1.609,-1.864 -2.238,-2.611 -1.957,-2.331 -4.09,-4.294 -6.279,-5.86 -0.611,-0.438 -1.32,-0.97 -2.088,-1.515 -3.227,-2.289 -6.574,-3.973 -10.045,-5.459 -2.236,-0.958 -4.799,-1.695 -7.52,-2.226 a 32.442,32.442 0 0 0 -11.49,-0.2 c -2.027,0.329 -4.033,1.145 -6.061,2.092 a 9.224,9.224 0 0 0 -1.672,1.003 5.727,5.727 0 0 0 -0.9,0.82 c -0.24,0.282 -0.418,0.57 -0.482,0.871 -0.068,0.328 -0.012,0.637 0.154,0.908 0.152,0.251 0.398,0.45 0.705,0.546 0.314,0.098 0.627,0.13 0.939,0.082 l 1.463,-0.218 c 0.383,-0.044 0.77,-0.049 1.139,0.077 0.295,0.1 0.568,0.277 0.771,0.525 0.193,0.236 0.254,0.566 0.303,0.903 0.066,0.456 0.014,0.95 -0.129,1.462 -0.125,0.441 -0.297,0.88 -0.514,1.312 -1.555,3.13 -5.1,6.244 -7.883,8.237 -0.564,0.405 -1.07,0.728 -1.457,0.914 a 8.052,8.052 0 0 1 -1.324,0.476 2.69,2.69 0 0 1 -1.045,0.102 1.245,1.245 0 0 1 -0.84,-0.469 2.104,2.104 0 0 1 -0.428,-0.943 5.102,5.102 0 0 1 -0.055,-1.392 c 0.121,-1.288 0.496,-2.574 1.062,-3.853 0.613,-1.39 1.434,-2.526 2,-3.547 0.318,-0.571 0.658,-0.947 1.051,-1.243 0.305,-0.23 0.68,-0.451 1.08,-0.881 0.26,-0.279 0.521,-0.571 0.717,-0.871 0.193,-0.298 0.225,-0.636 0.135,-0.917 a 0.808,0.808 0 0 0 -0.543,-0.561 c -0.309,-0.103 -0.623,-0.133 -0.934,-0.042 -0.422,0.123 -0.846,0.31 -1.254,0.555 -1.16,0.694 -2.291,1.653 -3.449,2.746 -2.354,2.223 -4.094,4.227 -5.773,6.598 -2.445,3.457 -4.496,7.188 -6.039,11.109 -1.078,2.739 -1.832,5.52 -2.342,7.818 -0.621,2.808 -0.854,5.788 -0.82,8.771 0.029,2.497 0.457,5.002 1.289,7.494 0.588,1.755 1.408,3.332 2.686,5.134 0.795,1.123 1.697,2.059 2.559,2.938 0.516,0.526 1.15,0.936 1.836,1.26 0.562,0.266 1.107,0.417 1.67,0.404 0.57,-0.014 1.078,-0.197 1.578,-0.442 0.742,-0.364 1.551,-0.957 2.338,-1.554 a 166.138,166.138 0 0 0 16.148,-13.933 c 0.428,-0.42 0.852,-0.912 1.133,-1.445 0.98,-1.855 0.352,-2.727 -1.395,-2.044 -0.193,0.076 -0.311,0.144 -0.424,0.17 a 0.768,0.768 0 0 1 -0.205,0.023 c -2.238,-0.066 -1.543,-2.906 -1.428,-3.684 0.031,-0.211 0.152,-0.468 0.232,-0.733 0.213,-0.694 0.475,-1.178 0.723,-1.671 0.238,-0.475 0.549,-1.239 0.986,-1.962 1.383,-2.287 2.906,-4.474 4.549,-6.374 1.639,-1.894 3.635,-3.765 5.584,-5.45 1.715,-1.483 3.447,-2.383 5.588,-3.113 3.605,-1.229 7.75,-1.634 10.961,-1.286 0.951,0.103 1.898,0.262 2.84,0.479 0.375,0.086 0.738,0.188 1.086,0.306 0.219,0.074 0.438,0.14 0.662,0.189 0.074,0.016 0.391,0.104 1.064,0.324 2.552,0.827 9.052,3.116 8.009,2.68 z M 73.73,26.108 c -0.158,0.376 -0.099,0.819 0.223,1.233 0.234,0.302 0.478,0.567 0.741,0.801 a 11.388,11.388 0 0 1 2.033,2.361 c 0.9,1.394 1.573,2.786 2.013,4.176 0.431,1.361 0.667,2.713 0.888,4.068 0.065,0.398 -0.009,0.79 -0.165,1.132 a 1.983,1.983 0 0 1 -0.646,0.805 c -0.29,0.205 -0.642,0.289 -0.995,0.295 -0.354,0.006 -0.7,-0.076 -1.044,-0.205 A 14.268,14.268 0 0 1 75.003,39.953 C 73.574,39.18 72.116,38.1 70.756,36.81 c -1.287,-1.221 -2.555,-2.651 -3.44,-4.064 -0.649,-1.036 -1.11,-2.074 -1.381,-3.105 -0.104,-0.398 -0.173,-0.789 -0.104,-1.177 0.067,-0.38 0.237,-0.714 0.498,-0.983 0.273,-0.282 0.593,-0.474 0.95,-0.565 a 2.641,2.641 0 0 1 1.044,-0.051 c 0.523,0.073 1.044,0.195 1.567,0.246 0.317,0.031 0.636,0 0.91,-0.132 0.267,-0.129 0.46,-0.328 0.547,-0.596 0.09,-0.276 0.043,-0.582 -0.134,-0.913 a 3.648,3.648 0 0 0 -0.711,-0.897 7.522,7.522 0 0 0 -1.134,-0.898 c -0.772,-0.5 -1.537,-0.885 -2.297,-1.224 -2.443,-1.09 -4.878,-1.708 -7.312,-1.875 a 36.574,36.574 0 0 0 -13.162,1.476 c -1.665,0.5 -3.33,1.132 -4.931,1.835 -3.078,1.351 -7.457,3.715 -10.076,5.852 a 17.93,17.93 0 0 0 -0.875,0.766 c -0.685,0.638 -1.416,1.18 -2.084,1.773 -2.428,2.155 -4.353,4.4 -6.44,6.975 a 8.515,8.515 0 0 0 -1.041,1.605 c -0.156,0.316 -0.255,0.644 -0.244,0.958 0.011,0.301 0.122,0.531 0.333,0.673 0.203,0.137 0.474,0.197 0.8,0.133 0.316,-0.062 0.63,-0.184 0.94,-0.34 l 3.448,-1.614 c 3.378,-1.571 7.029,-2.786 10.274,-3.395 2.566,-0.481 5.183,-0.46 7.799,-0.276 2.235,0.158 4.438,0.939 6.685,2.007 a 16.911,16.911 0 0 1 3.62,2.3 49.447,49.447 0 0 1 3.568,3.294 c 2.118,2.163 5.831,6.876 7.096,9.658 0.349,0.767 0.645,1.559 0.943,2.265 0.278,0.66 0.538,1.336 0.641,1.911 0.11,0.621 0.172,1.074 0.203,1.535 0.02,0.298 -0.034,0.621 -0.174,0.953 -0.125,0.296 -0.335,0.55 -0.622,0.713 -0.277,0.159 -0.619,0.192 -0.976,0.111 -0.354,-0.079 -0.695,-0.25 -1.044,-0.418 a 1.809,1.809 0 0 0 -0.811,-0.194 c -0.277,0.008 -0.5,0.139 -0.617,0.377 a 1.06,1.06 0 0 0 -0.055,0.774 c 0.08,0.266 0.183,0.526 0.333,0.775 0.261,0.433 0.614,0.836 0.989,1.264 0.619,0.706 1.289,1.333 1.86,1.882 4.294,4.132 8.903,7.799 13.788,11.695 1.1,0.877 2.249,1.711 3.411,2.326 0.619,0.328 1.253,0.477 1.88,0.429 a 4.254,4.254 0 0 0 1.776,-0.534 c 0.62,-0.343 1.25,-0.873 1.866,-1.487 0.872,-0.869 1.563,-1.779 2.259,-2.731 0.914,-1.25 1.67,-2.535 2.186,-3.965 0.94,-2.608 1.345,-5.213 1.446,-7.813 C 94.935,59.369 94.266,54.613 92.729,49.886 91.608,46.438 89.866,43.024 87.994,39.638 87.652,39.02 87.22,38.461 86.712,37.787 l -2.6,-3.641 c -1.438,-1.959 -3.274,-3.909 -5.24,-5.691 A 18.941,18.941 0 0 0 75.844,26.19 C 75.495,25.983 75.147,25.824 74.8,25.756 74.307,25.661 73.909,25.794 73.73,26.108 Z M 12.994,71.606 c -0.344,0.065 -0.616,0.459 -0.776,1.039 -0.138,0.497 -0.265,0.988 -0.344,1.498 -1.137,7.293 -1.383,14.585 -0.538,21.882 -10e-4,-0.014 1.015,7.231 1.012,7.218 0.041,0.22 0.086,0.439 0.137,0.659 0.076,0.325 0.146,0.655 0.259,0.948 0.121,0.314 0.311,0.599 0.531,0.79 0.25,0.216 0.524,0.232 0.831,0.103 0.284,-0.121 0.476,-0.396 0.662,-0.77 0.201,-0.403 0.367,-0.787 0.498,-1.162 0.122,-0.346 0.282,-0.643 0.438,-0.81 0.144,-0.153 0.329,-0.206 0.517,-0.076 0.163,0.112 0.358,0.384 0.517,0.708 0.174,0.356 0.278,0.788 0.357,1.234 0.278,1.571 0.431,3.102 0.385,4.816 -0.04,1.499 -0.549,2.97 -1.126,4.496 -0.423,1.115 -0.412,2.28 -0.325,3.425 0.196,2.569 0.949,5.114 2.005,7.708 a 32.88,32.88 0 0 0 2.291,4.604 c 0.751,1.261 1.708,2.549 2.759,3.595 0.754,0.752 1.518,1.274 2.147,1.755 0.582,0.442 1.226,0.936 1.99,1.271 1.665,0.729 3.343,1.354 5.008,1.577 1.398,0.188 2.777,0.345 4.178,0.196 a 9.911,9.911 0 0 0 1.453,-0.27 c 2.321,-0.612 4.012,-1.591 5.248,-4.05 a 34.306,34.306 0 0 0 2.238,-5.667 c 0.377,-1.285 0.679,-2.569 0.877,-3.854 0.049,-0.318 0.079,-0.642 0.085,-0.963 0.006,-0.343 -0.083,-0.624 -0.243,-0.79 -0.157,-0.163 -0.379,-0.208 -0.671,-0.123 -0.27,0.078 -0.546,0.234 -0.831,0.428 -0.833,0.565 -1.671,0.915 -2.508,1.033 -1.18,0.167 -2.358,0.108 -3.551,-0.145 -0.76,-0.16 -1.531,-0.347 -2.297,-0.735 -0.836,-0.424 -1.529,-0.864 -2.094,-1.423 -1.3,-1.287 -2.469,-2.632 -3.336,-3.983 -0.282,-0.438 -0.688,-0.916 -1.106,-1.467 0.31,0.408 -3.441,-5.708 -3.204,-5.262 -0.07,-0.133 -0.143,-0.268 -0.217,-0.404 C 22.213,103.199 19.173,95.431 17.049,87.631 15.751,82.863 14.846,78.07 14.251,73.286 14.21,72.959 14.069,72.65 13.913,72.323 13.672,71.819 13.367,71.567 12.994,71.606 Z M 146.35,99.045 c -0.074,0.182 -0.148,0.367 -0.223,0.563 a 7.03,7.03 0 0 1 -0.775,1.523 c -0.395,0.566 -0.947,1.284 -1.479,2.181 a 11.79,11.79 0 0 1 -2.211,2.757 c -0.494,0.461 -0.979,0.873 -1.482,1.232 -0.283,0.203 -0.561,0.351 -0.865,0.356 -0.326,0.007 -0.572,-0.103 -0.727,-0.302 -0.162,-0.21 -0.219,-0.484 -0.154,-0.82 0.057,-0.291 0.227,-0.567 0.43,-0.856 0.221,-0.316 0.488,-0.643 0.766,-0.963 0.561,-0.646 1,-1.294 1.289,-1.9 0.291,-0.608 0.529,-1.134 0.688,-1.59 0.184,-0.529 0.387,-1.118 0.533,-1.86 0.08,-0.41 0.041,-0.719 -0.045,-1.024 -0.09,-0.323 -0.318,-0.504 -0.506,-0.714 -0.215,-0.238 -0.453,-0.501 -0.811,-0.704 -0.289,-0.163 -0.572,-0.32 -0.936,-0.352 -0.377,-0.034 -0.594,-0.033 -0.75,0.035 -0.182,0.077 -0.375,0.122 -0.549,0.244 -0.205,0.147 -0.521,0.415 -0.871,0.692 -0.592,0.472 -1.119,1.02 -1.631,1.6 -0.852,0.965 -1.391,1.931 -1.838,3.032 -0.203,0.502 -0.402,0.946 -0.443,1.433 -0.023,0.296 -0.129,0.491 -0.084,0.561 0.041,0.064 0.189,0.044 0.332,-0.081 0.152,-0.134 0.377,-0.355 0.668,-0.561 0.279,-0.197 0.531,-0.425 0.742,-0.739 0.223,-0.335 0.438,-0.604 0.686,-0.729 0.26,-0.13 0.508,-0.113 0.707,0.047 0.199,0.161 0.359,0.451 0.396,0.774 0.035,0.294 -0.049,0.577 -0.154,0.847 -0.125,0.319 -0.264,0.601 -0.412,0.901 -1.223,2.46 -2.576,4.539 -4.152,6.293 a 111.191,111.191 0 0 1 -4.713,4.952 c -0.613,0.603 -1.381,1.312 -2.086,2.217 -0.553,0.71 -1.02,1.434 -1.295,2.104 a 9.723,9.723 0 0 0 -0.562,1.928 c -0.088,0.488 -0.111,0.974 0.061,1.427 0.113,0.306 0.215,0.61 0.451,0.847 0.221,0.219 0.488,0.328 0.781,0.382 0.283,0.054 0.598,0.042 0.914,-0.056 a 5.265,5.265 0 0 0 1.105,-0.498 c 0.615,-0.356 1.123,-0.814 1.611,-1.319 1.008,-1.042 1.893,-2.114 2.604,-3.42 0.32,-0.587 0.521,-1.048 0.768,-1.446 0.602,-0.977 1.213,-2.328 1.832,-3.689 0.168,-0.369 0.371,-0.717 0.627,-1.02 0.207,-0.246 0.439,-0.381 0.656,-0.407 a 0.494,0.494 0 0 1 0.504,0.245 c 0.129,0.21 0.168,0.521 0.139,0.861 -0.027,0.287 -0.102,0.564 -0.166,0.855 -0.41,1.862 -0.764,3.721 -1.41,5.566 -0.643,1.836 -1.357,3.634 -2.102,4.852 -0.732,1.199 -1.297,2.146 -2.199,3.113 -0.395,0.421 -0.992,0.821 -1.613,1.416 -0.717,0.688 -1.424,1.3 -1.926,1.916 -2.355,2.898 -4.348,5.485 -6.156,8.605 -1.691,2.914 -2.811,5.725 -3.914,8.74 -0.301,0.817 -0.43,1.453 -0.609,2.16 -0.354,1.398 -0.592,2.935 -0.643,4.271 -0.016,0.43 -0.115,0.859 -0.324,1.325 -0.188,0.42 -0.451,0.773 -0.836,1.061 -0.383,0.285 -0.812,0.447 -1.229,0.595 a 19.314,19.314 0 0 1 -3.24,0.835 c -1.736,0.294 -3.451,0.437 -4.988,0.608 -0.596,0.066 -1.223,-0.1 -2.01,-0.22 a 2.421,2.421 0 0 1 -1.113,-0.449 c -0.303,-0.229 -0.551,-0.546 -0.762,-0.918 a 5.166,5.166 0 0 1 -0.477,-1.162 c -0.652,-2.355 -1.068,-4.79 -1.295,-7.224 -0.072,-0.789 0.006,-1.573 0.105,-2.355 0.043,-0.334 0.129,-0.646 0.279,-0.887 0.152,-0.245 0.34,-0.353 0.553,-0.32 0.209,0.031 0.416,0.203 0.586,0.489 0.193,0.322 0.318,0.679 0.428,1.04 l 0.695,2.463 c 0.166,0.605 0.391,1.208 0.74,1.819 0.279,0.488 0.646,0.934 1.098,1.25 0.418,0.291 0.836,0.476 1.254,0.515 0.459,0.043 0.908,-0.049 1.357,-0.229 0.5,-0.197 0.955,-0.518 1.369,-0.962 a 9.134,9.134 0 0 0 1.07,-1.417 c 0.41,-0.654 0.795,-1.382 0.971,-2.15 0.172,-0.746 0.145,-1.497 0.127,-2.248 -0.02,-0.775 0.004,-1.549 -0.074,-2.09 -0.078,-0.532 -0.121,-1.088 -0.342,-1.871 -0.992,-3.497 -2.045,-6.45 -3.074,-9.85 -0.23,-0.762 -0.436,-1.5 -0.379,-2.248 0.059,-0.751 0.299,-1.489 0.549,-2.247 0.791,-2.397 2.025,-4.784 3.689,-7.17 0.271,-0.39 0.539,-0.795 0.857,-1.146 0.281,-0.312 0.59,-0.512 0.91,-0.54 0.332,-0.029 0.682,0.127 1.029,0.291 0.354,0.168 0.701,0.262 1.045,0.22 0.326,-0.04 0.648,-0.224 0.973,-0.444 2.092,-1.427 5.477,-4.119 6.857,-6.557 a 2.59,2.59 0 0 1 0.301,-0.457 c 0.137,-0.147 0.156,-0.338 0.199,-0.484 0.029,-0.1 -0.045,-0.065 -0.184,-0.107 -0.172,-0.049 -0.424,-0.044 -0.727,0.102 -0.363,0.176 -0.703,0.312 -1,0.469 -0.105,0.057 -0.211,0.109 -0.312,0.161 -1.342,1.252 -4.459,0.688 -7.594,3.413 l -0.373,0.459 c -0.242,0.286 -0.574,0.543 -0.871,0.851 -0.232,0.242 -0.486,0.387 -0.781,0.438 -0.289,0.049 -0.514,0.006 -0.682,-0.174 -0.162,-0.175 -0.254,-0.46 -0.242,-0.775 0.012,-0.321 0.1,-0.637 0.184,-0.964 0.219,-0.851 0.5,-1.703 0.873,-2.568 0.863,-2.003 1.898,-3.99 3.443,-5.926 1.078,-1.35 2.703,-2.618 4.16,-3.912 0.678,-0.603 1.156,-1.194 1.639,-1.504 0.314,-0.201 0.666,-0.454 1.113,-0.814 0.441,-0.354 0.832,-0.829 1.225,-1.432 0.361,-0.553 0.633,-1.065 0.871,-1.509 0.23,-0.429 0.32,-0.824 0.434,-1.232 0.084,-0.301 0.135,-0.671 0.1,-1.062 -0.021,-0.268 -0.08,-0.496 -0.283,-0.703 -0.203,-0.209 -0.459,-0.313 -0.779,-0.398 -0.322,-0.084 -0.66,-0.14 -1.01,-0.097 -0.502,0.062 -0.971,0.281 -1.408,0.58 -0.422,0.289 -0.805,0.55 -1.1,0.774 -0.656,0.499 -1.229,1.196 -1.893,2.165 a 1.708,1.708 0 0 1 -0.77,0.643 0.922,0.922 0 0 1 -0.816,-0.057 c -0.23,-0.14 -0.416,-0.37 -0.512,-0.658 a 1.842,1.842 0 0 1 -0.055,-0.896 c 0.059,-0.328 0.176,-0.634 0.26,-0.969 0.248,-1.005 0.541,-2.017 0.912,-3.021 3.607,-8.917 10.242,-14.511 16.477,-20.501 a 40,40 0 0 0 3.953,-4.42 c 0.756,-0.973 2.967,-4.455 2.986,-5.835 a 5.34,5.34 0 0 0 -0.107,-1.091 c -0.076,-0.402 -0.225,-0.742 -0.496,-0.994 -0.195,-0.181 -0.418,-0.322 -0.701,-0.332 -0.334,-0.011 -0.668,0.028 -1.045,0.066 -0.67,0.067 -1.328,0.219 -1.986,0.55 l -1.254,0.651 c -0.318,0.155 -0.635,0.216 -0.908,0.173 -0.281,-0.044 -0.502,-0.187 -0.607,-0.434 -0.094,-0.219 -0.1,-0.484 0.006,-0.78 0.102,-0.29 0.205,-0.588 0.377,-0.846 0.072,-0.107 0.146,-0.213 0.223,-0.318 2.992,-4.084 8.678,-9.938 12.875,-12.712 3.289,-2.174 6.846,-3.452 10.811,-3.42 4.422,0.037 9.141,1.499 12.639,3.693 4.893,3.07 9.314,8.012 12.68,12.959 0.414,0.608 0.811,1.224 1.186,1.847 0.367,0.608 0.73,1.211 1.035,1.82 0.158,0.32 0.246,0.647 0.242,0.948 -0.004,0.312 -0.131,0.567 -0.334,0.704 -0.217,0.146 -0.504,0.183 -0.814,0.117 -0.314,-0.067 -0.623,-0.214 -0.941,-0.378 l -1.461,-0.73 c -0.467,-0.238 -0.889,-0.502 -1.309,-0.678 a 6.72,6.72 0 0 0 -1.254,-0.373 3.95,3.95 0 0 0 -1.197,-0.103 4.717,4.717 0 0 0 -1.562,0.413 c -0.562,0.254 -1.037,0.636 -1.469,1.019 a 4.65,4.65 0 0 0 -0.92,1.11 c -0.215,0.359 -0.4,0.852 -0.473,1.371 -0.082,0.583 -0.041,1.154 0.033,1.677 0.047,0.335 0.131,0.665 0.303,0.917 0.174,0.255 0.455,0.417 0.752,0.475 0.287,0.057 0.576,-0.01 0.855,-0.143 0.322,-0.153 0.549,-0.372 0.74,-0.591 0.25,-0.283 0.426,-0.656 0.629,-1.08 0.154,-0.327 0.314,-0.694 0.531,-1.024 0.201,-0.304 0.453,-0.5 0.701,-0.565 a 0.6,0.6 0 0 1 0.639,0.229 c 0.174,0.229 0.254,0.518 0.258,0.856 0.004,0.321 -0.021,0.641 -0.037,0.963 -0.078,1.63 -0.354,3.255 -0.732,4.883 -3.654,10.235 -7.773,14.126 -12.285,20.089 -2.49,3.292 -3.307,4.837 -5.201,8.638 -0.111,0.253 -0.25,0.544 -0.428,0.892 -0.713,1.394 0.117,2.906 1.246,1.171 l 1.939,-2.765 c 0.299,-0.556 0.566,-1.133 0.932,-1.664 l 0.062,-0.09 c 1.045,-1.882 2.109,-1.643 2.656,-0.836 0.627,0.924 0.088,2.248 -0.137,3.232 l -0.043,0.191 c -1.445,5.336 -5.572,9.59 -8.826,13.295 -0.191,0.217 -0.385,0.434 -0.58,0.652 -0.41,0.457 -0.896,0.887 -1.527,1.273 -0.674,0.413 -1.383,0.754 -2.215,0.957 -0.498,0.121 -0.979,0.179 -1.406,0.029 a 3.422,3.422 0 0 1 -1.184,-0.668 c -0.424,-0.374 -0.812,-0.788 -1.109,-1.279 a 11.85,11.85 0 0 1 -0.93,-1.928 c -0.26,-0.688 -0.51,-1.359 -0.67,-1.811 -0.158,-0.441 -0.26,-0.943 -0.318,-1.677 -0.098,-1.227 -0.154,-2.275 -0.207,-2.997 -0.031,-0.44 -0.158,-0.905 -0.094,-1.555 0.096,-0.936 0.182,-1.93 0.283,-2.93 0.152,-1.531 2.859,-15.229 3.254,-16.592 l 0.074,-0.265 c 0.959,-3.442 1.611,-9.015 -1.184,-11.791 -1.408,-1.398 -2.928,0.54 -3.293,1.879 a 15.243,15.243 0 0 0 -0.428,2.004 c -0.213,1.575 1.289,12.186 1.457,13.765 0.045,0.439 0.078,0.855 0.1,1.244 0.108,1.982 0.067,2.749 -0.78,4.823 z"
       id="path4"
       style="clip-rule:evenodd;fill-rule:evenodd" />
  </g>
</svg>
