<?xml version="1.0" encoding="UTF-8" standalone="no"?>
<svg
   width="52"
   height="52"
   viewBox="0 0 21.085334 21.084877"
   version="1.1"
   id="svg369"
   sodipodi:docname="logoBmw.svg"
   inkscape:version="1.1.1 (3bf5ae0d25, 2021-09-20)"
   xmlns:inkscape="http://www.inkscape.org/namespaces/inkscape"
   xmlns:sodipodi="http://sodipodi.sourceforge.net/DTD/sodipodi-0.dtd"
   xmlns="http://www.w3.org/2000/svg"
   xmlns:svg="http://www.w3.org/2000/svg">
  <defs
     id="defs373" />
  <sodipodi:namedview
     id="namedview371"
     pagecolor="#ffffff"
     bordercolor="#666666"
     borderopacity="1.0"
     inkscape:pageshadow="2"
     inkscape:pageopacity="0.0"
     inkscape:pagecheckerboard="true"
     showgrid="false"
     width="52px"
     inkscape:zoom="5.0685414"
     inkscape:cx="16.474168"
     inkscape:cy="20.617371"
     inkscape:window-width="1366"
     inkscape:window-height="745"
     inkscape:window-x="-8"
     inkscape:window-y="-8"
     inkscape:window-maximized="1"
     inkscape:current-layer="svg369" />
  <linearGradient
     id="a"
     gradientUnits="userSpaceOnUse"
     x1="-1120.126"
     y1="2189.824"
     x2="-44.679001"
     y2="1150.587"
     gradientTransform="matrix(1,0,0,-1,1045.93,2135.176)">
    <stop
       offset="0"
       stop-color="#dff4ff"
       id="stop2" />
    <stop
       offset=".098"
       stop-color="#d6eaf5"
       id="stop4" />
    <stop
       offset=".268"
       stop-color="#bfd0d9"
       id="stop6" />
    <stop
       offset=".488"
       stop-color="#98a5ac"
       id="stop8" />
    <stop
       offset=".747"
       stop-color="#646b6e"
       id="stop10" />
    <stop
       offset="1"
       stop-color="#2b2b2b"
       id="stop12" />
  </linearGradient>
  <radialGradient
     id="b"
     cx="-1052.2469"
     cy="2101.6521"
     r="720.10797"
     gradientTransform="matrix(1,0,0,-1,1045.93,2135.176)"
     gradientUnits="userSpaceOnUse">
    <stop
       offset="0"
       stop-color="#fff"
       id="stop19" />
    <stop
       offset=".306"
       stop-color="#a8a8a8"
       id="stop21" />
    <stop
       offset=".646"
       stop-color="#4f4f4f"
       id="stop23" />
    <stop
       offset=".885"
       stop-color="#161616"
       id="stop25" />
    <stop
       offset="1"
       id="stop27" />
  </radialGradient>
  <linearGradient
     id="c"
     gradientUnits="userSpaceOnUse"
     x1="-818.02899"
     y1="1409.9771"
     x2="-133.08099"
     y2="748.09198"
     gradientTransform="matrix(-1,0,0,1,58.906,-545.52)">
    <stop
       offset="0"
       stop-color="#dff4ff"
       id="stop32" />
    <stop
       offset=".086"
       stop-color="#d6eaf5"
       id="stop34" />
    <stop
       offset=".233"
       stop-color="#bed0d9"
       id="stop36" />
    <stop
       offset=".424"
       stop-color="#96a4ac"
       id="stop38" />
    <stop
       offset=".652"
       stop-color="#5f686d"
       id="stop40" />
    <stop
       offset=".907"
       stop-color="#1a1d1e"
       id="stop42" />
    <stop
       offset="1"
       id="stop44" />
  </linearGradient>
  <radialGradient
     id="d"
     cx="-1181.576"
     cy="2174.9851"
     r="1730.313"
     gradientTransform="matrix(1,0,0,-1,1045.93,2135.176)"
     gradientUnits="userSpaceOnUse">
    <stop
       offset="0"
       stop-color="#fff"
       id="stop53" />
    <stop
       offset=".31"
       stop-color="#fdfdfd"
       id="stop55" />
    <stop
       offset=".451"
       stop-color="#f6f6f6"
       id="stop57" />
    <stop
       offset=".557"
       stop-color="#e9e9e9"
       id="stop59" />
    <stop
       offset=".646"
       stop-color="#d7d7d7"
       id="stop61" />
    <stop
       offset=".724"
       stop-color="#bfbfbf"
       id="stop63" />
    <stop
       offset=".794"
       stop-color="#a2a2a2"
       id="stop65" />
    <stop
       offset=".859"
       stop-color="gray"
       id="stop67" />
    <stop
       offset=".92"
       stop-color="#575757"
       id="stop69" />
    <stop
       offset=".975"
       stop-color="#2b2b2b"
       id="stop71" />
    <stop
       offset="1"
       stop-color="#141414"
       id="stop73" />
  </radialGradient>
  <radialGradient
     id="e"
     cx="-1181.653"
     cy="2174.9851"
     r="1730.4611"
     gradientTransform="matrix(1,0,0,-1,1045.93,2135.176)"
     gradientUnits="userSpaceOnUse">
    <stop
       offset="0"
       stop-color="#fff"
       id="stop78" />
    <stop
       offset=".31"
       stop-color="#fdfdfd"
       id="stop80" />
    <stop
       offset=".451"
       stop-color="#f6f6f6"
       id="stop82" />
    <stop
       offset=".557"
       stop-color="#e9e9e9"
       id="stop84" />
    <stop
       offset=".646"
       stop-color="#d7d7d7"
       id="stop86" />
    <stop
       offset=".724"
       stop-color="#bfbfbf"
       id="stop88" />
    <stop
       offset=".794"
       stop-color="#a2a2a2"
       id="stop90" />
    <stop
       offset=".859"
       stop-color="gray"
       id="stop92" />
    <stop
       offset=".92"
       stop-color="#575757"
       id="stop94" />
    <stop
       offset=".975"
       stop-color="#2b2b2b"
       id="stop96" />
    <stop
       offset="1"
       stop-color="#141414"
       id="stop98" />
  </radialGradient>
  <radialGradient
     id="f"
     cx="-1181.748"
     cy="2175.4929"
     r="1731.785"
     gradientTransform="matrix(1,0,0,-1,1045.93,2135.176)"
     gradientUnits="userSpaceOnUse">
    <stop
       offset="0"
       stop-color="#fff"
       id="stop103" />
    <stop
       offset=".31"
       stop-color="#fdfdfd"
       id="stop105" />
    <stop
       offset=".451"
       stop-color="#f6f6f6"
       id="stop107" />
    <stop
       offset=".557"
       stop-color="#e9e9e9"
       id="stop109" />
    <stop
       offset=".646"
       stop-color="#d7d7d7"
       id="stop111" />
    <stop
       offset=".724"
       stop-color="#bfbfbf"
       id="stop113" />
    <stop
       offset=".794"
       stop-color="#a2a2a2"
       id="stop115" />
    <stop
       offset=".859"
       stop-color="gray"
       id="stop117" />
    <stop
       offset=".92"
       stop-color="#575757"
       id="stop119" />
    <stop
       offset=".975"
       stop-color="#2b2b2b"
       id="stop121" />
    <stop
       offset="1"
       stop-color="#141414"
       id="stop123" />
  </radialGradient>
  <radialGradient
     id="g"
     cx="-871.677"
     cy="1935.101"
     r="466.71799"
     gradientTransform="matrix(1,0,0,-1,1045.93,2135.176)"
     gradientUnits="userSpaceOnUse">
    <stop
       offset="0"
       stop-color="#e6e6e6"
       id="stop128" />
    <stop
       offset=".104"
       stop-color="#d6d6d6"
       id="stop130" />
    <stop
       offset=".307"
       stop-color="#adadad"
       id="stop132" />
    <stop
       offset=".588"
       stop-color="#6c6c6c"
       id="stop134" />
    <stop
       offset=".933"
       stop-color="#121212"
       id="stop136" />
    <stop
       offset="1"
       id="stop138" />
  </radialGradient>
  <radialGradient
     id="h"
     cx="-744.02399"
     cy="1872.327"
     r="678.742"
     gradientTransform="matrix(1,0,0,-1,1045.93,2135.176)"
     gradientUnits="userSpaceOnUse">
    <stop
       offset="0"
       stop-color="#fff"
       id="stop143" />
    <stop
       offset=".344"
       stop-color="#fdfdfd"
       id="stop145" />
    <stop
       offset=".481"
       stop-color="#f6f6f6"
       id="stop147" />
    <stop
       offset=".582"
       stop-color="#eaeaea"
       id="stop149" />
    <stop
       offset=".665"
       stop-color="#d8d8d8"
       id="stop151" />
    <stop
       offset=".737"
       stop-color="#c2c2c2"
       id="stop153" />
    <stop
       offset=".802"
       stop-color="#a6a6a6"
       id="stop155" />
    <stop
       offset=".86"
       stop-color="#848484"
       id="stop157" />
    <stop
       offset=".913"
       stop-color="#5f5f5f"
       id="stop159" />
    <stop
       offset=".949"
       stop-color="#404040"
       id="stop161" />
    <stop
       offset=".957"
       stop-color="#404040"
       id="stop163" />
    <stop
       offset="1"
       stop-color="#404040"
       id="stop165" />
    <stop
       offset="1"
       id="stop167" />
  </radialGradient>
  <radialGradient
     id="i"
     cx="-943.31201"
     cy="2129.614"
     r="1202.0601"
     gradientTransform="matrix(1,0,0,-1,1045.93,2135.176)"
     gradientUnits="userSpaceOnUse">
    <stop
       offset=".169"
       stop-color="#fff"
       id="stop172" />
    <stop
       offset=".196"
       stop-color="#e0eff7"
       id="stop174" />
    <stop
       offset=".241"
       stop-color="#b2d9ec"
       id="stop176" />
    <stop
       offset=".287"
       stop-color="#8bc5e2"
       id="stop178" />
    <stop
       offset=".335"
       stop-color="#6bb5da"
       id="stop180" />
    <stop
       offset=".384"
       stop-color="#52a9d4"
       id="stop182" />
    <stop
       offset=".436"
       stop-color="#41a0cf"
       id="stop184" />
    <stop
       offset=".491"
       stop-color="#369bcd"
       id="stop186" />
    <stop
       offset=".556"
       stop-color="#39c"
       id="stop188" />
    <stop
       offset=".606"
       stop-color="#3396c8"
       id="stop190" />
    <stop
       offset=".655"
       stop-color="#328ebc"
       id="stop192" />
    <stop
       offset=".705"
       stop-color="#3180a8"
       id="stop194" />
    <stop
       offset=".754"
       stop-color="#2f6d8c"
       id="stop196" />
    <stop
       offset=".803"
       stop-color="#2d5468"
       id="stop198" />
    <stop
       offset=".851"
       stop-color="#2a373d"
       id="stop200" />
    <stop
       offset=".871"
       stop-color="#292929"
       id="stop202" />
  </radialGradient>
  <radialGradient
     id="j"
     cx="-943.31201"
     cy="2129.623"
     r="1202.037"
     gradientTransform="matrix(1,0,0,-1,1045.93,2135.176)"
     gradientUnits="userSpaceOnUse">
    <stop
       offset=".169"
       stop-color="#fff"
       id="stop207" />
    <stop
       offset=".196"
       stop-color="#e0eff7"
       id="stop209" />
    <stop
       offset=".241"
       stop-color="#b2d9ec"
       id="stop211" />
    <stop
       offset=".287"
       stop-color="#8bc5e2"
       id="stop213" />
    <stop
       offset=".335"
       stop-color="#6bb5da"
       id="stop215" />
    <stop
       offset=".384"
       stop-color="#52a9d4"
       id="stop217" />
    <stop
       offset=".436"
       stop-color="#41a0cf"
       id="stop219" />
    <stop
       offset=".491"
       stop-color="#369bcd"
       id="stop221" />
    <stop
       offset=".556"
       stop-color="#39c"
       id="stop223" />
    <stop
       offset=".606"
       stop-color="#3396c8"
       id="stop225" />
    <stop
       offset=".655"
       stop-color="#328ebc"
       id="stop227" />
    <stop
       offset=".705"
       stop-color="#3180a8"
       id="stop229" />
    <stop
       offset=".754"
       stop-color="#2f6d8c"
       id="stop231" />
    <stop
       offset=".803"
       stop-color="#2d5468"
       id="stop233" />
    <stop
       offset=".851"
       stop-color="#2a373d"
       id="stop235" />
    <stop
       offset=".871"
       stop-color="#292929"
       id="stop237" />
  </radialGradient>
  <radialGradient
     id="k"
     cx="-865.30298"
     cy="1929.222"
     r="457.77301"
     gradientTransform="matrix(1,0,0,-1,1045.93,2135.176)"
     gradientUnits="userSpaceOnUse">
    <stop
       offset="0"
       stop-color="#e6e6e6"
       id="stop242" />
    <stop
       offset=".104"
       stop-color="#d6d6d6"
       id="stop244" />
    <stop
       offset=".307"
       stop-color="#adadad"
       id="stop246" />
    <stop
       offset=".588"
       stop-color="#6c6c6c"
       id="stop248" />
    <stop
       offset=".933"
       stop-color="#121212"
       id="stop250" />
    <stop
       offset="1"
       id="stop252" />
  </radialGradient>
  <linearGradient
     id="l"
     gradientUnits="userSpaceOnUse"
     x1="-599.09601"
     y1="2043.521"
     x2="-152.677"
     y2="1612.1331"
     gradientTransform="matrix(1,0,0,-1,1045.93,2135.176)">
    <stop
       offset="0"
       stop-color="#f0f4ff"
       id="stop257" />
    <stop
       offset=".109"
       stop-color="#ebeff9"
       id="stop259" />
    <stop
       offset=".247"
       stop-color="#dce0ea"
       id="stop261" />
    <stop
       offset=".403"
       stop-color="#c4c7cf"
       id="stop263" />
    <stop
       offset=".57"
       stop-color="#a2a4ab"
       id="stop265" />
    <stop
       offset=".747"
       stop-color="#76777c"
       id="stop267" />
    <stop
       offset=".929"
       stop-color="#414243"
       id="stop269" />
    <stop
       offset="1"
       stop-color="#2b2b2b"
       id="stop271" />
  </linearGradient>
  <linearGradient
     id="m"
     gradientUnits="userSpaceOnUse"
     x1="-961.44"
     y1="1679.306"
     x2="-515.01501"
     y2="1247.911"
     gradientTransform="matrix(1,0,0,-1,1045.93,2135.176)">
    <stop
       offset="0"
       stop-color="#f0f4ff"
       id="stop278" />
    <stop
       offset=".109"
       stop-color="#ebeff9"
       id="stop280" />
    <stop
       offset=".247"
       stop-color="#dce0ea"
       id="stop282" />
    <stop
       offset=".403"
       stop-color="#c4c7cf"
       id="stop284" />
    <stop
       offset=".57"
       stop-color="#a2a4ab"
       id="stop286" />
    <stop
       offset=".747"
       stop-color="#76777c"
       id="stop288" />
    <stop
       offset=".929"
       stop-color="#414243"
       id="stop290" />
    <stop
       offset="1"
       stop-color="#2b2b2b"
       id="stop292" />
  </linearGradient>
  <linearGradient
     id="n"
     gradientUnits="userSpaceOnUse"
     x1="-745.47101"
     y1="1833.135"
     x2="-513.98199"
     y2="1609.4399"
     gradientTransform="matrix(1,0,0,-1,1045.93,2135.176)">
    <stop
       offset="0"
       stop-color="#c2d7e8"
       id="stop299" />
    <stop
       offset=".134"
       stop-color="#bacfe1"
       id="stop301" />
    <stop
       offset=".343"
       stop-color="#a4bacd"
       id="stop303" />
    <stop
       offset=".6"
       stop-color="#8098ac"
       id="stop305" />
    <stop
       offset=".894"
       stop-color="#4e697f"
       id="stop307" />
    <stop
       offset="1"
       stop-color="#3a566d"
       id="stop309" />
  </linearGradient>
  <linearGradient
     id="o"
     gradientUnits="userSpaceOnUse"
     x1="-861.40399"
     y1="1778.3199"
     x2="-419.47299"
     y2="1351.2679"
     gradientTransform="matrix(1,0,0,-1,1045.93,2135.176)">
    <stop
       offset="0"
       stop-color="#f0f4ff"
       id="stop314" />
    <stop
       offset=".097"
       stop-color="#e8ebf6"
       id="stop316" />
    <stop
       offset=".257"
       stop-color="#d1d4dd"
       id="stop318" />
    <stop
       offset=".459"
       stop-color="#abaeb5"
       id="stop320" />
    <stop
       offset=".695"
       stop-color="#78797d"
       id="stop322" />
    <stop
       offset=".958"
       stop-color="#363637"
       id="stop324" />
    <stop
       offset="1"
       stop-color="#2b2b2b"
       id="stop326" />
  </linearGradient>
  <linearGradient
     id="p"
     gradientUnits="userSpaceOnUse"
     x1="-535.67401"
     y1="1619.907"
     x2="-380.65601"
     y2="1470.109"
     gradientTransform="matrix(1,0,0,-1,1045.93,2135.176)">
    <stop
       offset="0"
       stop-color="#d9def0"
       id="stop331" />
    <stop
       offset=".123"
       stop-color="#d4daec"
       id="stop333" />
    <stop
       offset=".263"
       stop-color="#c7cfe2"
       id="stop335" />
    <stop
       offset=".411"
       stop-color="#b0bcd1"
       id="stop337" />
    <stop
       offset=".566"
       stop-color="#90a1b8"
       id="stop339" />
    <stop
       offset=".725"
       stop-color="#677f99"
       id="stop341" />
    <stop
       offset=".885"
       stop-color="#355674"
       id="stop343" />
    <stop
       offset=".972"
       stop-color="#173d5d"
       id="stop345" />
  </linearGradient>
  <linearGradient
     id="q"
     gradientUnits="userSpaceOnUse"
     x1="-694.25098"
     y1="1940.3979"
     x2="-252.797"
     y2="1513.809"
     gradientTransform="matrix(1,0,0,-1,1045.93,2135.176)">
    <stop
       offset="0"
       stop-color="#f0f4ff"
       id="stop350" />
    <stop
       offset=".109"
       stop-color="#ebeff9"
       id="stop352" />
    <stop
       offset=".247"
       stop-color="#dce0ea"
       id="stop354" />
    <stop
       offset=".403"
       stop-color="#c4c7cf"
       id="stop356" />
    <stop
       offset=".57"
       stop-color="#a2a4ab"
       id="stop358" />
    <stop
       offset=".747"
       stop-color="#76777c"
       id="stop360" />
    <stop
       offset=".929"
       stop-color="#414243"
       id="stop362" />
    <stop
       offset="1"
       stop-color="#2b2b2b"
       id="stop364" />
  </linearGradient>
  <g
     id="g397"
     transform="scale(0.02080002,0.02080043)">
    <path
       d="M 506.86,0 C 226.94,0 0,226.918 0,506.848 c 0,279.927 226.94,506.849 506.86,506.849 279.94,0 506.857,-226.922 506.857,-506.849 C 1013.719,226.918 786.802,0 506.86,0 Z m 0,988.352 c -265.939,0 -481.495,-215.573 -481.495,-481.504 0,-265.927 215.556,-481.512 481.495,-481.512 265.938,0 481.511,215.584 481.511,481.512 0,265.93 -215.573,481.504 -481.511,481.504 z"
       fill="url(#a)"
       id="path15"
       style="fill:url(#a)" />
    <path
       d="m 992.004,506.848 c 0,267.914 -217.228,485.134 -485.144,485.134 -267.919,0 -485.123,-217.22 -485.123,-485.134 0,-267.929 217.204,-485.133 485.123,-485.133 267.916,0 485.144,217.204 485.144,485.133 z"
       fill="#333333"
       id="path17" />
    <path
       d="m 988.371,506.848 c 0,265.931 -215.573,481.504 -481.511,481.504 -265.939,0 -481.495,-215.573 -481.495,-481.504 0,-265.927 215.556,-481.512 481.495,-481.512 265.938,0 481.511,215.585 481.511,481.512 z"
       fill="url(#b)"
       id="path30"
       style="fill:url(#b)" />
    <path
       d="m 829.677,506.848 c 0,178.28 -144.53,322.804 -322.815,322.804 -178.289,0 -322.819,-144.522 -322.819,-322.804 0,-178.289 144.53,-322.815 322.819,-322.815 178.284,-10e-4 322.815,144.527 322.815,322.815 z"
       fill="url(#c)"
       id="path47"
       style="fill:url(#c)" />
    <path
       d="m 519.791,175.308 33.533,-88.877 v 88.877 h 25.469 V 48.021 h -38.275 l -34.814,91.136 h 0.331 L 471.223,48.021 h -38.276 v 127.287 h 25.469 V 86.431 l 33.533,88.877 z m 349.522,57.076 -43.514,63.447 68.347,-33.615 18.538,22.231 -107.569,54.012 -21.735,-26.315 41.697,-62.869 -0.247,-0.31 -69.357,29.686 -21.984,-26.138 72.532,-96.044 18.542,22.243 -45.417,61.159 70.287,-31.349 z"
       id="path49" />
    <path
       d="m 281.427,208.068 c -10.251,-9.951 -26.069,-12.951 -40.939,-3.733 2.847,-7.363 1.691,-14.858 0.187,-19.015 -6.414,-11.662 -8.662,-13.137 -13.899,-17.561 -17.097,-14.324 -35.082,-2.093 -47.93,13.219 l -62.116,74.028 97.65,81.925 65.5,-78.047 c 14.971,-17.838 17.282,-35.523 1.547,-50.816 z m -126.321,35.7 37.311,-44.464 c 4.33,-5.146 14.106,-4.939 20.375,0.341 6.908,5.795 6.929,14.002 2.289,19.54 l -36.896,43.95 z m 102.934,7.393 -38.896,46.353 -24.355,-20.47 39.186,-46.711 c 4.434,-5.281 14.312,-6.817 20.974,-1.229 7.504,6.312 8.246,15.912 3.091,22.057 z"
       fill="#333333"
       id="path51" />
    <path
       fill="url(#d)"
       d="m 520.06,170.39 33.533,-88.875 v 88.875 h 25.47 V 43.103 h -38.279 l -34.811,91.133 h 0.33 L 471.491,43.103 H 433.213 V 170.39 h 25.47 V 81.515 l 33.536,88.875 z"
       id="path76"
       style="fill:url(#d)" />
    <path
       fill="url(#e)"
       d="m 869.563,223.844 -43.496,63.449 68.347,-33.626 18.52,22.242 -107.553,54.012 -21.736,-26.325 41.7,-62.861 -0.245,-0.319 -69.38,29.698 -21.96,-26.151 72.531,-96.033 18.539,22.234 -45.41,61.158 70.26,-31.337 z"
       id="path101"
       style="fill:url(#e)" />
    <path
       d="m 276.868,205.563 c -10.229,-9.951 -26.068,-12.953 -40.916,-3.743 2.824,-7.364 1.67,-14.86 0.166,-18.996 -6.415,-11.682 -8.642,-13.137 -13.923,-17.57 -17.096,-14.333 -35.059,-2.095 -47.887,13.231 l -62.14,74.016 97.653,81.926 65.499,-78.059 c 14.954,-17.839 17.283,-35.512 1.548,-50.805 z m -126.316,35.698 37.307,-44.453 c 4.312,-5.155 14.086,-4.949 20.376,0.319 6.909,5.806 6.93,14.023 2.268,19.54 l -36.873,43.959 z m 102.951,7.393 -38.896,46.352 -24.398,-20.47 39.207,-46.721 c 4.434,-5.269 14.291,-6.806 20.953,-1.216 7.547,6.32 8.29,15.9 3.134,22.055 z"
       fill="url(#f)"
       id="path126"
       style="fill:url(#f)" />
    <path
       d="m 194.788,506.853 c 0,-172.358 139.725,-312.083 312.073,-312.083 172.367,0 312.072,139.724 312.072,312.083 0,172.351 -139.705,312.07 -312.072,312.07 -172.35,0 -312.073,-139.72 -312.073,-312.07 z"
       fill="url(#g)"
       id="path141"
       style="fill:url(#g)" />
    <path
       d="m 203.76,506.853 c 0,-167.399 135.701,-303.112 303.102,-303.112 167.401,0 303.12,135.712 303.12,303.112 0,167.4 -135.722,303.112 -303.121,303.112 -167.399,0 -303.101,-135.712 -303.101,-303.112 z"
       fill="url(#h)"
       id="path170"
       style="fill:url(#h)" />
    <path
       d="M 203.284,506.853 H 506.86 V 203.277 c -167.669,0 -303.576,135.908 -303.576,303.576 z"
       fill="url(#i)"
       id="path205"
       style="fill:url(#i)" />
    <path
       d="m 506.86,506.853 v 303.578 c 167.667,0 303.576,-135.933 303.576,-303.578 z"
       fill="url(#j)"
       id="path240"
       style="fill:url(#j)" />
    <path
       fill="url(#k)"
       d="M 812.95,501.458 H 512.242 V 200.75 H 501.476 V 501.458 H 200.768 v 10.767 h 300.708 v 300.717 h 10.766 V 512.225 H 812.95 Z"
       id="path255"
       style="fill:url(#k)" />
    <path
       d="m 512.242,209.267 c 160.142,2.848 289.366,132.062 292.232,292.191 h 5.359 C 806.971,338.359 675.352,206.722 512.24,203.875 Z"
       fill="url(#l)"
       id="path274"
       style="fill:url(#l)" />
    <path
       d="M 208.729,501.418 C 211.574,341.071 340.985,211.671 501.333,208.814 v -5.383 C 337.997,206.287 206.213,338.1 203.346,501.417 Z"
       fill="#c2d7e8"
       id="path276" />
    <path
       d="M 501.476,804.433 C 341.336,801.589 212.112,672.365 209.265,512.225 h -5.381 c 2.865,163.108 134.483,294.75 297.593,297.595 z"
       fill="url(#m)"
       id="path295"
       style="fill:url(#m)" />
    <path
       d="m 804.475,512.225 c -2.866,160.14 -132.092,289.364 -292.232,292.208 v 5.387 C 675.353,806.975 806.99,675.335 809.836,512.225 Z"
       fill="#12404f"
       id="path297" />
    <path
       fill="url(#n)"
       d="m 495.724,203.432 v 292.119 h -292.11 v 5.764 H 501.476 V 203.432 Z"
       id="path312"
       style="fill:url(#n)" />
    <path
       fill="url(#o)"
       d="M 495.229,806.995 V 518.391 h -289.2 V 512.7 h 294.892 v 294.295 z"
       id="path329"
       style="fill:url(#o)" />
    <path
       fill="url(#p)"
       d="M 518.409,806.995 V 518.391 H 807.011 V 512.7 H 512.737 v 294.295 z"
       id="path348"
       style="fill:url(#p)" />
    <path
       fill="url(#q)"
       d="m 518.409,206.011 v 288.602 h 288.602 v 5.682 H 512.737 V 206.011 Z"
       id="path367"
       style="fill:url(#q)" />
  </g>
</svg>
