<?xml version="1.0" encoding="UTF-8" standalone="no"?>
<svg
   width="64.000008"
   height="63.987537"
   viewBox="0 0 4.9345542 4.9335927"
   version="1.1"
   id="svg1451"
   sodipodi:docname="logoAudi.svg"
   inkscape:version="1.1.1 (3bf5ae0d25, 2021-09-20)"
   xmlns:inkscape="http://www.inkscape.org/namespaces/inkscape"
   xmlns:sodipodi="http://sodipodi.sourceforge.net/DTD/sodipodi-0.dtd"
   xmlns="http://www.w3.org/2000/svg"
   xmlns:svg="http://www.w3.org/2000/svg">
  <defs
     id="defs1455" />
  <sodipodi:namedview
     id="namedview1453"
     pagecolor="#ffffff"
     bordercolor="#666666"
     borderopacity="1.0"
     inkscape:pageshadow="2"
     inkscape:pageopacity="0.0"
     inkscape:pagecheckerboard="true"
     showgrid="false"
     fit-margin-top="12.2"
     fit-margin-left="0"
     fit-margin-right="0"
     fit-margin-bottom="12.2"
     inkscape:zoom="5.0685414"
     inkscape:cx="48.041435"
     inkscape:cy="38.965845"
     inkscape:window-width="1360"
     inkscape:window-height="745"
     inkscape:window-x="-8"
     inkscape:window-y="-8"
     inkscape:window-maximized="1"
     inkscape:current-layer="svg1451" />
  <path
     d="M 4.157824,3.9713515 V 3.3162525 H 3.887468 v 0.655099 z M 2.726528,3.6993385 V 3.3261635 H 2.464483 v 0.285265 c 0,0.08291 -0.0033,0.10616 -0.0083,0.127724 -0.01825,0.05972 -0.08128,0.0862 -0.145945,0.0862 -0.08954,0 -0.131009,-0.03482 -0.147603,-0.08954 -0.005,-0.01819 -0.0066,-0.0381 -0.0083,-0.05801 -0.0017,-0.02156 0,-0.04481 0,-0.06963 v -0.28198 H 1.888976 v 0.374832 c 0,0.08463 0.02822,0.14763 0.07463,0.190729 0.0796,0.07797 0.213948,0.10119 0.338331,0.10119 0.150915,0 0.267015,-0.02156 0.349927,-0.102819 0.04316,-0.0415 0.07463,-0.09622 0.07463,-0.190785 z m -1.2869779,-0.04644 a 0.22293359,0.22293359 0 0 0 -0.039786,-0.0033 H 1.101247 c -0.014937,0 -0.031531,0.0017 -0.039814,0.0033 0.00497,-0.005 0.014937,-0.01491 0.024876,-0.02819 l 0.1343217,-0.22226 c 0.01825,-0.02982 0.026533,-0.04972 0.029846,-0.05801 0.00331,0.0083 0.011596,0.02819 0.029846,0.05972 l 0.1376629,0.223916 c 0.00665,0.0099 0.016594,0.01982 0.021563,0.02482 z M 1.940421,3.9713515 1.3433574,3.0757985 h -0.33499 l 0.087882,0.104476 c 0.00166,0.0017 0.005,0.0033 0.00828,0.005 -0.00331,0.0017 -0.00663,0.0033 -0.00828,0.0049 L 0.5755,3.9713515 h 0.3018307 l 0.081284,-0.13435 c 0.00331,-0.0066 0.00497,-0.01328 0.00497,-0.01657 0.00331,0 0.011624,0.0033 0.019907,0.0033 H 1.52249 c 0.0083,0 0.01491,-0.0017 0.01822,-0.0033 a 0.02246182,0.02246182 0 0 0 0.0033,0.01328 l 0.0846,0.137635 z m 1.874102,-0.336647 c 0,-0.073 -0.02987,-0.157598 -0.122726,-0.275354 L 3.467881,3.0757705 H 3.156083 l 0.177448,0.199012 c 0.02987,0.03319 0.068,0.063 0.068,0.063 -0.0431,-0.0249 -0.09782,-0.03482 -0.140948,-0.03482 -0.102819,0 -0.207351,0.02156 -0.300174,0.073 -0.09953,0.05467 -0.165881,0.145918 -0.165881,0.267015 0,0.09285 0.04147,0.164196 0.09454,0.218919 0.11944,0.119384 0.336646,0.131008 0.416274,0.131008 0.117728,0 0.30183,-0.02653 0.406362,-0.121069 0.06138,-0.05641 0.102819,-0.134322 0.102819,-0.237141 z m -0.258732,0.0083 c 0,0.068 -0.04481,0.119385 -0.101191,0.147574 -0.04644,0.02491 -0.10119,0.03153 -0.149258,0.03153 -0.04807,0 -0.104476,-0.01 -0.150916,-0.03319 -0.05638,-0.02819 -0.09953,-0.08291 -0.09953,-0.142633 0,-0.07129 0.05472,-0.127723 0.119441,-0.155913 0.03981,-0.01819 0.08791,-0.02485 0.126011,-0.02485 0.03653,0 0.08959,0.0049 0.131064,0.02156 0.07466,0.03148 0.124383,0.09119 0.124383,0.155913 z M 4.071935,0.94065051 A 0.85871548,0.85871548 0 0 0 3.537035,1.1264945 0.85860317,0.85860317 0 0 0 3.002135,0.94065051 0.85879972,0.85879972 0 0 0 2.467263,1.1264945 0.85843471,0.85843471 0 0 0 1.932391,0.94065051 0.85879972,0.85879972 0 0 0 1.3975184,1.1264945 0.85874356,0.85874356 0 0 0 0.8626463,0.94065051 C 0.3861468,0.94065051 0,1.3267695 0,1.8032975 c 0,0.476471 0.3861187,0.862646 0.8626463,0.862646 a 0.85882779,0.85882779 0 0 0 0.5348721,-0.185844 0.85874356,0.85874356 0 0 0 0.5348726,0.185844 0.85849087,0.85849087 0 0 0 0.534872,-0.185844 0.85879972,0.85879972 0 0 0 0.534872,0.185844 0.85863125,0.85863125 0 0 0 0.5349,-0.185844 0.85863125,0.85863125 0 0 0 0.5349,0.185844 c 0.4765,0 0.862619,-0.386147 0.862619,-0.862646 0,-0.4765 -0.386119,-0.86264699 -0.862619,-0.86264699 z M 1.256374,2.3391795 c -0.1099226,0.08019 -0.2472485,0.129128 -0.3937277,0.129128 -0.3675877,0 -0.6650384,-0.297423 -0.6650384,-0.66501 0,-0.367588 0.2974507,-0.665039 0.6650384,-0.665039 0.1464792,0 0.2837209,0.04897 0.3937277,0.129184 A 0.85756432,0.85756432 0 0 0 1.0697724,1.8032975 0.86393786,0.86393786 0 0 0 1.256374,2.3391795 Z M 1.3975465,2.1984285 A 0.66102336,0.66102336 0 0 1 1.2674083,1.8032975 0.65990026,0.65990026 0 0 1 1.3975465,1.4081655 0.66015296,0.66015296 0 0 1 1.527685,1.8032975 0.66116374,0.66116374 0 0 1 1.3975465,2.1984285 Z M 2.326146,2.3391795 A 0.6622026,0.6622026 0 0 1 1.931941,2.4681105 0.66018104,0.66018104 0 0 1 1.538663,2.3391795 0.86368516,0.86368516 0 0 0 1.725265,1.8033255 0.85756432,0.85756432 0 0 0 1.538663,1.2674705 0.65995642,0.65995642 0 0 1 1.931941,1.1385115 c 0.147546,0 0.283862,0.04773 0.394205,0.128959 a 0.85756432,0.85756432 0 0 0 -0.186601,0.535855 0.86374132,0.86374132 0 0 0 0.186601,0.535854 z m 0.141117,-0.140751 a 0.66102336,0.66102336 0 0 1 -0.130138,-0.395131 0.66009681,0.66009681 0 0 1 0.130138,-0.395132 0.6599845,0.6599845 0 0 1 0.130166,0.395132 0.66099528,0.66099528 0 0 1 -0.130166,0.395131 z m 0.928628,0.140751 c -0.110344,0.08126 -0.246659,0.128931 -0.394177,0.128931 -0.147518,0 -0.282963,-0.04776 -0.393307,-0.128931 A 0.8635167,0.8635167 0 0 0 2.795009,1.8033255 0.85756432,0.85756432 0 0 0 2.608407,1.2674705 c 0.110344,-0.0812 0.245789,-0.128959 0.393307,-0.128959 0.147518,0 0.283833,0.04773 0.394177,0.128959 a 0.85776086,0.85776086 0 0 0 -0.186602,0.535855 0.86393786,0.86393786 0 0 0 0.186602,0.535854 z m 0.141172,-0.140751 a 0.66102336,0.66102336 0 0 1 -0.130138,-0.395131 0.6597318,0.6597318 0 0 1 0.130138,-0.395132 0.66015296,0.66015296 0 0 1 0.130138,0.395132 0.66133221,0.66133221 0 0 1 -0.130138,0.395131 z m 0.534872,0.269879 c -0.146535,0 -0.283833,-0.04894 -0.393727,-0.129128 A 0.86385362,0.86385362 0 0 0 3.864809,1.8033255 0.85776086,0.85776086 0 0 0 3.678208,1.2674705 c 0.110006,-0.08019 0.24722,-0.129184 0.393727,-0.129184 0.367532,0 0.665039,0.297451 0.665039,0.665039 0,0.367531 -0.297507,0.664982 -0.665039,0.664982 z"
     id="path1447"
     style="clip-rule:evenodd;fill-rule:evenodd;stroke-width:0.0280773" />
</svg>
