<?xml version="1.0" encoding="UTF-8" standalone="no"?>
<svg
   id="mb-stern_x5F_10"
   viewBox="0 0 1.6384 1.6384"
   width="64"
   height="64"
   version="1.1"
   sodipodi:docname="logoMercedesBenz.svg"
   inkscape:version="1.1.1 (3bf5ae0d25, 2021-09-20)"
   xmlns:inkscape="http://www.inkscape.org/namespaces/inkscape"
   xmlns:sodipodi="http://sodipodi.sourceforge.net/DTD/sodipodi-0.dtd"
   xmlns="http://www.w3.org/2000/svg"
   xmlns:svg="http://www.w3.org/2000/svg">
  <defs
     id="defs1276" />
  <sodipodi:namedview
     id="namedview1274"
     pagecolor="#ffffff"
     bordercolor="#666666"
     borderopacity="1.0"
     inkscape:pageshadow="2"
     inkscape:pageopacity="0.0"
     inkscape:pagecheckerboard="0"
     showgrid="false"
     fit-margin-top="0"
     fit-margin-left="0"
     fit-margin-right="0"
     fit-margin-bottom="0"
     inkscape:zoom="5.0685414"
     inkscape:cx="21.998439"
     inkscape:cy="51.790048"
     inkscape:window-width="1360"
     inkscape:window-height="745"
     inkscape:window-x="-8"
     inkscape:window-y="-8"
     inkscape:window-maximized="1"
     inkscape:current-layer="mb-stern_x5F_10" />
  <style
     id="style1041">.st0{fill:url(#outer_1_)}.st1{fill:url(#SVGID_1_)}.st2{opacity:.4;fill:url(#SVGID_2_);enable-background:new}.st3{fill:#fff}.st4{opacity:.4;fill:url(#SVGID_3_);enable-background:new}.st5{fill:#565f64}.st6{fill:url(#SVGID_4_)}.st7{fill:#a4aaae;fill-opacity:.6}.st8{fill:#333e46}.st9{fill:url(#SVGID_5_)}.st10{fill:url(#SVGID_6_);fill-opacity:.8}.st11{opacity:.8;fill:url(#SVGID_7_);enable-background:new}.st12{fill:url(#SVGID_8_)}.st13{fill:url(#SVGID_9_)}.st14{fill:url(#SVGID_10_)}.st15{fill:url(#SVGID_11_)}.st16{fill:url(#SVGID_12_)}.st17{fill:url(#SVGID_13_)}.st18{fill:url(#SVGID_14_)}.st19{fill:#fbfbfb}.st20{fill:#333f47}</style>
  <linearGradient
     id="outer_1_"
     gradientUnits="userSpaceOnUse"
     x1="7.9980001"
     y1="54.102001"
     x2="56.001999"
     y2="13.898"
     gradientTransform="matrix(1,0,0,-1,0,66)">
    <stop
       offset="0"
       stop-color="#fff"
       id="stop1043" />
    <stop
       offset=".1"
       stop-color="#e7e8e6"
       id="stop1045" />
    <stop
       offset=".1"
       stop-color="#cdd0d0"
       id="stop1047" />
    <stop
       offset=".2"
       stop-color="#b5bbbd"
       id="stop1049" />
    <stop
       offset=".2"
       stop-color="#a5acaf"
       id="stop1051" />
    <stop
       offset=".3"
       stop-color="#9ba3a7"
       id="stop1053" />
    <stop
       offset=".3"
       stop-color="#98a0a4"
       id="stop1055" />
    <stop
       offset=".4"
       stop-color="#828a8f"
       id="stop1057" />
    <stop
       offset=".5"
       stop-color="#667075"
       id="stop1059" />
    <stop
       offset=".6"
       stop-color="#535c63"
       id="stop1061" />
    <stop
       offset=".7"
       stop-color="#475158"
       id="stop1063" />
    <stop
       offset=".8"
       stop-color="#434d54"
       id="stop1065" />
    <stop
       offset="1"
       stop-color="#475157"
       id="stop1067" />
  </linearGradient>
  <linearGradient
     id="SVGID_1_"
     gradientUnits="userSpaceOnUse"
     x1="9.4709997"
     y1="52.941002"
     x2="54.471001"
     y2="15.141"
     gradientTransform="matrix(1,0,0,-1,0,66)">
    <stop
       offset="0"
       stop-color="#0b1f2a"
       id="stop1071" />
    <stop
       offset=".2"
       stop-color="#333f47"
       id="stop1073" />
    <stop
       offset=".5"
       stop-color="#777f84"
       id="stop1075" />
    <stop
       offset=".5"
       stop-color="#81898d"
       id="stop1077" />
    <stop
       offset=".7"
       stop-color="#b3b8b8"
       id="stop1079" />
    <stop
       offset=".8"
       stop-color="#d2d5d3"
       id="stop1081" />
    <stop
       offset=".8"
       stop-color="#dee0dd"
       id="stop1083" />
    <stop
       offset="1"
       stop-color="#fbfbfb"
       id="stop1085" />
  </linearGradient>
  <linearGradient
     id="SVGID_2_"
     gradientUnits="userSpaceOnUse"
     x1="1648.736"
     y1="-160.944"
     x2="1670.636"
     y2="-221.14301"
     gradientTransform="matrix(-1,0,0,1,1691.673,223.007)">
    <stop
       offset="0"
       stop-color="#e1e3e1"
       id="stop1090" />
    <stop
       offset=".1"
       stop-color="#c1c5c4"
       id="stop1092" />
    <stop
       offset=".3"
       stop-color="#9ba1a2"
       id="stop1094" />
    <stop
       offset=".5"
       stop-color="#7d8487"
       id="stop1096" />
    <stop
       offset=".7"
       stop-color="#687074"
       stop-opacity="0"
       id="stop1098" />
    <stop
       offset=".8"
       stop-color="#5b6469"
       stop-opacity="0"
       id="stop1100" />
    <stop
       offset="1"
       stop-color="#576065"
       stop-opacity="0"
       id="stop1102" />
  </linearGradient>
  <linearGradient
     id="SVGID_3_"
     gradientUnits="userSpaceOnUse"
     x1="18.201"
     y1="57.898998"
     x2="45.799"
     y2="10.101"
     gradientTransform="matrix(1,0,0,-1,0,66)">
    <stop
       offset="0"
       stop-color="#e1e3e1"
       id="stop1109" />
    <stop
       offset=".1"
       stop-color="#c1c5c4"
       id="stop1111" />
    <stop
       offset=".3"
       stop-color="#9ba1a2"
       id="stop1113" />
    <stop
       offset=".5"
       stop-color="#7d8487"
       id="stop1115" />
    <stop
       offset=".7"
       stop-color="#687074"
       stop-opacity="0"
       id="stop1117" />
    <stop
       offset=".8"
       stop-color="#5b6469"
       stop-opacity="0"
       id="stop1119" />
    <stop
       offset="1"
       stop-color="#576065"
       stop-opacity="0"
       id="stop1121" />
  </linearGradient>
  <linearGradient
     id="SVGID_4_"
     gradientUnits="userSpaceOnUse"
     x1="44.487999"
     y1="26.607"
     x2="42.787998"
     y2="23.806999"
     gradientTransform="matrix(1,0,0,-1,0,66)">
    <stop
       offset="0"
       stop-color="#27343c"
       id="stop1130" />
    <stop
       offset="1"
       stop-color="#00111e"
       stop-opacity="0"
       id="stop1132" />
  </linearGradient>
  <linearGradient
     id="SVGID_5_"
     gradientUnits="userSpaceOnUse"
     x1="39.580002"
     y1="36.888"
     x2="36.779999"
     y2="41.388"
     gradientTransform="matrix(1,0,0,-1,0,66)">
    <stop
       offset=".1"
       stop-color="#02131f"
       id="stop1147" />
    <stop
       offset=".9"
       stop-color="#02131f"
       stop-opacity="0"
       id="stop1149" />
  </linearGradient>
  <linearGradient
     id="SVGID_6_"
     gradientUnits="userSpaceOnUse"
     x1="31.982"
     y1="29.664"
     x2="27.782"
     y2="28.464001"
     gradientTransform="matrix(1,0,0,-1,0,66)">
    <stop
       offset=".2"
       stop-color="#02131f"
       id="stop1154" />
    <stop
       offset=".9"
       stop-color="#02131f"
       stop-opacity="0"
       id="stop1156" />
  </linearGradient>
  <linearGradient
     id="SVGID_7_"
     gradientUnits="userSpaceOnUse"
     x1="20.791"
     y1="24.096001"
     x2="20.191"
     y2="25.596001"
     gradientTransform="matrix(1,0,0,-1,0,66)">
    <stop
       offset="0"
       stop-color="#02131f"
       id="stop1161" />
    <stop
       offset=".1"
       stop-color="#02131f"
       id="stop1163" />
    <stop
       offset="1"
       stop-color="#02131f"
       stop-opacity="0"
       id="stop1165" />
  </linearGradient>
  <linearGradient
     id="SVGID_8_"
     gradientUnits="userSpaceOnUse"
     x1="35.602001"
     y1="48.785999"
     x2="32.202"
     y2="48.386002"
     gradientTransform="matrix(1,0,0,-1,0,66)">
    <stop
       offset=".3"
       stop-color="#02131f"
       id="stop1170" />
    <stop
       offset=".3"
       stop-color="#02131f"
       id="stop1172" />
    <stop
       offset=".8"
       stop-color="#02131f"
       stop-opacity="0"
       id="stop1174" />
  </linearGradient>
  <linearGradient
     id="SVGID_9_"
     gradientUnits="userSpaceOnUse"
     x1="35.708"
     y1="48.842999"
     x2="33.407001"
     y2="48.542999"
     gradientTransform="matrix(1,0,0,-1,0,66)">
    <stop
       offset=".4"
       stop-color="#27343c"
       id="stop1179" />
    <stop
       offset="1"
       stop-color="#3b474e"
       stop-opacity="0"
       id="stop1181" />
  </linearGradient>
  <linearGradient
     id="SVGID_10_"
     gradientUnits="userSpaceOnUse"
     x1="-0.36000001"
     y1="33.168999"
     x2="27.540001"
     y2="17.069"
     gradientTransform="matrix(1,0,0,-1,0,66)">
    <stop
       offset="0"
       stop-color="#24303a"
       stop-opacity="0"
       id="stop1186" />
    <stop
       offset="0"
       stop-color="#25323b"
       stop-opacity="0"
       id="stop1188" />
    <stop
       offset=".1"
       stop-color="#27343c"
       id="stop1190" />
  </linearGradient>
  <linearGradient
     id="SVGID_11_"
     gradientUnits="userSpaceOnUse"
     x1="31.950001"
     y1="28.6"
     x2="31.950001"
     y2="33.400002"
     gradientTransform="matrix(1,0,0,-1,0,66)">
    <stop
       offset=".3"
       stop-color="#a5abaf"
       id="stop1195" />
    <stop
       offset="1"
       stop-color="#a5abaf"
       stop-opacity="0"
       id="stop1197" />
  </linearGradient>
  <linearGradient
     id="SVGID_12_"
     gradientUnits="userSpaceOnUse"
     x1="47.650002"
     y1="63.700001"
     x2="47.650002"
     y2="2.7"
     gradientTransform="matrix(1,0,0,-1,0,66)">
    <stop
       offset="0"
       stop-color="#dee0dd"
       id="stop1202" />
    <stop
       offset="0"
       stop-color="#c5c9c7"
       id="stop1204" />
    <stop
       offset="0"
       stop-color="#9ea4a5"
       id="stop1206" />
    <stop
       offset="0"
       stop-color="#82898c"
       id="stop1208" />
    <stop
       offset="0"
       stop-color="#71797d"
       id="stop1210" />
    <stop
       offset="0"
       stop-color="#6b7378"
       id="stop1212" />
    <stop
       offset=".2"
       stop-color="#333f47"
       id="stop1214" />
    <stop
       offset=".5"
       stop-color="#27343c"
       id="stop1216" />
    <stop
       offset=".8"
       stop-color="#333f47"
       id="stop1218" />
    <stop
       offset="1"
       stop-color="#434d54"
       id="stop1220" />
  </linearGradient>
  <linearGradient
     id="SVGID_13_"
     gradientUnits="userSpaceOnUse"
     x1="32"
     y1="65.300003"
     x2="32.299999"
     y2="65.300003"
     gradientTransform="matrix(1,0,0,-1,0,66)">
    <stop
       offset="0"
       stop-color="#dee0dd"
       id="stop1225" />
    <stop
       offset="0"
       stop-color="#c5c9c7"
       id="stop1227" />
    <stop
       offset="0"
       stop-color="#9ea4a5"
       id="stop1229" />
    <stop
       offset="0"
       stop-color="#82898c"
       id="stop1231" />
    <stop
       offset="0"
       stop-color="#71797d"
       id="stop1233" />
    <stop
       offset="0"
       stop-color="#6b7378"
       id="stop1235" />
    <stop
       offset=".2"
       stop-color="#333f47"
       id="stop1237" />
    <stop
       offset=".5"
       stop-color="#27343c"
       id="stop1239" />
    <stop
       offset=".8"
       stop-color="#333f47"
       id="stop1241" />
    <stop
       offset="1"
       stop-color="#434d54"
       id="stop1243" />
  </linearGradient>
  <linearGradient
     id="SVGID_14_"
     gradientUnits="userSpaceOnUse"
     x1="57.289001"
     y1="57.907001"
     x2="43.789001"
     y2="38.106998"
     gradientTransform="matrix(1,0,0,-1,0,66)">
    <stop
       offset=".7"
       stop-color="#27343c"
       id="stop1248" />
    <stop
       offset=".7"
       stop-color="#2b373f"
       id="stop1250" />
    <stop
       offset=".7"
       stop-color="#36424a"
       id="stop1252" />
    <stop
       offset=".7"
       stop-color="#49545b"
       id="stop1254" />
    <stop
       offset=".8"
       stop-color="#646d73"
       stop-opacity="0"
       id="stop1256" />
    <stop
       offset=".8"
       stop-color="#868d92"
       stop-opacity="0"
       id="stop1258" />
    <stop
       offset=".8"
       stop-color="#b0b5b8"
       stop-opacity="0"
       id="stop1260" />
    <stop
       offset=".8"
       stop-color="#e1e3e4"
       stop-opacity="0"
       id="stop1262" />
    <stop
       offset=".8"
       stop-color="#fff"
       stop-opacity="0"
       id="stop1264" />
  </linearGradient>
  <g
     id="g1303"
     transform="scale(0.0256)">
    <path
       id="outer_24_"
       class="st0"
       d="M 63.3,32 C 63.3,49.3 49.3,63.3 32,63.3 14.7,63.3 0.7,49.3 0.7,32 0.7,14.7 14.7,0.7 32,0.7 49.3,0.7 63.3,14.7 63.3,32 Z M 32,2.6 C 15.7,2.6 2.6,15.7 2.6,32 2.6,48.3 15.8,61.4 32,61.4 48.3,61.4 61.4,48.2 61.4,32 61.4,15.7 48.3,2.6 32,2.6 Z"
       style="fill:url(#outer_1_)" />
    <path
       class="st1"
       d="M 32,2.6 C 15.7,2.6 2.6,15.7 2.6,32 2.6,48.3 15.8,61.4 32,61.4 48.3,61.4 61.4,48.2 61.4,32 61.4,15.7 48.3,2.6 32,2.6 Z m 0,56.9 C 16.8,59.5 4.5,47.2 4.5,32 4.5,16.8 16.8,4.5 32,4.5 47.2,4.5 59.5,16.8 59.5,32 59.5,47.2 47.2,59.5 32,59.5 Z"
       id="path1088"
       style="fill:url(#SVGID_1_)" />
    <path
       class="st2"
       d="M 32,63.3 C 49.3,63.3 63.3,49.3 63.3,32 63.3,14.7 49.3,0.7 32,0.7 14.7,0.7 0.7,14.7 0.7,32 0.7,49.3 14.7,63.3 32,63.3 Z M 32,0 C 49.6,0 64,14.4 64,32 64,49.6 49.6,64 32,64 14.4,64 0,49.6 0,32 0,14.4 14.4,0 32,0 Z"
       id="path1105"
       style="fill:url(#SVGID_2_)" />
    <path
       class="st3"
       d="M 2.2,32.1 C 2.2,15.7 15.5,2.2 32,2.2 48.5,2.2 61.8,15.6 61.8,32.1 61.8,48.5 48.5,61.8 32,61.8 15.5,61.8 2.2,48.5 2.2,32.1 Z m 9.3,-20.6 c -5.3,5.3 -8.6,12.6 -8.6,20.6 0,8 3.3,15.3 8.5,20.5 5.3,5.2 12.6,8.5 20.6,8.5 8,0 15.3,-3.2 20.5,-8.5 C 57.8,47.4 61,40.1 61,32.1 61,24.1 57.7,16.8 52.5,11.5 47.3,6.2 40,2.9 32,2.9 24,2.9 16.7,6.2 11.5,11.5 Z"
       id="path1107" />
    <path
       class="st4"
       d="M 32,59.6 C 24.6,59.6 17.7,56.7 12.5,51.5 7.3,46.3 4.4,39.4 4.4,32 4.4,24.6 7.3,17.7 12.5,12.5 17.7,7.3 24.6,4.4 32,4.4 c 7.4,0 14.3,2.9 19.5,8.1 5.2,5.2 8.1,12.1 8.1,19.5 0,7.4 -2.9,14.3 -8.1,19.5 -5.2,5.2 -12.1,8.1 -19.5,8.1 z m 0,-0.8 C 39.1,58.8 45.9,56 50.9,51 56,45.9 58.7,39.2 58.7,32.1 58.7,25 55.9,18.2 50.9,13.2 45.8,8.1 39.1,5.4 32,5.4 24.9,5.4 18.1,8.2 13.1,13.2 8,18.1 5.2,24.9 5.2,32 c 0,7.1 2.8,13.9 7.8,18.9 5.1,5.1 11.9,7.9 19,7.9 z"
       id="path1124"
       style="fill:url(#SVGID_3_)" />
    <path
       class="st3"
       d="M 56.3,45 C 55.8,44.6 36.5,29.3 36.5,29.3 L 32,3.6 C 31.7,3.7 31.3,4 31.1,4.4 L 27.9,29.4 8,44.7 c 0,0 -0.4,0.5 -0.6,0.8 C 7.3,45.7 7.3,46 7.3,46.3 L 31.9,36.2 56.5,46.3 c 0.2,-0.5 0,-1 -0.2,-1.3 z"
       id="path1126" />
    <path
       class="st5"
       d="m 32.2,32.8 -0.2,4.6 22.6,9.1 c 0.8,0.4 1.4,0.2 2,-0.2 L 32.5,32.7 c -0.1,-0.1 -0.3,0 -0.3,0.1 z"
       id="path1128" />
    <path
       class="st6"
       d="m 32.2,32.8 c 0,0 1.3,2.3 2.8,3.9 2.1,2.3 4.9,3.9 4.9,3.9 l 14.7,5.9 c 0.8,0.4 1.4,0.2 2,-0.2 L 32.5,32.7 c -0.1,-0.1 -0.3,0 -0.3,0.1 z"
       id="path1135"
       style="fill:url(#SVGID_4_)" />
    <path
       class="st7"
       d="m 56.5,45.4 c 0,-0.1 -0.1,-0.2 -0.2,-0.4 L 35.7,29.9 32.9,31.7 c 0,0 0.2,0.1 0.3,0 0.3,-0.1 0.9,-0.2 1.5,0 0.5,0.2 21.8,13.8 21.8,13.7 0,0.1 0,0.1 0,0 z"
       id="path1137" />
    <path
       class="st8"
       d="M 55.8,44.5 36.6,29.3 35.7,29.9 56.3,45.1 C 56.2,44.9 56,44.7 55.8,44.5 Z"
       id="path1139" />
    <path
       class="st5"
       d="m 32.5,31.3 -0.1,0.1 c 0,0 0,0.2 0.2,0.1 0.1,-0.1 3,-1.6 4,-2.2 L 33.1,5.3 C 33,4.4 32.6,4 31.9,3.7 l 0.4,27.8 z"
       id="path1141" />
    <path
       class="st7"
       d="m 30.8,5.3 v 1.3 l -2.2,22.1 c 0,0.3 0.1,0.6 0.4,0.8 l 1.3,1 0.9,-24.4 0.1,-1.9 C 31,4.4 30.9,4.8 30.8,5.3 Z m -1.2,25.6 -1.2,-1 -20.3,14.7 c 0,0 -0.6,0.4 -0.7,0.8 L 8.1,45 29.4,31.6 c 0.4,-0.2 0.5,-0.4 0.2,-0.7 z"
       id="path1143" />
    <path
       class="st5"
       d="m 31.7,32.8 c 0,-0.1 -0.1,-0.2 -0.2,-0.1 L 7.3,46.4 c 0.6,0.4 1.2,0.5 2,0.2 l 22.6,-9.1 z"
       id="path1145" />
    <path
       class="st9"
       d="m 32.4,31.4 0.1,-0.1 -0.1,0.1 c 0,0 0,0.1 0.1,0.1 h 0.1 c 0.1,-0.1 3,-1.6 4,-2.2 L 36.2,26.4 33.1,5.3 c 0,-0.4 -0.1,-0.7 -0.3,-0.9 0,0 1.5,20.2 1.5,22.4 0,2.9 -1.9,4.6 -1.9,4.6 z"
       id="path1152"
       style="fill:url(#SVGID_5_)" />
    <path
       class="st10"
       d="m 31.7,32.8 c 0,-0.1 -0.1,-0.2 -0.2,-0.1 L 7.3,46.4 c 0.6,0.4 1.2,0.5 2,0.2 l 22.6,-9.1 z"
       id="path1159"
       style="fill:url(#SVGID_6_)" />
    <path
       class="st11"
       d="M 9.3,46.5 31.9,37.4 31.7,33 c -0.4,1.2 -1.1,2.5 -3,3.5 -1.4,0.8 -14.8,7.4 -19.6,9.7 -0.3,0.2 -0.7,0.3 -0.9,0.4 0.4,0.2 0.7,0.1 1.1,-0.1 z"
       id="path1168"
       style="fill:url(#SVGID_7_)" />
    <path
       class="st12"
       d="m 32.5,31.3 -0.1,0.1 c 0,0 0,0.2 0.2,0.1 0.1,-0.1 3,-1.6 4,-2.2 L 33.1,5.3 C 33,4.4 32.6,4 31.9,3.7 l 0.4,27.8 z"
       id="path1177"
       style="fill:url(#SVGID_8_)" />
    <path
       class="st13"
       d="m 32.5,31.3 -0.1,0.1 c 0,0 0,0.2 0.2,0.1 0.1,-0.1 3,-1.6 4,-2.2 L 33.1,5.3 C 33,4.4 32.6,4 31.9,3.7 l 0.4,27.8 z"
       id="path1184"
       style="fill:url(#SVGID_9_)" />
    <path
       class="st14"
       d="M 5.1,44.4 C 4.4,42.8 0.4,35 4.8,20 H 3.1 c -0.9,3 -1.6,4.8 -2,7.5 0,0 -0.2,1 -0.3,2.1 -0.1,1.1 -0.1,1.7 -0.1,2.4 0,6 1.5,9.5 1.5,9.5 1.6,5 4.4,9.5 8.2,12.9 3.3,2.9 8.4,5.1 12.6,5.9 C 22.3,60.2 10.3,55.1 5.1,44.4 Z"
       id="path1193"
       style="fill:url(#SVGID_10_)" />
    <path
       class="st15"
       d="m 32.4,32.6 h -0.9 c 0.1,0 0.2,0 0.2,0.1 l 0.2,4.6 H 32 l 0.2,-4.6 c 0,-0.1 0.1,-0.2 0.2,-0.1 z"
       id="path1200"
       style="fill:url(#SVGID_11_)" />
    <path
       class="st16"
       d="m 42,2.3 c 10.5,4 20.4,15 20.4,28.9 C 62.4,48 49,61.7 32,61.7 v 1.6 C 49,63.3 63.3,49.3 63.3,32 63.3,18.2 54.5,6.6 42,2.3 Z"
       id="path1223"
       style="fill:url(#SVGID_12_)" />
    <path
       class="st17"
       d="M 32.3,0.7 H 32 Z"
       id="path1246"
       style="fill:url(#SVGID_13_)" />
    <path
       class="st18"
       d="M 58.8,20.2 C 51.8,4.1 36,3.2 35.1,3.1 H 35 c 12.1,2.2 19.8,10.1 22.5,18.4 v 0.1 c 1.2,3.2 1.8,6.6 1.9,10.3 0.1,3.5 -0.7,7.4 -2.2,11 C 57.1,43.4 57,44 56.9,44 h 1.6 c 4.8,-9 2.7,-18.1 0.3,-23.8 z"
       id="path1267"
       style="fill:url(#SVGID_14_)" />
    <path
       class="st19"
       d="M 2.2,32.1 C 2.2,15.7 15.5,2.2 32,2.2 48.5,2.2 61.8,15.6 61.8,32.1 61.8,48.5 48.5,61.8 32,61.8 15.5,61.8 2.2,48.5 2.2,32.1 Z m 9.3,-20.6 c -5.3,5.3 -8.6,12.6 -8.6,20.6 0,8 3.3,15.3 8.5,20.5 5.3,5.2 12.6,8.5 20.6,8.5 8,0 15.3,-3.2 20.5,-8.5 C 57.8,47.4 61,40.1 61,32.1 61,24.1 57.7,16.8 52.5,11.5 47.3,6.2 40,2.9 32,2.9 24,2.9 16.7,6.2 11.5,11.5 Z"
       id="path1269" />
    <path
       class="st20"
       d="M 7.9,44.8 28.3,30.1 c 1.1,0.6 2.9,1.4 3.1,1.4 0.2,0.1 0.2,-0.1 0.2,-0.1 L 29.1,29.3 C 28.8,29.1 28.7,28.8 28.7,28.5 L 31.1,4.4 C 31,4.5 31,4.7 30.9,4.8 30.8,5 30.8,5.1 30.8,5.3 L 27.3,29.4 8.1,44.5 C 8,44.6 7.9,44.7 7.9,44.8 Z"
       id="path1271" />
  </g>
</svg>
