<?xml version="1.0" encoding="UTF-8" standalone="no"?>
<svg
   enable-background="new 0 0 190 60"
   height="52"
   viewBox="-71.865699 -162.68217 8.5688807 7.5354702"
   width="51.995934"
   version="1.1"
   id="svg6873"
   sodipodi:docname="logoRenault.svg"
   inkscape:version="1.1.1 (3bf5ae0d25, 2021-09-20)"
   xmlns:inkscape="http://www.inkscape.org/namespaces/inkscape"
   xmlns:sodipodi="http://sodipodi.sourceforge.net/DTD/sodipodi-0.dtd"
   xmlns:xlink="http://www.w3.org/1999/xlink"
   xmlns="http://www.w3.org/2000/svg"
   xmlns:svg="http://www.w3.org/2000/svg">
  <defs
     id="defs6877" />
  <sodipodi:namedview
     id="namedview6875"
     pagecolor="#ffffff"
     bordercolor="#666666"
     borderopacity="1.0"
     inkscape:pageshadow="2"
     inkscape:pageopacity="0.0"
     inkscape:pagecheckerboard="true"
     showgrid="false"
     height="52px"
     fit-margin-top="0"
     fit-margin-left="5.201"
     fit-margin-right="5.201"
     fit-margin-bottom="0"
     inkscape:zoom="3.584"
     inkscape:cx="17.717634"
     inkscape:cy="44.503348"
     inkscape:window-width="1366"
     inkscape:window-height="745"
     inkscape:window-x="-8"
     inkscape:window-y="-8"
     inkscape:window-maximized="1"
     inkscape:current-layer="svg6873" />
  <filter
     id="a"
     filterUnits="userSpaceOnUse"
     height="57.723"
     width="45.724998"
     x="1.1339999"
     y="1.138">
    <feColorMatrix
       color-interpolation-filters="sRGB"
       result="source"
       values="-1 0 0 0 1 0 -1 0 0 1 0 0 -1 0 1 0 0 0 1 0"
       id="feColorMatrix6594" />
    <feFlood
       flood-color="#fff"
       result="back"
       id="feFlood6596" />
    <feBlend
       in="source"
       in2="back"
       id="feBlend6598"
       mode="normal" />
  </filter>
  <linearGradient
     id="b"
     gradientUnits="userSpaceOnUse"
     x1="23.996"
     x2="23.996"
     y1="58.861"
     y2="1.138">
    <stop
       offset="0"
       stop-color="#e5e5e5"
       id="stop6601" />
    <stop
       offset=".687"
       stop-color="#fff"
       id="stop6603" />
    <stop
       offset="1"
       stop-color="#919191"
       id="stop6605" />
  </linearGradient>
  <mask
     id="c"
     height="57.723"
     maskUnits="userSpaceOnUse"
     width="45.725"
     x="1.134"
     y="1.138">
    <path
       d="M -6.092,30.443 H 52.635 V 62.978 H -6.092 Z"
       fill="url(#d)"
       filter="url(#a)"
       id="path6608" />
  </mask>
  <linearGradient
     id="d"
     gradientUnits="userSpaceOnUse"
     x1="23.271"
     x2="23.271"
     y1="62.979"
     y2="30.443001">
    <stop
       offset=".855"
       stop-color="#fff"
       id="stop6611" />
    <stop
       offset="1"
       id="stop6613" />
  </linearGradient>
  <radialGradient
     id="e"
     cx="21.909"
     cy="16.025"
     gradientTransform="matrix(0.9963,0,0,1,-0.815,0)"
     gradientUnits="userSpaceOnUse"
     r="28.889">
    <stop
       offset=".401"
       stop-color="#fff"
       id="stop6616" />
    <stop
       offset="1"
       stop-color="#919191"
       id="stop6618" />
  </radialGradient>
  <linearGradient
     id="f">
    <stop
       offset=".01"
       stop-color="#e5e5e5"
       id="stop6621" />
    <stop
       offset=".339"
       stop-color="#a6a6a6"
       id="stop6623" />
    <stop
       offset=".694"
       stop-color="#333"
       id="stop6625" />
    <stop
       offset=".845"
       stop-color="#1a1a1a"
       id="stop6627" />
    <stop
       offset=".948"
       stop-color="#111"
       id="stop6629" />
    <stop
       offset=".962"
       stop-color="#141414"
       id="stop6631" />
    <stop
       offset=".973"
       stop-color="#1d1d1d"
       id="stop6633" />
    <stop
       offset=".982"
       stop-color="#2d2d2d"
       id="stop6635" />
    <stop
       offset=".991"
       stop-color="#444"
       id="stop6637" />
    <stop
       offset=".999"
       stop-color="#616161"
       id="stop6639" />
    <stop
       offset="1"
       stop-color="#666"
       id="stop6641" />
  </linearGradient>
  <linearGradient
     id="g"
     gradientUnits="userSpaceOnUse"
     x1="12.583"
     x2="12.583"
     xlink:href="#f"
     y1="58.577999"
     y2="30.143" />
  <linearGradient
     id="h"
     gradientUnits="userSpaceOnUse"
     x1="17.627001"
     x2="17.627001"
     xlink:href="#f"
     y1="58.657001"
     y2="58.657001" />
  <linearGradient
     id="i"
     gradientUnits="userSpaceOnUse"
     x1="32.181999"
     x2="32.181999"
     y1="58.577"
     y2="30.117001">
    <stop
       offset=".01"
       stop-color="#e5e5e5"
       id="stop6646" />
    <stop
       offset=".339"
       stop-color="#a6a6a6"
       id="stop6648" />
    <stop
       offset=".694"
       stop-color="#333"
       id="stop6650" />
    <stop
       offset=".845"
       stop-color="#1a1a1a"
       id="stop6652" />
    <stop
       offset=".954"
       stop-color="#111"
       id="stop6654" />
    <stop
       offset=".967"
       stop-color="#141414"
       id="stop6656" />
    <stop
       offset=".976"
       stop-color="#1d1d1d"
       id="stop6658" />
    <stop
       offset=".984"
       stop-color="#2d2d2d"
       id="stop6660" />
    <stop
       offset=".992"
       stop-color="#444"
       id="stop6662" />
    <stop
       offset=".999"
       stop-color="#616161"
       id="stop6664" />
    <stop
       offset="1"
       stop-color="#666"
       id="stop6666" />
  </linearGradient>
  <linearGradient
     id="j"
     gradientUnits="userSpaceOnUse"
     x1="22.756001"
     x2="22.756001"
     y1="29.809999"
     y2="1.164">
    <stop
       offset="0"
       stop-color="#333"
       id="stop6669" />
    <stop
       offset=".009"
       stop-color="#292929"
       id="stop6671" />
    <stop
       offset=".024"
       stop-color="#1e1e1e"
       id="stop6673" />
    <stop
       offset=".04"
       stop-color="#1a1a1a"
       id="stop6675" />
    <stop
       offset=".122"
       stop-color="#151515"
       id="stop6677" />
    <stop
       offset=".226"
       stop-color="#050505"
       id="stop6679" />
    <stop
       offset=".252"
       id="stop6681" />
  </linearGradient>
  <linearGradient
     id="k"
     gradientUnits="userSpaceOnUse"
     x1="28.403"
     x2="28.403"
     y1="30.007999"
     y2="13.426">
    <stop
       offset="0"
       stop-color="#737373"
       id="stop6684" />
    <stop
       offset=".148"
       stop-color="#6e6e6e"
       id="stop6686" />
    <stop
       offset=".332"
       stop-color="#5e5e5e"
       id="stop6688" />
    <stop
       offset=".535"
       stop-color="#454545"
       id="stop6690" />
    <stop
       offset=".749"
       stop-color="#222"
       id="stop6692" />
    <stop
       offset=".795"
       stop-color="#1a1a1a"
       id="stop6694" />
    <stop
       offset=".921"
       id="stop6696" />
  </linearGradient>
  <linearGradient
     id="l"
     gradientUnits="userSpaceOnUse"
     x1="19.580999"
     x2="19.580999"
     y1="46.609001"
     y2="30.018">
    <stop
       offset=".357"
       stop-color="#bfbfbf"
       id="stop6699" />
    <stop
       offset=".474"
       stop-color="#bababa"
       id="stop6701" />
    <stop
       offset=".61"
       stop-color="#acacac"
       id="stop6703" />
    <stop
       offset=".754"
       stop-color="#959595"
       id="stop6705" />
    <stop
       offset=".903"
       stop-color="#757575"
       id="stop6707" />
    <stop
       offset=".963"
       stop-color="#666"
       id="stop6709" />
    <stop
       offset="1"
       stop-color="#333"
       id="stop6711" />
  </linearGradient>
  <linearGradient
     id="m"
     gradientUnits="userSpaceOnUse"
     x1="26.096001"
     x2="11.004"
     y1="40.984001"
     y2="34.175999">
    <stop
       offset=".013"
       stop-color="#f2f2f2"
       stop-opacity=".8"
       id="stop6714" />
    <stop
       offset=".11"
       stop-color="#ededed"
       stop-opacity="0"
       id="stop6716" />
  </linearGradient>
  <linearGradient
     id="n"
     gradientUnits="userSpaceOnUse"
     x1="25.219"
     x2="25.219"
     y1="58.476002"
     y2="29.825001">
    <stop
       offset="0"
       stop-color="#fff"
       id="stop6719" />
    <stop
       offset=".216"
       stop-color="#f9f9f9"
       id="stop6721" />
    <stop
       offset=".512"
       stop-color="#e7e7e7"
       id="stop6723" />
    <stop
       offset=".851"
       stop-color="#cbcbcb"
       id="stop6725" />
    <stop
       offset=".969"
       stop-color="#bfbfbf"
       id="stop6727" />
    <stop
       offset=".991"
       stop-color="#737373"
       id="stop6729" />
  </linearGradient>
  <linearGradient
     id="o"
     gradientUnits="userSpaceOnUse"
     x1="8.4370003"
     x2="8.4370003"
     y1="59.609001"
     y2="30">
    <stop
       offset="0"
       stop-color="#666"
       id="stop6732" />
    <stop
       offset=".185"
       stop-color="#5e5e5e"
       id="stop6734" />
    <stop
       offset=".584"
       stop-color="#515151"
       id="stop6736" />
    <stop
       offset=".97"
       stop-color="#4d4d4d"
       id="stop6738" />
    <stop
       offset=".988"
       stop-color="#757575"
       id="stop6740" />
    <stop
       offset="1"
       stop-color="#8c8c8c"
       id="stop6742" />
  </linearGradient>
  <linearGradient
     id="p"
     gradientUnits="userSpaceOnUse"
     x1="18.312"
     x2="29.714001"
     y1="56.028"
     y2="62.611">
    <stop
       offset=".019"
       stop-color="#666"
       id="stop6745" />
    <stop
       offset=".041"
       stop-color="#4a4a4a"
       id="stop6747" />
    <stop
       offset=".063"
       stop-color="#363636"
       id="stop6749" />
    <stop
       offset=".084"
       stop-color="#292929"
       id="stop6751" />
    <stop
       offset=".105"
       stop-color="#252525"
       id="stop6753" />
  </linearGradient>
  <linearGradient
     id="q"
     gradientUnits="userSpaceOnUse"
     x1="26.941999"
     x2="52.216"
     y1="8.4370003"
     y2="22.274">
    <stop
       offset="0"
       stop-color="#595959"
       id="stop6756" />
    <stop
       offset="1"
       stop-color="#737373"
       id="stop6758" />
  </linearGradient>
  <linearGradient
     id="r"
     gradientUnits="userSpaceOnUse"
     x1="30.712999"
     x2="17.023001"
     y1="2.6900001"
     y2="-1.235">
    <stop
       offset=".01"
       stop-color="#595959"
       id="stop6761" />
    <stop
       offset=".025"
       stop-color="#757575"
       id="stop6763" />
    <stop
       offset=".044"
       stop-color="#909090"
       id="stop6765" />
    <stop
       offset=".061"
       stop-color="#a0a0a0"
       id="stop6767" />
    <stop
       offset=".074"
       stop-color="#a6a6a6"
       id="stop6769" />
    <stop
       offset=".501"
       stop-color="#bebebe"
       id="stop6771" />
    <stop
       offset="1"
       stop-color="#bfbfbf"
       id="stop6773" />
  </linearGradient>
  <linearGradient
     id="s"
     gradientUnits="userSpaceOnUse"
     x1="-3.825"
     x2="20.589001"
     y1="20.018999"
     y2="10.648">
    <stop
       offset="0"
       stop-color="#8c8c8c"
       id="stop6776" />
    <stop
       offset=".987"
       stop-color="#737373"
       id="stop6778" />
    <stop
       offset="1"
       stop-color="#bfbfbf"
       id="stop6780" />
  </linearGradient>
  <linearGradient
     id="t"
     gradientUnits="userSpaceOnUse"
     x1="39.466999"
     x2="39.466999"
     y1="59.700001"
     y2="29.927999">
    <stop
       offset=".019"
       stop-color="#252525"
       id="stop6783" />
    <stop
       offset=".216"
       stop-color="#2e2e2e"
       id="stop6785" />
    <stop
       offset=".599"
       stop-color="#3b3b3b"
       id="stop6787" />
    <stop
       offset=".97"
       stop-color="#3f3f3f"
       id="stop6789" />
    <stop
       offset=".986"
       stop-color="#5c5c5c"
       id="stop6791" />
    <stop
       offset="1"
       stop-color="#737373"
       id="stop6793" />
  </linearGradient>
  <mask
     id="u"
     height="33.122"
     maskUnits="userSpaceOnUse"
     width="33.122"
     x="16.181"
     y="13.694">
    <circle
       cx="32.792999"
       cy="30.254999"
       fill="url(#v)"
       r="4.9380002"
       id="circle6796" />
  </mask>
  <radialGradient
     id="v"
     cx="32.792999"
     cy="30.254999"
     gradientUnits="userSpaceOnUse"
     r="4.9380002">
    <stop
       offset=".166"
       stop-color="#fff"
       id="stop6799" />
    <stop
       offset=".188"
       stop-color="#ebebeb"
       id="stop6801" />
    <stop
       offset=".246"
       stop-color="#bababa"
       id="stop6803" />
    <stop
       offset=".308"
       stop-color="#8e8e8e"
       id="stop6805" />
    <stop
       offset=".374"
       stop-color="#686868"
       id="stop6807" />
    <stop
       offset=".444"
       stop-color="#474747"
       id="stop6809" />
    <stop
       offset=".519"
       stop-color="#2d2d2d"
       id="stop6811" />
    <stop
       offset=".602"
       stop-color="#191919"
       id="stop6813" />
    <stop
       offset=".695"
       stop-color="#0b0b0b"
       id="stop6815" />
    <stop
       offset=".809"
       stop-color="#030303"
       id="stop6817" />
    <stop
       offset="1"
       id="stop6819" />
  </radialGradient>
  <radialGradient
     id="w"
     cx="32.742001"
     cy="30.254999"
     gradientUnits="userSpaceOnUse"
     r="16.561001">
    <stop
       offset="0"
       stop-color="#fff"
       id="stop6822" />
    <stop
       offset=".59"
       stop-color="#fff"
       stop-opacity="0"
       id="stop6824" />
  </radialGradient>
  <g
     id="g7139"
     transform="matrix(0.14282585,0,0,0.14282585,-71.008579,-163.19921)">
    <path
       d="M 46.548,28.873 C 45.526,26.711 43.128,22.031 40.698,17.614 37.273,11.388 31.912,2.522 31.36,1.762 31.211,1.558 31.09,1.42 30.967,1.33 A 0.685,0.685 0 0 0 30.757,1.223 C 30.62,1.181 30.316,1.206 30.092,1.23 29.972,1.243 29.821,1.24 29.705,1.235 A 159.033,159.033 0 0 0 23.996,1.139 c -2.784,0 -6.138,0.085 -6.573,0.128 a 0.975,0.975 0 0 0 -0.396,0.106 c -0.111,0.062 -0.224,0.123 -0.404,0.39 -0.523,0.779 -5.904,9.626 -9.329,15.852 -2.43,4.416 -4.827,9.097 -5.85,11.259 -0.271,0.573 -0.311,0.951 -0.311,1.127 0,0.311 0.105,0.689 0.311,1.126 1.022,2.162 3.42,6.842 5.85,11.259 3.425,6.226 8.786,15.092 9.338,15.852 0.086,0.118 0.162,0.214 0.235,0.291 a 0.832,0.832 0 0 0 0.368,0.249 c 0.137,0.042 0.407,0.017 0.63,-0.007 a 2.95,2.95 0 0 1 0.387,-0.005 c 1.38,0.047 3.499,0.097 5.743,0.096 2.784,-0.001 6.036,-0.073 6.526,-0.129 l 0.078,-0.009 c 0.186,-0.021 0.292,-0.049 0.348,-0.077 0.112,-0.047 0.207,-0.137 0.436,-0.453 0.552,-0.759 5.888,-9.582 9.313,-15.808 2.43,-4.416 4.827,-9.097 5.85,-11.259 0.271,-0.573 0.311,-1.022 0.311,-1.198 0.002,-0.312 -0.103,-0.619 -0.309,-1.056 z m -15.81,2.295 c -2.292,5.139 -3.92,8.343 -6.334,12.984 -0.139,0.268 -0.253,0.442 -0.411,0.445 -0.16,0 -0.27,-0.176 -0.41,-0.446 -2.414,-4.641 -4.042,-7.845 -6.334,-12.984 -0.196,-0.439 -0.334,-0.764 -0.334,-1.177 0.006,-0.401 0.144,-0.729 0.336,-1.16 2.292,-5.139 3.92,-8.343 6.334,-12.984 0.139,-0.268 0.25,-0.442 0.408,-0.445 h 0.001 -0.001 0.004 c 0.16,0 0.272,0.175 0.412,0.445 2.414,4.641 4.042,7.845 6.334,12.984 0.196,0.439 0.33,0.763 0.33,1.176 0.001,0.416 -0.143,0.732 -0.335,1.162 z"
       fill="url(#b)"
       id="path6833"
       style="fill:url(#b)" />
    <path
       d="M 46.548,28.873 C 45.526,26.711 43.128,22.031 40.698,17.614 37.273,11.388 31.912,2.522 31.36,1.762 31.211,1.558 31.09,1.42 30.967,1.33 A 0.685,0.685 0 0 0 30.757,1.223 C 30.62,1.181 30.316,1.206 30.092,1.23 29.972,1.243 29.821,1.24 29.705,1.235 A 159.033,159.033 0 0 0 23.996,1.139 c -2.784,0 -6.138,0.085 -6.573,0.128 a 0.975,0.975 0 0 0 -0.396,0.106 c -0.111,0.062 -0.224,0.123 -0.404,0.39 -0.523,0.779 -5.904,9.626 -9.329,15.852 -2.43,4.416 -4.827,9.097 -5.85,11.259 -0.271,0.573 -0.311,0.951 -0.311,1.127 0,0.311 0.105,0.689 0.311,1.126 1.022,2.162 3.42,6.842 5.85,11.259 3.425,6.226 8.786,15.092 9.338,15.852 0.086,0.118 0.162,0.214 0.235,0.291 a 0.832,0.832 0 0 0 0.368,0.249 c 0.137,0.042 0.407,0.017 0.63,-0.007 a 2.95,2.95 0 0 1 0.387,-0.005 c 1.38,0.047 3.499,0.097 5.743,0.096 2.784,-0.001 6.036,-0.073 6.526,-0.129 l 0.078,-0.009 c 0.186,-0.021 0.292,-0.049 0.348,-0.077 0.112,-0.047 0.207,-0.137 0.436,-0.453 0.552,-0.759 5.888,-9.582 9.313,-15.808 2.43,-4.416 4.827,-9.097 5.85,-11.259 0.271,-0.573 0.311,-1.022 0.311,-1.198 0.002,-0.312 -0.103,-0.619 -0.309,-1.056 z m -15.81,2.295 c -2.292,5.139 -3.92,8.343 -6.334,12.984 -0.139,0.268 -0.253,0.442 -0.411,0.445 -0.16,0 -0.27,-0.176 -0.41,-0.446 -2.414,-4.641 -4.042,-7.845 -6.334,-12.984 -0.196,-0.439 -0.334,-0.764 -0.334,-1.177 0.006,-0.401 0.144,-0.729 0.336,-1.16 2.292,-5.139 3.92,-8.343 6.334,-12.984 0.139,-0.268 0.25,-0.442 0.408,-0.445 h 0.001 -0.001 0.004 c 0.16,0 0.272,0.175 0.412,0.445 2.414,4.641 4.042,7.845 6.334,12.984 0.196,0.439 0.33,0.763 0.33,1.176 0.001,0.416 -0.143,0.732 -0.335,1.162 z"
       fill="url(#e)"
       mask="url(#c)"
       id="path6835"
       style="fill:url(#e)" />
    <path
       d="m 15.499,31.87 c 0,0 -0.674,-1.26 -0.7,-1.756 -0.003,-0.066 -0.006,-0.088 0,-0.152 0.011,-0.127 -0.038,-0.081 -0.149,0.023 -0.198,0.185 -0.544,0.369 -1.392,0.369 -0.751,0 -7.145,-0.008 -10.192,-0.008 -0.446,0 -1.046,-0.034 -1.046,0.673 0,0.416 0.36,1.253 1.1,2.7 4.043,7.908 8.534,15.807 13.349,23.527 0,0 0.735,1.184 0.81,1.278 0.076,0.094 0.165,0.135 0.345,0.133 0,0 3.053,-5.592 5.52,-11.689 A 297.854,297.854 0 0 1 15.499,31.87 Z"
       fill="url(#g)"
       id="path6837"
       style="fill:url(#g)" />
    <path
       d="m 17.625,58.657 h 0.003 z"
       fill="url(#h)"
       id="path6839"
       style="fill:url(#h)" />
    <path
       d="m 46.293,30.072 c -0.11,0.113 -0.418,0.278 -1.107,0.278 h -8.395 c -3.849,0 -3.459,-0.103 -4.459,1.933 -0.445,0.906 -0.905,1.972 -1.373,2.847 -3.361,7.027 -11.562,21.18 -12.67,22.934 -0.417,0.66 -0.478,0.695 -0.174,0.695 0,0 2.783,0.102 5.881,0.102 4.837,0 6.568,-0.134 6.568,-0.134 2.806,-4.365 9.496,-15.436 14.273,-25.025 1.1,-2.208 1.652,-3.17 1.597,-3.642 -0.01,-0.09 -0.094,-0.036 -0.141,0.012 z"
       fill="url(#i)"
       id="path6841"
       style="fill:url(#i)" />
    <path
       d="m 30.342,1.346 c -0.208,-0.01 -0.356,0.148 -0.64,0.588 -2.374,3.676 -10.568,19.114 -13.915,26.314 -0.41,0.882 -0.618,1.312 -0.618,1.74 l 1.746,0.003 c 0,-0.003 -10e-4,0.003 0,0 0.006,-0.401 0.144,-0.729 0.336,-1.16 2.292,-5.139 3.92,-8.343 6.334,-12.984 0.139,-0.268 0.25,-0.442 0.408,-0.445 h 0.001 l 0.678,-1.974 c 2.362,-5.89 5.67,-12.082 5.67,-12.082 z"
       fill="url(#j)"
       id="path6843"
       style="fill:url(#j)" />
    <path
       d="m 32.813,30.007 c 0,-0.427 -0.199,-0.847 -0.609,-1.719 A 287.83,287.83 0 0 0 24.673,13.426 l -0.679,1.975 h -0.001 0.004 c 0.16,0 0.272,0.175 0.412,0.445 2.414,4.641 4.042,7.845 6.334,12.984 0.196,0.439 0.33,0.763 0.33,1.176 h 1.74 z"
       fill="url(#k)"
       id="path6845"
       style="fill:url(#k)" />
    <path
       d="m 23.993,44.598 c 0,0 0.001,0 0,0 -0.16,0 -0.27,-0.176 -0.41,-0.446 -2.414,-4.641 -4.042,-7.845 -6.334,-12.984 -0.196,-0.439 -0.334,-0.764 -0.334,-1.177 v 0.001 l -1.746,-0.004 c -0.002,0.43 0.197,0.863 0.61,1.74 a 287.315,287.315 0 0 0 7.523,14.851 z"
       fill="url(#l)"
       id="path6847"
       style="fill:url(#l)" />
    <path
       d="m 23.993,44.598 c 0,0 0.001,0 0,0 -0.16,0 -0.27,-0.176 -0.41,-0.446 -2.414,-4.641 -4.042,-7.845 -6.334,-12.984 -0.196,-0.439 -0.334,-0.764 -0.334,-1.177 v -0.003 l -1.746,-0.003 c -0.002,0.432 0.197,0.866 0.61,1.743 a 287.315,287.315 0 0 0 7.523,14.851 z"
       fill="url(#m)"
       id="path6849"
       style="fill:url(#m)" />
    <path
       d="m 17.625,58.657 c 0.192,0.009 0.422,-0.225 0.688,-0.63 0.07,-0.112 0.164,-0.266 0.28,-0.457 1.788,-3.046 10.409,-18.957 13.596,-25.814 0.41,-0.882 0.624,-1.322 0.624,-1.749 h -1.739 c 0,-0.001 0,-0.001 0,0 0,0.415 -0.143,0.731 -0.335,1.162 -2.292,5.139 -3.92,8.343 -6.334,12.984 -0.139,0.268 -0.253,0.442 -0.411,0.445 l -0.691,1.98 c -2.493,6.247 -5.678,12.079 -5.678,12.079 z"
       fill="url(#n)"
       id="path6851"
       style="fill:url(#n)" />
    <path
       d="M 16.868,58.528 A 3.09,3.09 0 0 1 16.633,58.237 C 16.081,57.478 10.72,48.611 7.295,42.385 4.865,37.968 2.468,33.288 1.445,31.126 1.239,30.689 1.134,30.311 1.134,30 H 0.006 c 0,0.383 0.083,0.88 0.42,1.612 0.796,1.726 3.024,6.124 5.881,11.321 3.119,5.673 8.782,15.108 9.414,15.972 0.26,0.355 0.482,0.57 0.694,0.704 z"
       fill="url(#o)"
       id="path6853"
       style="fill:url(#o)" />
    <path
       d="m 16.416,59.609 c 0.304,0.193 0.586,0.218 0.926,0.249 0.843,0.075 4.532,0.136 6.654,0.136 2.122,0 6.106,-0.086 6.654,-0.136 0.26,-0.024 0.499,-0.048 0.745,-0.157 l -0.446,-1.053 a 1.168,1.168 0 0 1 -0.348,0.077 l -0.078,0.009 c -0.49,0.056 -3.742,0.128 -6.526,0.129 -2.244,10e-4 -4.363,-0.049 -5.743,-0.096 a 2.95,2.95 0 0 0 -0.387,0.005 c -0.224,0.024 -0.493,0.049 -0.63,0.007 A 0.837,0.837 0 0 1 16.869,58.53 Z"
       fill="url(#p)"
       id="path6855"
       style="fill:url(#p)" />
    <path
       d="m 47.986,29.999 c 0,-0.312 -0.068,-0.878 -0.42,-1.612 C 46.713,26.609 43.986,21.239 41.685,17.066 38.606,11.486 32.93,1.98 32.271,1.095 31.924,0.629 31.663,0.41 31.4,0.296 L 30.967,1.33 c 0.124,0.09 0.244,0.228 0.393,0.432 0.552,0.759 5.913,9.626 9.338,15.852 2.43,4.417 4.827,9.097 5.85,11.259 0.206,0.437 0.311,0.744 0.311,1.055 z"
       fill="url(#q)"
       id="path6857"
       style="fill:url(#q)" />
    <path
       d="m 16.582,0.301 0.446,1.071 c 0.085,-0.041 0.17,-0.083 0.396,-0.106 0.434,-0.044 3.789,-0.128 6.573,-0.128 2.266,0 4.565,0.048 5.709,0.096 0.116,0.005 0.267,0.008 0.387,-0.005 0.224,-0.024 0.528,-0.049 0.665,-0.007 a 0.708,0.708 0 0 1 0.21,0.107 L 31.401,0.295 C 31.149,0.181 30.906,0.167 30.622,0.141 29.745,0.061 25.973,0.005 23.998,0.005 c -1.739,0 -5.777,0.045 -6.723,0.14 -0.293,0.03 -0.511,0.079 -0.693,0.156 z"
       fill="url(#r)"
       id="path6859"
       style="fill:url(#r)" />
    <path
       d="M 16.582,0.301 C 16.226,0.452 16.013,0.711 15.684,1.14 15.032,1.991 9.359,11.564 6.308,17.066 4.16,20.94 0.748,27.652 0.425,28.388 0.102,29.124 0.006,29.616 0.006,30 l 1.128,0.001 c 0,-0.176 0.04,-0.555 0.311,-1.127 1.022,-2.162 3.42,-6.843 5.85,-11.259 3.425,-6.226 8.807,-15.073 9.329,-15.852 0.18,-0.268 0.293,-0.328 0.404,-0.39 z"
       fill="url(#s)"
       id="path6861"
       style="fill:url(#s)" />
    <path
       d="m 31.395,59.7 c 0.274,-0.121 0.553,-0.348 0.876,-0.796 0.612,-0.849 6.714,-11.037 9.414,-15.972 2.7,-4.934 5.568,-10.62 5.881,-11.321 0.39,-0.873 0.42,-1.3 0.42,-1.612 l -1.128,-0.071 c 0,0.176 -0.04,0.626 -0.311,1.198 -1.022,2.162 -3.42,6.843 -5.85,11.259 -3.425,6.226 -8.761,15.049 -9.313,15.808 -0.23,0.316 -0.324,0.407 -0.436,0.453 -0.001,0 0.002,-0.002 0,0 z"
       fill="url(#t)"
       id="path6863"
       style="fill:url(#t)" />
    <path
       d="M 30.092,1.23 30.154,1.224 C 30.153,1.225 29.868,1.442 29.137,1.439 28.269,1.435 26.468,1.399 25.027,1.39 22.365,1.373 19.194,1.422 17.712,1.493 16.926,1.531 16.879,1.616 16.377,2.151 L 16.376,2.15 16.624,1.762 c 0.18,-0.268 0.293,-0.328 0.404,-0.39 0.085,-0.041 0.17,-0.083 0.396,-0.106 0.434,-0.044 3.789,-0.128 6.573,-0.128 2.266,0 4.565,0.048 5.709,0.096 0.115,0.005 0.266,0.008 0.386,-0.004"
       fill="#ffffff"
       id="path6865" />
    <circle
       cx="32.742001"
       cy="30.254999"
       fill="url(#w)"
       mask="url(#u)"
       r="16.561001"
       id="circle6867"
       style="fill:url(#w)" />
    <path
       d="m 30.744,28.831 a 205.9,205.9 0 0 0 -2.857,-6.135 284.835,284.835 0 0 0 -3.477,-6.85 c -0.145,-0.27 -0.257,-0.445 -0.412,-0.445 -0.156,0 -0.259,0.156 -0.412,0.445 -0.075,0.142 -1.914,3.667 -3.483,6.85 -1.563,3.172 -2.771,5.96 -2.851,6.135 -0.161,0.352 -0.336,0.759 -0.336,1.16 0,0.4 0.152,0.747 0.334,1.177 0.088,0.206 1.388,3.132 2.865,6.156 1.607,3.29 3.401,6.695 3.469,6.829 0.136,0.266 0.253,0.446 0.41,0.446 0.158,0 0.271,-0.175 0.411,-0.445 0.073,-0.141 1.859,-3.541 3.464,-6.829 a 205.407,205.407 0 0 0 2.869,-6.155 c 0.2,-0.456 0.335,-0.757 0.335,-1.162 0.001,-0.406 -0.132,-0.732 -0.329,-1.177 z m -0.29,2.184 -0.01,0.024 a 207.29,207.29 0 0 1 -2.864,6.144 291.635,291.635 0 0 1 -3.434,6.77 l -0.027,0.051 c -0.056,0.108 -0.104,0.186 -0.126,0.186 -0.022,0 -0.069,-0.076 -0.124,-0.184 l -0.085,-0.163 a 278.38,278.38 0 0 1 -3.382,-6.661 190.995,190.995 0 0 1 -2.858,-6.14 l -0.013,-0.03 c -0.165,-0.388 -0.296,-0.695 -0.296,-1.02 0,-0.328 0.152,-0.686 0.307,-1.026 l 0.076,-0.171 a 155.508,155.508 0 0 1 2.771,-5.955 375.17,375.17 0 0 1 3.479,-6.842 c 0.052,-0.098 0.097,-0.19 0.127,-0.19 0.03,0 0.077,0.093 0.13,0.192 0.015,0.028 1.827,3.468 3.471,6.839 1.448,2.967 2.712,5.81 2.852,6.124 0.188,0.424 0.302,0.706 0.302,1.046 0.002,0.328 -0.11,0.583 -0.296,1.006 z"
       id="path6869" />
    <path
       d="M 47.572,28.385 C 46.7,26.567 43.989,21.23 41.691,17.064 38.54,11.352 32.915,1.949 32.276,1.092 31.645,0.245 31.292,0.208 30.707,0.146 L 30.621,0.137 C 29.771,0.043 26.165,0 23.996,0 22.138,0 18.192,0.048 17.273,0.14 16.408,0.226 16.173,0.492 15.679,1.137 15,2.022 9.281,11.692 6.302,17.064 4.148,20.948 0.736,27.663 0.419,28.385 0.133,29.037 0,29.55 0,30 c 0,0.479 0.134,0.992 0.421,1.615 0.715,1.551 2.871,5.845 5.881,11.321 3.14,5.711 8.813,15.15 9.415,15.972 0.635,0.867 1.05,0.904 1.625,0.955 0.873,0.078 4.639,0.137 6.654,0.137 2.175,0 6.112,-0.087 6.655,-0.136 0.538,-0.049 1.002,-0.091 1.625,-0.956 0.571,-0.793 6.674,-10.963 9.415,-15.972 2.627,-4.801 5.545,-10.568 5.881,-11.321 0.37,-0.828 0.421,-1.265 0.421,-1.615 0,-0.276 -0.055,-0.852 -0.421,-1.615 z m -0.299,3.096 c -0.335,0.75 -3.247,6.504 -5.87,11.298 -2.737,5.002 -8.824,15.148 -9.393,15.938 -0.535,0.743 -0.875,0.774 -1.388,0.821 -0.537,0.049 -4.456,0.135 -6.625,0.135 -2.01,0 -5.761,-0.058 -6.625,-0.135 C 16.829,59.49 16.53,59.463 15.983,58.715 15.384,57.897 9.726,48.481 6.591,42.778 3.585,37.31 1.433,33.024 0.72,31.478 0.452,30.899 0.328,30.43 0.328,30 c 0,-0.403 0.124,-0.874 0.392,-1.483 0.316,-0.72 3.719,-7.416 5.869,-11.294 2.975,-5.363 8.677,-15.008 9.35,-15.887 0.472,-0.616 0.641,-0.797 1.366,-0.87 0.908,-0.091 4.839,-0.138 6.691,-0.138 2.162,0 5.751,0.043 6.589,0.134 l 0.087,0.009 c 0.546,0.058 0.795,0.084 1.341,0.816 0.635,0.852 6.245,10.232 9.391,15.935 2.295,4.16 5.002,9.49 5.873,11.305 0.338,0.704 0.388,1.225 0.388,1.472 0,0.314 -0.048,0.71 -0.392,1.482 z"
       id="path6871" />
  </g>
</svg>
