<?xml version="1.0" encoding="UTF-8" standalone="no"?>
<svg
   id="Layer_1"
   viewBox="0 0 0.77370962 0.77375994"
   width="51.999996"
   height="51.999996"
   version="1.1"
   sodipodi:docname="logoVolkswagen.svg"
   inkscape:version="1.1.1 (3bf5ae0d25, 2021-09-20)"
   xmlns:inkscape="http://www.inkscape.org/namespaces/inkscape"
   xmlns:sodipodi="http://sodipodi.sourceforge.net/DTD/sodipodi-0.dtd"
   xmlns:xlink="http://www.w3.org/1999/xlink"
   xmlns="http://www.w3.org/2000/svg"
   xmlns:svg="http://www.w3.org/2000/svg">
  <defs
     id="defs8110" />
  <sodipodi:namedview
     id="namedview8108"
     pagecolor="#ffffff"
     bordercolor="#666666"
     borderopacity="1.0"
     inkscape:pageshadow="2"
     inkscape:pageopacity="0.0"
     inkscape:pagecheckerboard="true"
     showgrid="false"
     fit-margin-top="0"
     fit-margin-left="0"
     fit-margin-right="0"
     fit-margin-bottom="0"
     inkscape:zoom="1.792"
     inkscape:cx="-62.779018"
     inkscape:cy="152.06473"
     inkscape:window-width="1366"
     inkscape:window-height="745"
     inkscape:window-x="-8"
     inkscape:window-y="-8"
     inkscape:window-maximized="1"
     inkscape:current-layer="Layer_1" />
  <style
     id="style7845">.st0{fill:url(#SVGID_1_);stroke:#000;stroke-width:.9842;stroke-miterlimit:10}.st1{fill:url(#SVGID_2_)}.st2{opacity:.63}.st3{fill:#bfbbb9}.st4{fill:url(#SVGID_3_)}.st5{fill:#544e4e}.st6{clip-path:url(#SVGID_5_);fill:#352d2b}.st7{fill:url(#SVGID_6_)}.st8{fill:#fff}.st9{clip-path:url(#SVGID_8_);fill:#979190}.st10{fill:url(#XMLID_8_)}.st11{clip-path:url(#SVGID_10_);fill:url(#SVGID_11_)}.st12{fill:none;stroke:#000;stroke-width:.8973;stroke-miterlimit:10}.st13{fill:#5f585a}.st14{clip-path:url(#SVGID_13_);fill:#282423}.st15{fill:#544d4f}.st16{clip-path:url(#SVGID_15_);fill:#352d2b}.st17{clip-path:url(#SVGID_17_);fill:url(#SVGID_18_)}.st18{clip-path:url(#SVGID_20_);fill:url(#SVGID_21_)}.st19{fill:#ada6a5}.st20{fill:url(#SVGID_22_)}</style>
  <g
     id="g8259"
     transform="matrix(0.02192936,0,0,0.02192936,-0.01891673,-0.02868141)">
    <g
       id="ciculo_grande">
      <radialGradient
         id="SVGID_1_"
         cx="11.618"
         cy="28.731001"
         r="22.405001"
         gradientTransform="matrix(1,0,0,-1,0,40.161)"
         gradientUnits="userSpaceOnUse">
        <stop
           offset="0"
           stop-color="#386eac"
           id="stop7847" />
        <stop
           offset=".213"
           stop-color="#366caa"
           id="stop7849" />
        <stop
           offset=".349"
           stop-color="#3166a3"
           id="stop7851" />
        <stop
           offset=".464"
           stop-color="#295b98"
           id="stop7853" />
        <stop
           offset=".567"
           stop-color="#1d4d88"
           id="stop7855" />
        <stop
           offset=".661"
           stop-color="#0f3c75"
           id="stop7857" />
        <stop
           offset=".749"
           stop-color="#002a60"
           id="stop7859" />
        <stop
           offset=".788"
           stop-color="#002256"
           id="stop7861" />
      </radialGradient>
      <path
         class="st0"
         d="M 18.4,1.8 C 8.9,1.8 1.3,9.5 1.3,18.9 c 0,9.4 7.6,17.2 17.1,17.2 9.5,0 17.2,-7.7 17.2,-17.2 C 35.6,9.4 27.9,1.8 18.4,1.8 Z m 0,30.2 C 11.2,32 5.3,26.1 5.3,18.9 5.3,11.7 11.2,5.8 18.4,5.8 c 7.2,0 13.1,5.9 13.1,13.1 0,7.3 -5.9,13.1 -13.1,13.1 z"
         id="path7864"
         style="fill:url(#SVGID_1_)" />
    </g>
    <g
       id="circulo_pequeño">
      <radialGradient
         id="SVGID_2_"
         cx="13.058"
         cy="27.066"
         r="16.429001"
         gradientTransform="matrix(1,0,0,-1,0,40.161)"
         gradientUnits="userSpaceOnUse">
        <stop
           offset="0"
           stop-color="#6895c7"
           id="stop7867" />
        <stop
           offset=".136"
           stop-color="#6490c3"
           id="stop7869" />
        <stop
           offset=".285"
           stop-color="#5882b6"
           id="stop7871" />
        <stop
           offset=".439"
           stop-color="#446ca2"
           id="stop7873" />
        <stop
           offset=".598"
           stop-color="#2c5087"
           id="stop7875" />
        <stop
           offset=".758"
           stop-color="#0f3469"
           id="stop7877" />
        <stop
           offset=".861"
           stop-color="#002256"
           id="stop7879" />
      </radialGradient>
      <circle
         class="st1"
         cx="18.5"
         cy="18.9"
         r="13"
         id="circle7882"
         style="fill:url(#SVGID_2_)" />
    </g>
    <g
       id="w">
      <path
         class="st3"
         d="m 17.5,18.6 h -0.9 l -4.2,-9.4 0.4,-1 4.7,10.4"
         id="path7885" />
      <linearGradient
         id="SVGID_3_"
         gradientUnits="userSpaceOnUse"
         x1="18.561001"
         y1="35.109001"
         x2="18.538"
         y2="7.2309999"
         gradientTransform="matrix(1,0,0,-1,0,40.161)">
        <stop
           offset="0"
           stop-color="#f8f8f7"
           id="stop7887" />
        <stop
           offset=".192"
           stop-color="#f5f5f4"
           id="stop7889" />
        <stop
           offset=".315"
           stop-color="#ececeb"
           id="stop7891" />
        <stop
           offset=".418"
           stop-color="#dddbdb"
           id="stop7893" />
        <stop
           offset=".511"
           stop-color="#c8c6c5"
           id="stop7895" />
        <stop
           offset=".596"
           stop-color="#aeabab"
           id="stop7897" />
        <stop
           offset=".633"
           stop-color="#a09d9e"
           id="stop7899" />
        <stop
           offset=".704"
           stop-color="#b4b1b1"
           id="stop7901" />
        <stop
           offset=".807"
           stop-color="#cac7c8"
           id="stop7903" />
        <stop
           offset=".907"
           stop-color="#d8d5d6"
           id="stop7905" />
        <stop
           offset="1"
           stop-color="#dddadb"
           id="stop7907" />
      </linearGradient>
      <path
         class="st4"
         d="M 18.5,5 C 10.8,5 4.6,11.2 4.6,18.9 c 0,7.7 6.2,13.9 13.9,13.9 7.7,0 13.9,-6.2 13.9,-13.9 C 32.4,11.3 26.2,5 18.5,5 Z m 3.3,2.2 -3.3,7.6 -3.4,-7.6 c 1.1,-0.3 2.3,-0.5 3.4,-0.5 1.1,0.1 2.2,0.2 3.3,0.5 z m -9,1 4.7,10.4 h 1.8 L 24.1,8.1 c 1.8,0.9 3.3,2.3 4.5,4 L 22.4,25.9 19.3,19.2 H 17.4 L 14.5,25.8 8.4,12.1 C 9.5,10.5 11,9.1 12.8,8.2 Z M 6.3,19 c 0,-1.5 0.3,-2.9 0.7,-4.1 l 6.9,15.4 C 9.4,28.5 6.3,24.1 6.3,19 Z m 8.6,11.6 3.5,-7.7 3.5,7.7 c -1.1,0.3 -2.3,0.5 -3.5,0.5 C 17.2,31.2 16,31 14.9,30.6 Z M 23,30.3 29.9,14.7 c 0.5,1.3 0.8,2.8 0.8,4.3 0,5.1 -3.2,9.5 -7.7,11.3 z"
         id="path7910"
         style="fill:url(#SVGID_3_)" />
      <path
         id="XMLID_1_"
         class="st5"
         d="m 12.4,9.2 0.3,-1 C 11,9.1 9.5,10.5 8.4,12.1 h 0.9 c 0.8,-1.2 1.9,-2.1 3.1,-2.9 z" />
      <defs
         id="defs7914">
        <path
           id="SVGID_4_"
           d="m 12.4,9.2 0.3,-1 C 11,9.1 9.5,10.5 8.4,12.1 h 0.9 c 0.8,-1.2 1.9,-2.1 3.1,-2.9 z" />
      </defs>
      <clipPath
         id="SVGID_5_">
        <use
           xlink:href="#SVGID_4_"
           overflow="visible"
           id="use7916"
           x="0"
           y="0"
           width="100%"
           height="100%" />
      </clipPath>
      <path
         class="st6"
         d="m 12.9,8.4 c -2.2,1.3 -3,1.9 -4.4,3.9 L 7.8,12.2 V 11.9 L 9.2,10.3 10.7,8.8 12,8.1 12.8,7.9 13.1,8.1 Z"
         clip-path="url(#SVGID_5_)"
         id="path7919" />
      <linearGradient
         id="SVGID_6_"
         gradientUnits="userSpaceOnUse"
         x1="15.332"
         y1="17.903"
         x2="15.9"
         y2="17.671"
         gradientTransform="matrix(1,0,0,-1,0,40.161)">
        <stop
           offset=".76"
           stop-color="#fff"
           id="stop7921" />
        <stop
           offset=".84"
           stop-color="#fdfdfd"
           id="stop7923" />
        <stop
           offset=".878"
           stop-color="#f8f8f8"
           id="stop7925" />
        <stop
           offset=".906"
           stop-color="#efeff0"
           id="stop7927" />
        <stop
           offset=".93"
           stop-color="#e1e2e3"
           id="stop7929" />
        <stop
           offset=".952"
           stop-color="#cfd0d1"
           id="stop7931" />
        <stop
           offset=".971"
           stop-color="#b8b9bb"
           id="stop7933" />
        <stop
           offset=".988"
           stop-color="#9c9d9f"
           id="stop7935" />
        <stop
           offset="1"
           stop-color="#848687"
           id="stop7937" />
      </linearGradient>
      <path
         class="st7"
         d="m 17.4,19.2 h -0.9 l -2,4.6 v 2.1 z"
         id="path7940"
         style="fill:url(#SVGID_6_)" />
      <path
         id="XMLID_2_"
         class="st8"
         d="M 14.5,23.8 9.2,12.1 H 8.3 l 6.1,13.8 z" />
      <defs
         id="defs7944">
        <path
           id="SVGID_7_"
           d="M 14.5,23.8 9.2,12.1 H 8.3 l 6.1,13.8 z" />
      </defs>
      <clipPath
         id="SVGID_8_">
        <use
           xlink:href="#SVGID_7_"
           overflow="visible"
           id="use7946"
           x="0"
           y="0"
           width="100%"
           height="100%" />
      </clipPath>
      <path
         class="st9"
         d="m 14.6,25.9 -6,-14 -0.5,0.1 -0.3,3.1 1.2,6.2 1.2,1.7 1.6,1.4 2.5,1.4 z"
         clip-path="url(#SVGID_8_)"
         id="path7949" />
      <g
         id="g8018">
        <linearGradient
           id="XMLID_8_"
           gradientUnits="userSpaceOnUse"
           x1="6.2490001"
           y1="17.231001"
           x2="30.649"
           y2="17.231001"
           gradientTransform="matrix(1,0,0,-1,0,40.161)">
          <stop
             offset="0"
             stop-color="#7c7571"
             id="stop7951" />
          <stop
             offset=".021"
             stop-color="#8f8885"
             id="stop7953" />
          <stop
             offset=".061"
             stop-color="#afaaa7"
             id="stop7955" />
          <stop
             offset=".107"
             stop-color="#cbc7c5"
             id="stop7957" />
          <stop
             offset=".16"
             stop-color="#e2e0de"
             id="stop7959" />
          <stop
             offset=".223"
             stop-color="#f3f1f1"
             id="stop7961" />
          <stop
             offset=".308"
             stop-color="#fcfcfc"
             id="stop7963" />
          <stop
             offset=".511"
             stop-color="#fff"
             id="stop7965" />
          <stop
             offset=".727"
             stop-color="#fcfcfc"
             id="stop7967" />
          <stop
             offset=".805"
             stop-color="#f3f2f1"
             id="stop7969" />
          <stop
             offset=".861"
             stop-color="#e4e1e0"
             id="stop7971" />
          <stop
             offset=".906"
             stop-color="#cecac8"
             id="stop7973" />
          <stop
             offset=".945"
             stop-color="#b3adaa"
             id="stop7975" />
          <stop
             offset=".978"
             stop-color="#948d8a"
             id="stop7977" />
          <stop
             offset="1"
             stop-color="#7c7571"
             id="stop7979" />
        </linearGradient>
        <path
           id="XMLID_4_"
           class="st10"
           d="m 18.5,30.4 c 1.1,0 2.1,-0.2 3.1,-0.4 l 0.3,0.7 C 20.8,31 19.6,31.2 18.4,31.2 17.2,31.2 16,31 14.8,30.7 L 15.1,30 c 1.1,0.2 2.2,0.4 3.4,0.4 z M 13.8,30.3 13.3,29.1 C 9.6,27.2 7,23.4 7,18.9 c 0,-1 0.1,-2.1 0.4,-3 L 6.9,14.8 c -0.5,1.3 -0.7,2.7 -0.7,4.1 0.1,5.2 3.2,9.6 7.6,11.4 z M 30.7,19 c 0,-1.5 -0.3,-3 -0.8,-4.3 l -0.5,1.1 c 0.3,1 0.4,2.1 0.4,3.2 0,4.5 -2.6,8.3 -6.3,10.2 L 23,30.3 c 4.5,-1.8 7.7,-6.2 7.7,-11.3 z"
           style="fill:url(#XMLID_8_)" />
        <g
           id="g8016">
          <defs
             id="defs7984">
            <path
               id="SVGID_9_"
               d="m 18.5,30.4 c 1.1,0 2.1,-0.2 3.1,-0.4 l 0.3,0.7 C 20.8,31 19.6,31.2 18.4,31.2 17.2,31.2 16,31 14.8,30.7 L 15.1,30 c 1.1,0.2 2.2,0.4 3.4,0.4 z M 13.8,30.3 13.3,29.1 C 9.6,27.2 7,23.4 7,18.9 c 0,-1 0.1,-2.1 0.4,-3 L 6.9,14.8 c -0.5,1.3 -0.7,2.7 -0.7,4.1 0.1,5.2 3.2,9.6 7.6,11.4 z M 30.7,19 c 0,-1.5 -0.3,-3 -0.8,-4.3 l -0.5,1.1 c 0.3,1 0.4,2.1 0.4,3.2 0,4.5 -2.6,8.3 -6.3,10.2 L 23,30.3 c 4.5,-1.8 7.7,-6.2 7.7,-11.3 z" />
          </defs>
          <clipPath
             id="SVGID_10_">
            <use
               xlink:href="#SVGID_9_"
               overflow="visible"
               id="use7986"
               x="0"
               y="0"
               width="100%"
               height="100%" />
          </clipPath>
          <linearGradient
             id="SVGID_11_"
             gradientUnits="userSpaceOnUse"
             x1="6.3070002"
             y1="17.231001"
             x2="30.707001"
             y2="17.231001"
             gradientTransform="matrix(1,0,0,-1,0,40.161)">
            <stop
               offset="0"
               stop-color="#191515"
               id="stop7989" />
            <stop
               offset=".068"
               stop-color="#342d2d"
               id="stop7991" />
            <stop
               offset=".167"
               stop-color="#5b5352"
               id="stop7993" />
            <stop
               offset=".261"
               stop-color="#7f7676"
               id="stop7995" />
            <stop
               offset=".349"
               stop-color="#9b9393"
               id="stop7997" />
            <stop
               offset=".427"
               stop-color="#aea6a6"
               id="stop7999" />
            <stop
               offset=".489"
               stop-color="#b4adac"
               id="stop8001" />
            <stop
               offset=".56"
               stop-color="#aaa2a2"
               id="stop8003" />
            <stop
               offset=".669"
               stop-color="#8f8686"
               id="stop8005" />
            <stop
               offset=".803"
               stop-color="#675e5f"
               id="stop8007" />
            <stop
               offset=".955"
               stop-color="#393233"
               id="stop8009" />
            <stop
               offset="1"
               stop-color="#2c2628"
               id="stop8011" />
          </linearGradient>
          <path
             class="st11"
             d="m 30.7,19 c 0,5.1 -3.2,9.5 -7.6,11.3 L 23.2,30 c 4.3,-1.8 7.3,-6.1 7.3,-11 0,-1.4 -0.2,-2.8 -0.7,-4 l 0.1,-0.3 c 0.5,1.3 0.8,2.8 0.8,4.3 z M 6.5,19 c 0,-1.4 0.2,-2.7 0.6,-3.9 L 7,14.8 c -0.5,1.3 -0.7,2.7 -0.7,4.1 0,5.1 3.1,9.5 7.6,11.3 L 13.7,30 C 9.4,28.2 6.5,23.9 6.5,19 Z m 12,12.2 c -1.2,0 -2.4,-0.2 -3.6,-0.5 L 15,30.5 c 1.1,0.3 2.3,0.5 3.5,0.5 1.2,0 2.3,-0.2 3.4,-0.5 l 0.1,0.2 c -1.2,0.3 -2.3,0.5 -3.5,0.5 z"
             clip-path="url(#SVGID_10_)"
             id="path8014"
             style="fill:url(#SVGID_11_)" />
        </g>
      </g>
      <circle
         class="st12"
         cx="18.5"
         cy="19"
         r="13.9"
         id="circle8020" />
      <g
         id="g8031">
        <path
           id="XMLID_5_"
           class="st13"
           d="m 27.6,12 0.9,0.1 c -1.1,-1.6 -2.7,-3 -4.4,-3.9 l 0.1,0.2 0.3,0.8 c 1.2,0.7 2.2,1.7 3.1,2.8 z" />
        <defs
           id="defs8024">
          <path
             id="SVGID_12_"
             d="m 27.6,12 0.9,0.1 c -1.1,-1.6 -2.7,-3 -4.4,-3.9 l 0.1,0.2 0.3,0.8 c 1.2,0.7 2.2,1.7 3.1,2.8 z" />
        </defs>
        <clipPath
           id="SVGID_13_">
          <use
             xlink:href="#SVGID_12_"
             overflow="visible"
             id="use8026"
             x="0"
             y="0"
             width="100%"
             height="100%" />
        </clipPath>
        <path
           class="st14"
           d="m 28.4,12.2 c -1,-1.5 -3.3,-3.5 -4.7,-3.9 l 0.3,-0.8 1.8,0.4 2.2,2.4 1.2,1.4 v 0.7 z"
           clip-path="url(#SVGID_13_)"
           id="path8029" />
      </g>
      <g
         id="g8042">
        <path
           id="XMLID_3_"
           class="st15"
           d="m 15,7.3 0.3,0.6 c 1,-0.3 2.1,-0.4 3.2,-0.4 1,0 2.1,0.1 3,0.4 L 21.8,7.3 C 20.7,7 19.6,6.8 18.5,6.8 17.3,6.8 16.1,7 15,7.3 Z" />
        <defs
           id="defs8035">
          <path
             id="SVGID_14_"
             d="m 15,7.3 0.3,0.6 c 1,-0.3 2.1,-0.4 3.2,-0.4 1,0 2.1,0.1 3,0.4 L 21.8,7.3 C 20.7,7 19.6,6.8 18.5,6.8 17.3,6.8 16.1,7 15,7.3 Z" />
        </defs>
        <clipPath
           id="SVGID_15_">
          <use
             xlink:href="#SVGID_14_"
             overflow="visible"
             id="use8037"
             x="0"
             y="0"
             width="100%"
             height="100%" />
        </clipPath>
        <path
           class="st16"
           d="M 21.8,7.4 C 19.7,6.7 16.4,6.9 14.9,7.5 L 14.7,7.1 15.3,6.6 c 0,0 1.1,-0.1 1.2,-0.1 h 3 l 1.4,0.1 1.1,0.3 0.2,0.3 z"
           clip-path="url(#SVGID_15_)"
           id="path8040" />
      </g>
      <g
         id="g8085">
        <path
           id="XMLID_6_"
           class="st8"
           d="m 19.3,19.2 h 1 l 2,4.5 5.3,-11.7 1,0.1 -6.2,13.8 z" />
        <defs
           id="defs8046">
          <path
             id="SVGID_16_"
             d="m 19.3,19.2 h 1 l 2,4.5 5.3,-11.7 1,0.1 -6.2,13.8 z" />
        </defs>
        <clipPath
           id="SVGID_17_">
          <use
             xlink:href="#SVGID_16_"
             overflow="visible"
             id="use8048"
             x="0"
             y="0"
             width="100%"
             height="100%" />
        </clipPath>
        <linearGradient
           id="SVGID_18_"
           gradientUnits="userSpaceOnUse"
           x1="20.872"
           y1="17.740999"
           x2="21.931999"
           y2="18.215"
           gradientTransform="matrix(1,0,0,-1,0,40.161)">
          <stop
             offset="0"
             stop-color="#8a817f"
             id="stop8051" />
          <stop
             offset=".349"
             stop-color="#b5afae"
             id="stop8053" />
          <stop
             offset=".776"
             stop-color="#eae7e7"
             id="stop8055" />
          <stop
             offset="1"
             stop-color="#fff"
             id="stop8057" />
        </linearGradient>
        <path
           class="st17"
           d="m 22.3,23.3 0.1,2.8 -3,-3.9 -0.3,-2.7 0.1,-0.7 1.1,0.1 0.8,0.5 z"
           clip-path="url(#SVGID_17_)"
           id="path8060"
           style="fill:url(#SVGID_18_)" />
        <g
           id="g8083">
          <defs
             id="defs8063">
            <path
               id="SVGID_19_"
               d="m 19.3,19.2 h 1 l 2,4.5 5.3,-11.7 1,0.1 -6.2,13.8 z" />
          </defs>
          <clipPath
             id="SVGID_20_">
            <use
               xlink:href="#SVGID_19_"
               overflow="visible"
               id="use8065"
               x="0"
               y="0"
               width="100%"
               height="100%" />
          </clipPath>
          <linearGradient
             id="SVGID_21_"
             gradientUnits="userSpaceOnUse"
             x1="18.915001"
             y1="21.031"
             x2="28.478001"
             y2="21.031"
             gradientTransform="matrix(1,0,0,-1,0,40.161)">
            <stop
               offset="0"
               stop-color="#332726"
               id="stop8068" />
            <stop
               offset=".084"
               stop-color="#3c302e"
               id="stop8070" />
            <stop
               offset=".343"
               stop-color="#564a47"
               id="stop8072" />
            <stop
               offset=".588"
               stop-color="#6a605d"
               id="stop8074" />
            <stop
               offset=".814"
               stop-color="#786f6c"
               id="stop8076" />
            <stop
               offset="1"
               stop-color="#7c7571"
               id="stop8078" />
          </linearGradient>
          <path
             class="st18"
             d="m 19.4,19.2 2.9,6.4 6.2,-13.7 0.1,0.4 -2.3,5.8 -3.6,8.3 -0.9,-0.3 -2.6,-6.7 -0.1,-0.4 z"
             clip-path="url(#SVGID_20_)"
             id="path8081"
             style="fill:url(#SVGID_21_)" />
        </g>
      </g>
      <path
         class="st19"
         d="m 19.3,18.6 4.8,-10.5 0.4,1 -4.2,9.5 z"
         id="path8087" />
    </g>
    <path
       d="m 18.4,1.9 c -9.4,0 -17,7.6 -17,17 0,9.4 7.6,17 17,17 9.4,0 17,-7.6 17,-17 0,-9.4 -7.6,-17 -17,-17 z m 0,33.5 C 9.3,35.4 1.9,28 1.9,18.9 1.9,9.8 9.3,2.4 18.4,2.4 c 9.1,0 16.5,7.4 16.5,16.5 0,9.1 -7.4,16.5 -16.5,16.5 z"
       id="Capa_8_copia" />
    <g
       id="Capa_8">
      <linearGradient
         id="SVGID_22_"
         gradientUnits="userSpaceOnUse"
         x1="5.8200002"
         y1="31.865999"
         x2="32.115002"
         y2="9.8360004"
         gradientTransform="matrix(1,0,0,-1,0,40.161)">
        <stop
           offset="0"
           stop-color="#eeefee"
           id="stop8091" />
        <stop
           offset=".089"
           stop-color="#d7d7d6"
           id="stop8093" />
        <stop
           offset=".223"
           stop-color="#bfbfbf"
           id="stop8095" />
        <stop
           offset=".381"
           stop-color="#afaeae"
           id="stop8097" />
        <stop
           offset=".586"
           stop-color="#a6a5a5"
           id="stop8099" />
        <stop
           offset="1"
           stop-color="#a3a2a3"
           id="stop8101" />
      </linearGradient>
      <path
         class="st20"
         d="M 18.4,1.8 C 8.9,1.8 1.3,9.5 1.3,18.9 c 0,9.4 7.6,17.2 17.1,17.2 9.5,0 17.2,-7.7 17.2,-17.2 C 35.6,9.4 27.9,1.8 18.4,1.8 Z m 0,33.8 C 9.2,35.6 1.8,28.1 1.8,18.9 1.8,9.7 9.2,2.3 18.4,2.3 27.6,2.3 35,9.7 35,18.9 35,28.1 27.6,35.6 18.4,35.6 Z"
         id="path8104"
         style="fill:url(#SVGID_22_)" />
    </g>
  </g>
</svg>
