<?xml version="1.0" encoding="UTF-8" standalone="no"?>
<svg
   width="52"
   height="52"
   viewBox="0 0 4.0093248 4.0093248"
   version="1.1"
   id="svg8"
   sodipodi:docname="logoBenelli.svg"
   inkscape:version="1.1.1 (3bf5ae0d25, 2021-09-20)"
   xmlns:inkscape="http://www.inkscape.org/namespaces/inkscape"
   xmlns:sodipodi="http://sodipodi.sourceforge.net/DTD/sodipodi-0.dtd"
   xmlns="http://www.w3.org/2000/svg"
   xmlns:svg="http://www.w3.org/2000/svg">
  <defs
     id="defs12" />
  <sodipodi:namedview
     id="namedview10"
     pagecolor="#ffffff"
     bordercolor="#666666"
     borderopacity="1.0"
     inkscape:pageshadow="2"
     inkscape:pageopacity="0.0"
     inkscape:pagecheckerboard="true"
     showgrid="false"
     width="52px"
     inkscape:zoom="5.0685414"
     inkscape:cx="22.590325"
     inkscape:cy="32.849687"
     inkscape:window-width="1366"
     inkscape:window-height="745"
     inkscape:window-x="-8"
     inkscape:window-y="-8"
     inkscape:window-maximized="1"
     inkscape:current-layer="svg8" />
  <path
     d="m 3.7402976,1.5632864 -0.011586,0.00193 -0.00963,0.00385 -0.01352,0.00578 -0.00383,0.00385 -0.0058,0.00387 -0.013478,0.011565 -0.00576,0.00387 -0.00387,0.00578 -0.011586,0.013499 -0.00963,0.019261 -0.00387,0.00387 -0.00387,0.011565 -0.00191,0.00965 -0.00387,0.026978 0.00387,0.00193 v 0.026978 h 0.00191 v 0.011565 h 0.00387 v 0.00963 h 0.00387 v 0.00772 h 0.00191 v 0.00578 h 0.00387 v 0.00578 h 0.00387 l 0.00196,0.00387 v 0.00578 h 0.00387 l 0.00963,0.00963 v 0.00772 h 0.00576 l 0.013478,0.011565 0.0058,0.00385 0.00383,0.00387 0.01352,0.00578 0.00963,0.00387 0.011586,0.00193 0.055869,0.00385 v -0.00385 l 0.011586,-0.00193 0.00963,-0.00387 0.013478,-0.00578 0.00387,-0.00387 0.00576,-0.00385 0.028933,-0.028912 0.00387,-0.00578 0.00191,-0.00387 0.00967,-0.019282 0.00387,-0.00963 0.00383,-0.011565 0.00196,-0.05589 h -0.00196 v -0.00969 h -0.00383 v -0.011565 l -0.00387,-0.00387 H 3.882944 V 1.63072 H 3.879074 V 1.623 H 3.875204 V 1.61722 L 3.84051,1.582526 3.83475,1.578656 3.83088,1.574806 3.817402,1.569026 3.807772,1.565176 3.796186,1.563246 h -0.05589 z m -0.6842368,0.011565 -0.015434,0.00385 -0.048173,0.015413 -0.025022,0.013499 -0.00967,0.00385 -0.06552,0.030846 -0.00191,0.00385 -0.019302,0.00963 -0.00387,0.00387 -0.00576,0.00193 -0.00772,0.0077 -0.00576,0.00193 -0.00387,0.00387 -0.00576,0.00387 -0.015434,0.015413 -0.00387,0.00578 v 0.00963 h 0.00387 l 0.011586,0.00387 0.032739,0.00578 0.019302,0.00963 0.00387,0.00387 v 0.00576 h 0.00191 l -0.00191,0.013499 -0.00387,0.5878704 -0.00576,0.019261 -0.00387,0.00387 -0.00387,0.00576 -0.00963,0.00967 -0.0058,0.00383 -0.015392,0.015434 -0.00387,0.00963 v 0.00967 h 0.00387 l 0.00191,0.00383 0.00772,0.00196 0.3180112,0.00387 v -0.00387 l 0.00576,-0.00196 0.00387,-0.023109 L 3.165954,2.3844298 3.14089,2.3728438 3.13126,2.3632138 H 3.12354 v -0.00772 H 3.12163 v -0.00576 H 3.11776 V 2.3342998 H 3.11389 V 1.5884118 L 3.10426,1.5787818 3.0985,1.5749318 H 3.056068 Z m 0.3700528,0 -0.015392,0.00385 -0.01352,0.00387 -0.038522,0.011565 -0.025064,0.013499 -0.00963,0.00385 -0.06552,0.030846 -0.00196,0.00385 -0.019261,0.00963 -0.00387,0.00387 -0.00576,0.00193 -0.00772,0.0077 -0.0058,0.00193 -0.00383,0.00387 -0.0058,0.00387 -0.00387,0.00576 -0.011544,0.013499 v 0.011565 h 0.00191 l 0.013478,0.00387 0.015434,0.00385 0.013478,0.00193 0.00576,0.00385 0.00963,0.00387 0.00967,0.00963 -0.00196,0.5994144 -0.00772,0.019261 -0.00191,0.00387 -0.00387,0.0058 -0.013478,0.013478 -0.00576,0.00383 -0.015434,0.015434 -0.00387,0.00963 v 0.00967 h 0.00387 l 0.00196,0.00383 0.00768,0.00196 0.3199664,0.00387 v -0.00387 l 0.00772,-0.00196 0.00191,-0.023109 -0.011586,-0.013478 -0.026978,-0.011586 -0.00963,-0.00963 h -0.00576 v -0.00772 h -0.00387 v -0.00576 h -0.00196 v -0.015434 h -0.00387 v -0.745888 l -0.00963,-0.00963 -0.00576,-0.00385 h -0.04237 z m -3.340168,0.013499 -0.0096512,0.00387 -0.0077168,0.00191 -0.0019136,0.00387 v 0.015413 h 0.0019136 v 0.00772 h 0.0038688 v 0.00578 h 0.0096304 l 0.0096304,0.00385 0.0134992,0.00578 0.0192608,0.019282 v 0.00578 h 0.001934 v 0.0077 h 0.003869 v 0.00578 h 0.003869 v 0.00963 h 0.001934 l -0.001934,0.6514768 -0.009651,0.019261 -0.0269776,0.026978 -0.0057824,0.00196 -0.003848,0.00387 -0.0192816,0.00963 -0.0019136,0.00576 -0.0038688,0.00387 -0.0038688,0.0058 0.0038688,0.00387 v 0.00576 H 0.066685 l 0.0057824,0.00387 0.5396768,0.00387 v -0.00387 l 0.0231088,-0.00387 0.009651,-0.00196 0.025064,-0.00768 0.005782,-0.00196 0.003869,-0.00387 0.025064,-0.013478 0.00963,-0.00963 0.007717,-0.00196 0.0154128,-0.017306 0.003848,-0.0058 0.001934,-0.00387 0.003869,-0.00576 0.003848,-0.00387 0.001934,-0.00576 0.003869,-0.00387 0.003848,-0.00963 0.001934,-0.0058 0.003848,-0.00963 0.003869,-0.00576 0.001934,-0.00963 0.007717,-0.032781 0.001934,-0.013478 0.003848,-0.1021696 H 0.7818304 V 2.1319168 H 0.779896 V 2.1242 H 0.776027 V 2.11457 H 0.772096 V 2.10881 H 0.770162 V 2.10301 H 0.766293 V 2.09529 L 0.762445,2.09338 H 0.760511 V 2.08566 L 0.756663,2.08375 H 0.752794 V 2.07603 l -0.030826,-0.030828 -0.007717,-0.00387 -0.001934,-0.00387 -0.007717,-0.00191 -0.001934,-0.00387 -0.007717,-0.00387 -0.001934,-0.00191 -0.0134784,-0.00772 -0.003869,-0.00196 -0.025064,-0.013478 -0.009568,-0.00387 -0.005782,-0.00191 -0.00963,-0.00387 -0.007717,-0.00387 -0.00963,-0.00191 0.028912,-0.00965 0.007717,-0.00385 0.001934,-0.00385 0.0134784,-0.00578 0.005782,-0.00578 0.007696,-0.00387 0.0115648,-0.013499 0.003869,-0.00576 0.00963,-0.00965 0.0134784,-0.025043 0.00963,-0.028912 0.001934,-0.013499 0.003848,-0.019261 0.003869,-0.092518 H 0.7277504 V 1.7290416 H 0.7239024 V 1.7174768 H 0.721968 V 1.7039778 H 0.718099 v -0.00963 H 0.714272 v -0.00578 H 0.712338 v -0.0077 H 0.708469 v -0.00578 H 0.704621 v -0.00578 H 0.702687 v -0.0077 H 0.698839 v -0.00578 L 0.664144,1.6211312 0.6564272,1.6172832 0.6506448,1.6115008 0.631384,1.6018704 0.6121024,1.5941536 0.5986032,1.59224 0.5639088,1.5883712 H 0.0859456 Z m 0.3180112,0.071323 -0.007717,0.00193 -0.0154336,0.017347 -0.00963,0.019282 v 0.2216448 h 0.003869 v 0.021195 h 0.001934 l 0.003848,0.00387 v 0.00578 h 0.003869 l 0.001934,0.00385 0.00963,0.00387 0.0481728,0.00191 v -0.00191 l 0.00963,-0.00387 0.0192816,-0.00963 0.0231296,-0.02313 0.003869,-0.00578 0.001914,-0.00387 0.00963,-0.019282 0.003869,-0.00963 0.005782,-0.025064 0.003869,-0.080954 H 0.5215392 V 1.7656704 H 0.5196048 V 1.748344 H 0.5157568 V 1.742564 H 0.511888 V 1.736784 H 0.509974 V 1.729064 H 0.506105 V 1.719434 L 0.500323,1.713654 H 0.496454 V 1.707874 L 0.486824,1.698244 H 0.482976 V 1.69052 L 0.4636944,1.671238 0.4579124,1.669308 0.4540434,1.665458 0.4482614,1.661608 0.4386314,1.659678 Z m 1.3009984,0.096366 -0.00387,0.00191 -0.019282,0.00963 -0.00387,0.00387 -0.019282,0.00963 -0.00191,0.00385 -0.026978,0.011565 -0.00193,0.00385 -0.019282,0.00963 -0.00385,0.00387 -0.025064,0.011565 -0.00387,0.00387 -0.025064,0.013478 -0.00385,0.00193 -0.019282,0.00963 -0.00385,0.00385 -0.025064,0.013499 -0.00387,0.00191 -0.019282,0.00965 -0.00578,0.0077 -0.00578,0.00193 -0.00772,0.00772 -0.00193,0.00576 v 0.00578 h 0.00193 v 0.00772 h 0.00385 l 0.013499,0.00576 0.00963,0.00387 0.011565,0.00578 0.019282,0.019261 v 0.00963 h 0.00385 v 0.032781 h 0.00387 L 1.5179008,2.34 l -0.00578,0.013478 -0.017347,0.015392 -0.00578,0.00387 -0.00387,0.00196 -0.011565,0.00768 -0.00387,0.0058 -0.00578,0.00576 -0.00387,0.00772 v 0.015434 h 0.00387 l 0.00193,0.00383 0.00772,0.00196 0.3180112,0.00387 V 2.422884 L 1.8012,2.420924 1.81083,2.411294 1.81276,2.403574 H 1.81083 V 2.397814 L 1.80311,2.393944 1.80118,2.392034 1.76842,2.374687 1.75879,2.365057 H 1.75301 V 2.35924 H 1.74928 V 2.35348 L 1.74543,2.34961 H 1.7435 V 2.33998 H 1.73963 V 2.326502 H 1.73578 V 1.9892496 l 0.00385,-0.019261 0.00387,-0.011565 0.00193,-0.00772 0.00385,-0.00193 0.00387,-0.00772 0.00193,-0.00191 0.00385,-0.00772 0.025064,-0.011565 0.017347,-0.00387 h 0.048173 l 0.015413,0.00387 0.00578,0.00191 0.00387,0.00385 0.013478,0.00578 0.00578,0.00772 v 0.00578 h 0.00385 v 0.00578 h 0.00193 l 0.00387,0.00385 v 0.00578 h 0.00387 v 0.019282 h 0.00193 l -0.00193,0.3565744 -0.00387,0.00963 -0.00387,0.00772 -0.00193,0.00963 -0.03276,0.030826 -0.00385,0.00772 v 0.015434 h 0.00385 l 0.00387,0.00383 0.00578,0.00196 0.3122288,0.00387 v -0.00387 l 0.00576,-0.00576 0.00387,-0.0058 0.00196,-0.00963 h -0.00196 v -0.00772 l -0.00963,-0.00963 -0.013478,-0.00576 -0.00576,-0.0058 -0.00772,-0.00387 -0.00196,-0.00383 h -0.00387 v -0.0058 l -0.00576,-0.00576 h -0.00387 v -0.00772 h -0.00387 v -0.00963 h -0.00191 V 2.316903 h -0.00387 V 1.941056 h -0.00387 V 1.925643 h -0.00191 v -0.00576 h -0.00387 v -0.00965 h -0.00387 V 1.9006 l -0.00196,-0.00387 h -0.00383 V 1.89095 L 2.1115558,1.8871 h -0.00196 V 1.88132 l -0.00387,-0.00387 h -0.00387 V 1.87167 l -0.028891,-0.028912 -0.0058,-0.00385 -0.00383,-0.00387 -0.0058,-0.00193 -0.00387,-0.00385 -0.00576,-0.00387 -0.00387,-0.00193 -0.00566,-0.00383 -0.00387,-0.00385 -0.00963,-0.00193 -0.019282,-0.00963 -0.011565,-0.00387 -0.00963,-0.00385 -0.013499,-0.00193 H 1.89384 L 1.861059,1.800348 1.849494,1.804218 1.820582,1.813848 1.812862,1.815778 1.803232,1.819628 1.745408,1.84854 V 1.775303 H 1.743478 V 1.767583 H 1.739608 V 1.761803 L 1.735758,1.757933 1.729978,1.756023 H 1.704956 Z m -0.6167616,0.019261 -0.036629,0.00193 -0.025064,0.00772 -0.00963,0.00193 -0.025064,0.00772 -0.057824,0.028912 -0.0192816,0.019282 -0.007717,0.00193 -0.0211952,0.02313 -0.003869,0.00578 -0.003869,0.00387 -0.005782,0.013478 -0.003848,0.00193 -0.001934,0.00772 -0.003869,0.00193 -0.003869,0.0077 -0.001914,0.00193 -0.003848,0.00963 -0.003869,0.00772 -0.00963,0.028912 -0.001934,0.00578 -0.003848,0.00963 -0.009651,0.057824 -0.003848,0.090584 0.003848,0.00191 v 0.026978 h 0.003869 v 0.025064 H 0.82992 v 0.023109 h 0.003869 v 0.00967 h 0.003848 v 0.00963 h 0.001934 v 0.00963 h 0.003848 v 0.00963 h 0.003869 v 0.00967 h 0.001934 v 0.011544 h 0.003869 l 0.003848,0.00387 v 0.00576 h 0.001914 v 0.00772 h 0.003869 l 0.003869,0.00196 v 0.00768 h 0.001934 v 0.0058 h 0.003848 v 0.00576 h 0.003848 l 0.001934,0.00387 v 0.00576 h 0.003869 v 0.00772 h 0.003869 l 0.0115648,0.011586 v 0.00768 h 0.003869 l 0.025064,0.025064 v 0.0058 h 0.007717 l 0.005782,0.00768 0.005782,0.00196 0.007717,0.00768 0.005782,0.00196 0.005782,0.00772 0.007717,0.00191 0.001934,0.00387 0.0520416,0.025064 0.00963,0.00387 0.038542,0.00963 0.00963,0.00387 0.03276,0.00191 0.079019,0.00387 v -0.00387 l 0.038563,-0.00963 0.00963,-0.00191 0.0077,-0.00387 0.00963,-0.00387 0.00578,-0.00196 0.00963,-0.00383 0.00385,-0.00387 0.011565,-0.0058 0.00385,-0.00387 0.013499,-0.00576 0.00191,-0.00387 0.00772,-0.00191 0.011565,-0.013478 0.00772,-0.00387 0.044346,-0.044325 0.00385,-0.0058 0.00578,-0.00772 0.00387,-0.00576 0.00576,-0.00576 0.00387,-0.00772 0.00578,-0.00576 0.00387,-0.0058 0.00191,-0.00383 0.00385,-0.0058 0.00387,-0.00387 0.00193,-0.00576 0.00387,-0.00387 0.00578,-0.013478 0.00385,-0.00191 0.00578,-0.01352 0.00385,-0.00383 0.00387,-0.0058 0.00193,-0.013478 0.00385,-0.00576 h -0.00385 v -0.00963 l -0.00578,-0.0058 h -0.038542 l -0.042411,0.040498 -0.00576,0.00383 -0.013499,0.01352 -0.00578,0.00191 -0.00578,0.00772 -0.00772,0.00191 -0.00193,0.00387 -0.00772,0.00387 -0.00578,0.00576 -0.013499,0.0058 -0.00191,0.00387 -0.019282,0.00963 -0.019282,0.00576 -0.019261,0.00387 -0.017347,0.00387 -0.050107,0.00191 v -0.00191 L 1.1577072,2.3015824 1.1325184,2.288 1.1267568,2.2822384 1.11904,2.2783696 1.1074752,2.266784 h -0.00387 v -0.00772 l -0.00578,-0.00576 h -0.00385 v -0.00576 h -0.00385 v -0.00772 h -0.00193 v -0.0058 h -0.00387 v -0.00576 l -0.00387,-0.00387 h -0.00191 v -0.00963 h -0.00387 v -0.00963 h -0.00385 v -0.00963 h -0.00191 v -0.0058 l -0.00387,-0.00387 0.00963,-0.00387 0.025064,-0.011544 0.00965,-0.00387 0.026978,-0.013478 0.00963,-0.00196 0.025064,-0.013478 0.00963,-0.00387 0.025064,-0.011544 0.00963,-0.00387 0.026978,-0.013478 0.00963,-0.00196 0.025064,-0.013478 0.00963,-0.00387 0.025064,-0.011544 0.00963,-0.00387 0.026978,-0.013478 0.00963,-0.00196 0.025064,-0.013478 0.00963,-0.00387 0.013478,-0.00576 0.00193,-0.00387 0.00772,-0.00191 0.00191,-0.00387 0.00385,-0.0058 0.00387,-0.013478 0.00193,-0.00387 h -0.00193 V 1.987262 h -0.00387 v -0.00772 h -0.00385 v -0.00578 l -0.00578,-0.00578 h -0.00387 v -0.00963 h -0.00193 v -0.00772 h -0.00381 v -0.00959 h -0.00385 v -0.00576 h -0.00193 v -0.00578 h -0.00387 v -0.00963 h -0.00387 v -0.00774 l -0.00193,-0.00193 h -0.00385 v -0.0077 h -0.00387 v -0.00578 l -0.00193,-0.00387 h -0.00387 V 1.88708 l -0.00387,-0.00385 h -0.00191 V 1.87745 L 1.3579512,1.86782 H 1.35408 V 1.86204 L 1.329016,1.835062 1.321296,1.833132 1.309731,1.819654 1.296232,1.813874 1.292382,1.810004 1.261536,1.794591 1.232624,1.784961 1.219125,1.781111 1.203712,1.777241 1.18443,1.775311 Z m 1.3877344,0 -0.03665,0.00193 -0.011586,0.00387 -0.00963,0.00385 -0.013478,0.00193 -0.00963,0.00385 -0.013478,0.00387 -0.00963,0.00193 -0.011586,0.00772 -0.00387,0.00193 -0.032781,0.017326 -0.011544,0.011565 -0.00772,0.00387 -0.028933,0.028912 -0.00191,0.00578 -0.00387,0.00387 -0.00387,0.00578 -0.00191,0.00385 -0.00387,0.00578 -0.00387,0.00387 -0.00576,0.013478 -0.00387,0.00193 -0.00196,0.00963 -0.00387,0.00772 -0.00963,0.028912 -0.00387,0.00578 -0.00191,0.00963 -0.00963,0.057824 -0.00387,0.090584 0.00387,0.00191 v 0.026978 h 0.00191 v 0.025064 h 0.00387 v 0.023109 h 0.00387 v 0.00967 h 0.00191 v 0.00963 h 0.00387 v 0.00963 h 0.00387 v 0.011586 h 0.00196 v 0.00963 h 0.00383 v 0.00963 h 0.00387 v 0.00772 h 0.00196 l 0.00387,0.00191 v 0.00772 h 0.00387 v 0.0058 h 0.00191 V 2.288 h 0.00387 v 0.00772 h 0.00387 l 0.00191,0.00191 v 0.00772 h 0.00387 v 0.00576 h 0.00387 l 0.00191,0.00387 v 0.00576 h 0.00387 l 0.015434,0.015434 v 0.00772 h 0.00387 l 0.015392,0.015392 v 0.0058 h 0.00772 l 0.00191,0.00383 0.00772,0.00387 0.0058,0.0058 0.00576,0.00383 0.00772,0.0058 0.00576,0.00387 0.00576,0.00576 0.019302,0.00963 0.00963,0.00387 0.026978,0.011586 0.00963,0.00387 0.025064,0.00576 0.00963,0.00387 0.01352,0.00387 0.028891,0.00191 0.082867,0.00387 v -0.00387 l 0.038563,-0.00963 0.00576,-0.00191 0.00967,-0.00387 0.00768,-0.00387 0.00967,-0.00196 0.011544,-0.00768 0.00387,-0.00196 0.013478,-0.00772 0.00196,-0.00191 0.00772,-0.00387 0.00191,-0.00387 0.00772,-0.00191 0.00963,-0.00967 0.00576,-0.00383 0.048173,-0.048173 0.00387,-0.0058 0.0058,-0.00772 0.00383,-0.00576 0.0058,-0.00576 0.00387,-0.00772 0.00576,-0.00576 0.00387,-0.0058 0.00191,-0.00383 0.00387,-0.0058 0.00387,-0.00387 0.00196,-0.00576 0.00383,-0.00387 0.0058,-0.013478 0.00387,-0.00191 0.00576,-0.01352 0.00387,-0.00383 0.00387,-0.0058 0.00191,-0.00387 0.00387,-0.025022 -0.00576,-0.0058 H 2.799837 L 2.755512,2.234024 2.747792,2.237894 2.736206,2.24948 2.728526,2.25335 2.722726,2.25911 2.716966,2.26298 2.709246,2.26874 2.697702,2.27646 2.693832,2.27842 2.661051,2.295767 2.651421,2.297677 2.632119,2.301547 2.616727,2.305417 2.56273,2.307327 V 2.305417 L 2.5453792,2.3015408 2.5202528,2.288 2.5144528,2.28224 2.5067728,2.27837 2.4971028,2.2687 h -0.00191 V 2.26294 l -0.00963,-0.00963 h -0.00387 V 2.24755 h -0.00387 V 2.23983 h -0.00191 v -0.0058 h -0.00387 V 2.22827 L 2.4681728,2.2244 h -0.00196 V 2.21477 h -0.00387 V 2.20514 h -0.00383 V 2.19551 h -0.00196 v -0.0058 l -0.00387,-0.00387 0.00963,-0.00387 0.019302,-0.00963 0.00963,-0.00191 0.025064,-0.013478 0.00963,-0.00387 0.019261,-0.00967 0.00967,-0.00191 0.026978,-0.013478 0.00963,-0.00387 0.019261,-0.00963 0.00967,-0.00196 0.025022,-0.013478 0.00967,-0.00387 0.019261,-0.00963 0.00963,-0.00191 0.025064,-0.013478 0.00963,-0.00387 0.019302,-0.00963 0.00963,-0.00196 0.052042,-0.026978 0.00387,-0.00191 0.00191,-0.00772 0.00387,-0.00196 0.00387,-0.0077 0.00196,-0.015413 H 2.8132 V 1.983427 H 2.80933 V 1.977647 H 2.80546 v -0.0077 L 2.80355,1.968017 H 2.79968 V 1.958387 H 2.79581 V 1.950667 H 2.7939 V 1.941057 H 2.79003 V 1.935297 H 2.78616 V 1.929517 H 2.7842 V 1.919887 H 2.78037 V 1.912147 L 2.7765,1.910217 H 2.77454 v -0.0077 H 2.77067 V 1.896737 L 2.7668,1.892867 H 2.76489 V 1.88708 L 2.76102,1.88323 H 2.75715 V 1.87745 L 2.74752,1.86782 H 2.74561 V 1.86204 L 2.718591,1.835062 2.712831,1.833132 2.703201,1.823502 2.697441,1.819652 2.693571,1.815802 2.674269,1.806172 2.670399,1.804242 2.658855,1.796522 2.610641,1.781109 2.572119,1.775329 h -0.0962 z m 1.3491504,0.082867 -0.017347,0.00387 -0.048173,0.015413 -0.019261,0.00963 -0.00967,0.00385 -0.08865,0.044346 -0.00387,0.00385 -0.00576,0.00191 -0.00387,0.00387 -0.0058,0.00387 -0.00387,0.00193 -0.013478,0.00772 -0.015392,0.015413 -0.00387,0.00578 v 0.00963 h 0.00387 l 0.00387,0.00387 0.00963,0.00387 0.030826,0.00576 0.019261,0.00963 0.00772,0.0058 -0.00387,0.3180112 -0.00576,0.019261 -0.00387,0.00387 -0.00387,0.0058 -0.011544,0.013478 -0.00772,0.00383 -0.015434,0.015434 -0.00387,0.00963 v 0.00967 h 0.00387 l 0.00387,0.00383 0.00576,0.00196 0.3180528,0.00387 v -0.00387 l 0.00576,-0.00196 0.00387,-0.00383 0.00387,-0.015434 -0.00387,-0.00387 h -0.00387 v -0.00576 l -0.00576,-0.00387 -0.00387,-0.00387 -0.025064,-0.011586 -0.00963,-0.00963 h -0.0058 v -0.00772 h -0.00383 v -0.00576 h -0.00387 V 2.3342384 H 3.88284 V 1.8716672 l -0.00963,-0.00963 -0.00772,-0.00387 z m -2.6867776,0.032781 -0.030826,0.00193 -0.017347,0.00387 -0.025064,0.013478 -0.00385,0.00191 -0.00578,0.00387 L 1.04,1.9314256 1.0265216,1.9584032 1.0226528,1.969968 V 2.03164 h 0.00387 v 0.019261 h 0.00385 v 0.013478 h 0.00193 v 0.00967 l 0.00963,-0.00387 0.00772,-0.00387 0.00963,-0.00196 0.011565,-0.00768 0.00963,-0.00196 0.00772,-0.00387 0.00963,-0.00387 0.011586,-0.00576 0.00963,-0.00387 0.013478,-0.00576 0.00965,-0.00387 0.00576,-0.00191 0.00965,-0.00387 0.013478,-0.0058 0.00963,-0.00387 0.00578,-0.00385 0.00963,-0.00193 0.013499,-0.00772 0.00963,-0.00191 0.00578,-0.00387 h 0.00772 V 1.97948 h -0.00387 V 1.967915 h -0.00385 v -0.00963 h -0.00193 v -0.00963 h -0.00387 v -0.00761 h -0.00385 v -0.00576 l -0.00193,-0.00387 h -0.00385 v -0.00578 l -0.02313,-0.023109 -0.011565,-0.00578 -0.00965,-0.00387 -0.017347,-0.00193 z m 1.3877136,0 -0.030826,0.00193 -0.017347,0.00387 -0.025064,0.013478 -0.00387,0.00193 -0.00576,0.00387 -0.015434,0.015413 -0.013478,0.026978 -0.00387,0.011565 v 0.061672 h 0.00387 v 0.019261 h 0.00387 V 2.0644 h 0.00196 v 0.00967 l 0.00963,-0.00387 0.00772,-0.00387 0.00963,-0.00196 0.00576,-0.00387 0.00963,-0.00383 0.01352,-0.0058 0.00963,-0.00387 0.00576,-0.00191 0.00963,-0.00387 0.0058,-0.00387 0.00963,-0.00191 0.013478,-0.00772 0.00963,-0.00191 0.00576,-0.00387 0.00967,-0.00387 0.00768,-0.00196 0.00967,-0.00387 0.011544,-0.00576 0.00967,-0.00387 0.00768,-0.00387 0.00963,-0.00191 0.0058,-0.00387 h 0.00576 V 1.979461 h -0.00191 V 1.967896 h -0.00387 v -0.00963 h -0.00387 v -0.00772 h -0.00196 v -0.00951 h -0.00383 v -0.00576 l -0.0058,-0.00578 h -0.00387 v -0.00772 l -0.015392,-0.015434 -0.019302,-0.00963 -0.00963,-0.00387 -0.017347,-0.00193 h -0.00959 z M 0.4039568,2.02203 0.3846752,2.03166 0.3769792,2.03742 0.3711972,2.050898 0.3673282,2.075962 v 0.219734 h 0.003869 v 0.019261 h 0.003869 v 0.00576 H 0.377 l 0.003848,0.00387 v 0.0058 H 0.38663 l 0.003869,0.00383 0.005782,0.00196 0.0520416,0.00387 v -0.00387 l 0.005782,-0.00196 0.00963,-0.00383 0.0134784,-0.0058 0.003869,-0.00387 0.005782,-0.00387 0.0192816,-0.019261 0.003869,-0.00576 0.001872,-0.00383 0.003869,-0.00576 0.003848,-0.00387 0.00963,-0.019302 0.001934,-0.00963 0.003869,-0.00576 L 0.5388846,2.22824 0.5408,2.2147632 0.544648,2.1434192 H 0.5408 V 2.1318752 H 0.538866 V 2.1183972 H 0.535018 v -0.0058 H 0.531149 v -0.00768 H 0.529215 v -0.0058 H 0.525367 v -0.00576 H 0.521498 v -0.00772 L 0.519564,2.0837272 H 0.515716 v -0.00772 L 0.509934,2.0702472 H 0.506064 V 2.0644 L 0.4829344,2.041291 0.4771524,2.037421 0.4713704,2.031661 0.4636534,2.027791 0.4540234,2.025881 0.4482414,2.022011 H 0.4039568 Z"
     id="path4"
     style="clip-rule:evenodd;fill-rule:evenodd;stroke-width:0.0208" />
</svg>
