<?xml version="1.0" encoding="UTF-8" standalone="no"?>
<svg
   width="64.000809"
   height="63.999996"
   viewBox="-278.521 2.5 13.978315 13.974575"
   version="1.1"
   id="svg629"
   sodipodi:docname="logoSkoda.svg"
   inkscape:version="1.1.1 (3bf5ae0d25, 2021-09-20)"
   xmlns:inkscape="http://www.inkscape.org/namespaces/inkscape"
   xmlns:sodipodi="http://sodipodi.sourceforge.net/DTD/sodipodi-0.dtd"
   xmlns:xlink="http://www.w3.org/1999/xlink"
   xmlns="http://www.w3.org/2000/svg"
   xmlns:svg="http://www.w3.org/2000/svg">
  <defs
     id="defs633" />
  <sodipodi:namedview
     id="namedview631"
     pagecolor="#ffffff"
     bordercolor="#666666"
     borderopacity="1.0"
     inkscape:pageshadow="2"
     inkscape:pageopacity="0.0"
     inkscape:pagecheckerboard="0"
     showgrid="false"
     fit-margin-top="0"
     fit-margin-left="5.075"
     fit-margin-right="5.075"
     fit-margin-bottom="0"
     inkscape:zoom="6.2092862"
     inkscape:cx="38.088114"
     inkscape:cy="34.545034"
     inkscape:window-width="1360"
     inkscape:window-height="745"
     inkscape:window-x="-8"
     inkscape:window-y="-8"
     inkscape:window-maximized="1"
     inkscape:current-layer="svg629" />
  <g
     transform="matrix(1.25766,0,0,-1.25761,-597.04758,314.83422)"
     id="g555">
    <defs
       id="defs550">
      <path
         id="a"
         d="M 85.721,183.017 C 74.993,178.48 65.36,171.983 57.086,163.711 48.813,155.438 42.317,145.804 37.782,135.077 c -4.697,-11.105 -7.079,-22.902 -7.079,-35.064 0,-12.16 2.382,-23.958 7.079,-35.061 4.535,-10.727 11.031,-20.362 19.304,-28.633 8.274,-8.275 17.907,-14.77 28.635,-19.307 11.105,-4.697 22.901,-7.081 35.063,-7.081 12.16,0 23.957,2.384 35.061,7.081 10.727,4.536 20.362,11.032 28.634,19.307 8.274,8.271 14.768,17.906 19.305,28.633 4.699,11.103 7.081,22.902 7.081,35.061 0,12.162 -2.381,23.959 -7.081,35.064 -4.537,10.727 -11.031,20.361 -19.305,28.634 -8.272,8.272 -17.907,14.769 -28.634,19.306 -11.104,4.697 -22.901,7.078 -35.061,7.078 -12.162,0 -23.958,-2.381 -35.063,-7.078 M 62.943,42.175 c -15.449,15.45 -23.958,35.991 -23.958,57.838 0,21.851 8.509,42.392 23.958,57.841 15.45,15.45 35.99,23.958 57.842,23.958 21.848,0 42.39,-8.508 57.84,-23.958 15.448,-15.45 23.957,-35.99 23.957,-57.841 0,-21.847 -8.509,-42.389 -23.957,-57.838 -15.45,-15.45 -35.992,-23.959 -57.84,-23.959 -21.852,0 -42.392,8.509 -57.842,23.959" />
    </defs>
    <clipPath
       id="b">
      <use
         xlink:href="#a"
         overflow="visible"
         id="use552"
         x="0"
         y="0"
         width="100%"
         height="100%" />
    </clipPath>
  </g>
  <g
     id="g754"
     transform="matrix(0.04438307,0,0,0.04438307,-277.52354,2.3873056)">
    <path
       d="m 16.337,3.457 4.829,5.51 c 0.263,0.316 0.53,0.426 0.952,0.426 H 32.25 c 0.427,0 0.691,-0.11 0.954,-0.426 l 4.83,-5.51 C 38.456,2.975 38.299,2.499 37.609,2.499 h -6.837 c -0.431,0 -0.699,0.158 -0.963,0.476 l -2.065,2.974 h -1.12 L 24.559,2.975 C 24.295,2.658 24.03,2.5 23.553,2.5 h -6.789 c -0.695,0 -0.843,0.475 -0.426,0.957 m 89.394,27.681 v 0.532 c 0,18.507 3.033,19.627 25.251,19.627 22.225,0 25.249,-1.12 25.249,-19.684 v -0.475 c 0,-18.506 -3.024,-19.622 -25.249,-19.622 -22.218,0 -25.25,1.116 -25.25,19.622 M 103.482,49.544 82.369,28.91 102.203,13.264 c 0.588,-0.423 0.369,-0.954 -0.371,-0.954 H 88.889 c -0.369,0 -0.636,0.105 -0.953,0.37 L 67.676,28.862 V 13.106 c 0,-0.528 -0.265,-0.796 -0.796,-0.796 h -9.865 c -0.531,0 -0.799,0.27 -0.799,0.796 v 36.596 c 0,0.531 0.268,0.795 0.8,0.795 h 9.865 c 0.53,0 0.795,-0.265 0.795,-0.795 V 40.475 L 73.668,35.752 88.2,50.075 c 0.32,0.316 0.584,0.422 1.005,0.422 h 13.9 c 0.69,0.002 0.904,-0.475 0.376,-0.953 m 81.93,-37.234 h -21.16 c -0.527,0 -0.801,0.27 -0.801,0.796 v 36.596 c 0,0.531 0.274,0.795 0.8,0.795 h 21.163 c 22.652,0 25.619,-1.117 25.619,-18.937 v -0.315 c 0,-17.822 -2.968,-18.935 -25.62,-18.935 m 81.976,37.234 -18.298,-36.65 c -0.16,-0.421 -0.481,-0.584 -0.903,-0.584 H 231.96 c -0.432,0 -0.748,0.163 -0.907,0.585 l -18.299,36.649 c -0.269,0.585 -0.049,0.953 0.579,0.953 h 10.558 c 0.422,0 0.744,-0.158 0.9,-0.584 l 2.762,-5.41 h 25.037 l 2.754,5.41 c 0.164,0.426 0.479,0.584 0.907,0.584 h 10.552 c 0.637,0.002 0.85,-0.368 0.584,-0.953 M 143.924,31.138 v 0.532 c 0,10.715 -0.424,10.874 -12.942,10.874 -12.518,0 -12.945,-0.158 -12.945,-10.874 v -0.532 c 0,-10.713 0.427,-10.87 12.945,-10.87 12.518,0 12.942,0.157 12.942,10.87 m 55.07,0 v 0.532 c 0,9.81 -0.8,10.131 -13.525,10.131 H 174.968 V 21.006 h 10.5 c 12.726,0 13.527,0.321 13.527,10.132 m 49.562,5.36 h -16.973 l 7.799,-15.44 h 1.38 z M 3.77,50.554 c 5.623,0.259 14.793,0.523 20.091,0.523 23.13,0 25.89,-0.048 25.89,-12.618 0,-9.918 -2.913,-10.713 -15.167,-11.081 L 20.37,26.95 c -6.52,-0.215 -6.63,-0.9 -6.63,-3.818 0,-3.023 0.796,-3.023 16.442,-3.023 2.965,0 12.408,0.158 17.4,0.264 0.522,0 0.795,-0.264 0.795,-0.796 v -6.472 c 0,-0.528 -0.273,-0.796 -0.748,-0.844 C 42.695,11.99 34.638,11.726 28.855,11.726 6.156,11.726 2.5,12.153 2.5,23.87 c 0,10.027 2.223,11.354 16.755,11.833 l 13.044,0.422 c 6.103,0.21 6.213,0.952 6.213,3.233 0,3.133 -0.267,3.29 -14.698,3.29 -6.735,0 -13.682,-0.264 -19.992,-0.48 -0.53,-0.052 -0.794,0.216 -0.794,0.743 V 49.7 c 0,0.533 0.264,0.799 0.743,0.854"
       fill="#141414"
       id="path547" />
    <g
       transform="matrix(0.70667,0,0,0.70667,0.733,1.192)"
       id="g572">
      <linearGradient
         id="c"
         gradientUnits="userSpaceOnUse"
         x1="-4062.365"
         y1="275.14099"
         x2="-3788.2739"
         y2="275.14099"
         gradientTransform="matrix(-0.0029,-0.8327,-0.8275,0.0029,406.56,-2936.028)">
        <stop
           offset="0"
           stop-color="#99a2a7"
           id="stop557" />
        <stop
           offset=".476"
           stop-color="#98a3a8"
           id="stop559" />
        <stop
           offset=".535"
           stop-color="#e6e6e6"
           id="stop561" />
        <stop
           offset="1"
           stop-color="#e6e6e6"
           id="stop563" />
      </linearGradient>
      <path
         d="m 189.445,125.191 c 88.874,-0.305 161.171,71.493 161.478,160.367 0.305,88.874 -71.493,161.171 -160.368,161.477 C 101.68,447.342 29.385,375.544 29.078,286.669 28.772,197.793 100.571,125.497 189.445,125.191 Z"
         fill="url(#c)"
         stroke="#141414"
         stroke-width="0.971"
         stroke-linecap="square"
         id="path566"
         style="fill:url(#c)" />
      <path
         d="m 190.002,430.606 c -38.598,0 -74.885,-15.027 -102.177,-42.322 C 60.532,360.995 45.5,324.705 45.5,286.115 c 0,-38.602 15.032,-74.887 42.325,-102.176 27.292,-27.294 63.579,-42.323 102.177,-42.323 38.599,0 74.885,15.029 102.177,42.323 27.294,27.29 42.32,63.574 42.32,102.176 0,38.59 -15.028,74.875 -42.32,102.17 -27.292,27.294 -63.578,42.321 -102.177,42.321"
         fill="#141414"
         id="path568" />
      <path
         d="m 190.002,418.879 c -35.466,0 -68.807,-13.81 -93.883,-38.886 -25.08,-25.078 -38.89,-58.42 -38.89,-93.879 0,-35.465 13.81,-68.806 38.89,-93.883 25.076,-25.075 58.417,-38.889 93.883,-38.889 35.466,0 68.807,13.814 93.884,38.889 25.08,25.077 38.89,58.42 38.89,93.883 0,35.461 -13.81,68.803 -38.89,93.88 -25.077,25.075 -58.418,38.885 -93.884,38.885"
         fill="#ffffff"
         id="path570" />
    </g>
    <g
       transform="matrix(0.70667,0,0,0.70667,0.733,1.192)"
       id="g627">
      <linearGradient
         id="d"
         gradientUnits="userSpaceOnUse"
         x1="-3171.2051"
         y1="1243.351"
         x2="-3054.946"
         y2="1136.9771"
         gradientTransform="matrix(1.3002,0,0,1.3002,4211.574,-1235.162)">
        <stop
           offset="0"
           stop-color="#151313"
           id="stop574" />
        <stop
           offset=".085"
           stop-color="#151313"
           id="stop576" />
        <stop
           offset=".128"
           stop-color="#f8f1f1"
           id="stop578" />
        <stop
           offset=".229"
           stop-color="#151313"
           id="stop580" />
        <stop
           offset=".304"
           stop-color="#141414"
           id="stop582" />
        <stop
           offset=".382"
           stop-color="#f8f1f1"
           id="stop584" />
        <stop
           offset=".45"
           stop-color="#151313"
           id="stop586" />
        <stop
           offset=".566"
           stop-color="#f8f1f4"
           id="stop588" />
        <stop
           offset=".627"
           stop-color="#141414"
           id="stop590" />
        <stop
           offset=".787"
           stop-color="#f8f1f1"
           id="stop592" />
        <stop
           offset="1"
           stop-color="#f8f1f2"
           id="stop594" />
      </linearGradient>
      <path
         d="m 290.795,349.896 c -9.817,-9.212 -22.191,-15.373 -35.673,-17.526 a 3.177,3.177 0 0 0 -3.665,3.134 v 4.893 c 0,1.455 -1.113,3.104 -2.573,3.104 -1.059,0 -2.117,0.029 -3.181,0 -3.759,-0.058 -4.441,-4.676 -3.688,-7.396 8.014,-28.737 9.973,-46.169 9.879,-58.86 -0.1,-13.492 -0.437,-26.932 -6.517,-44.726 -5.859,-17.117 -11.207,-33.877 -39.498,-59.492 -1.921,-1.732 -3.864,-2.573 -6.452,-2.76 -2.782,-0.193 -5.056,-0.292 -7.887,-0.292 -11.744,0 -23.079,1.723 -33.79,4.938 -4.009,1.211 -3.408,3.999 -1.204,5.899 10.679,9.136 25.161,22.868 35.151,40.021 -6.325,0.614 -11.159,-2.905 -15.223,-6.799 -13.352,-12.708 -27.254,-21.77 -38.297,-27.972 -1.924,-1.077 -3.818,-1.527 -5.723,-0.433 -12.172,7.078 -20.374,13.736 -30.037,24.944 -1.644,1.906 -0.58,3.39 1.028,4.243 10.564,5.602 27.107,16.229 42.278,30.031 -3.091,2.602 -7.992,1.748 -15.094,-1.975 -13.65,-7.172 -26.774,-11.3 -36.789,-13.879 -2.145,-0.549 -4.443,0.052 -5.548,1.971 -6.413,11.142 -10.838,24.47 -12.931,37.985 -0.398,2.597 1.369,4.893 3.958,5.344 23.344,4.085 64.955,15.059 71.866,62.994 0.596,4.197 -3.222,7.887 -8.249,5.525 -7.016,-3.286 -14.025,-6.565 -21.034,-9.856 -0.737,-0.34 -1.573,-0.632 -2.38,-0.632 H 86.458 c -4.701,0 -6.636,4.495 -3.579,7.997 7.95,9.154 15.241,19.032 21.478,29.504 0.551,0.929 1.182,1.285 2.263,1.285 h 14.435 a 5.01,5.01 0 0 0 2.671,-0.731 c 4.536,-2.66 9.073,-5.313 13.62,-7.972 0.842,-0.503 1.683,-0.493 2.667,-0.493 h 108.8 c 1.461,0 2.644,0.942 2.644,2.405 v 5.354 c 0,1.947 1.741,3.426 3.665,3.129 13.481,-2.153 25.856,-8.314 35.673,-17.52 a 3.683,3.683 0 0 0 0,-5.386"
         fill="url(#d)"
         stroke="#141414"
         stroke-width="1.139"
         id="path597"
         style="fill:url(#d)" />
      <path
         d="m 209.74,334.229 c -10.718,0 -19.392,-8.68 -19.392,-19.377 0,-10.71 8.674,-19.386 19.392,-19.386 10.69,0 19.38,8.676 19.38,19.386 0,10.697 -8.69,19.377 -19.38,19.377 z m 71.249,18.345 c -7.36,-6.003 -15.118,-9.885 -24.54,-11.838 -0.854,-0.176 -1.269,0.152 -1.269,1.03 v 0.473 c 0,2.315 -2.316,5.011 -4.643,5.011 h -6.119 c -5.168,0 -9.781,-4.256 -7.869,-11.091 22.116,-78.923 -2.595,-127.723 -33.802,-155.041 -8.477,-7.406 -9.237,-7.816 -17.685,-7.494 -6.658,0.252 -14.462,1.07 -21.062,2.671 -1.298,0.315 -2.38,1.345 -0.666,2.783 16.018,13.497 37.432,36.763 47.674,72.978 0.352,1.258 -0.391,1.17 -1.35,1.223 -9.173,0.554 -12.263,-5.063 -15.129,-8.636 -20.794,-25.879 -44.108,-41.621 -61.559,-51.963 -1.736,-1.041 -2.017,-1.023 -3.339,-0.25 -7.015,4.05 -14.889,10.516 -20.437,16.398 -1.157,1.245 -0.865,1.828 0.415,2.512 15.784,8.46 39.789,25.125 62.096,53.384 1.386,1.748 1.481,2.554 0.696,3.017 -4.291,2.555 -11.452,2.519 -19.296,-2.367 -21.269,-13.265 -42.87,-22.659 -59.771,-27.529 -1.801,-0.525 -2.116,-0.42 -2.852,1.123 -4.122,8.663 -8.612,19.923 -10.231,29.685 -0.205,1.274 -0.316,1.374 0.865,1.613 46.511,9.447 72.03,34.959 74.94,69.063 0.509,5.916 -6.184,11.614 -12.844,9.51 -7.232,-2.297 -14.252,-4.875 -21.489,-7.167 a 7.461,7.461 0 0 0 -2.386,-0.369 c -9.996,-0.006 -20.005,-0.011 -30.013,-0.011 -1.333,0 -2.116,0.836 -0.79,2.514 7.553,9.553 11.944,14.966 17.269,23.899 0.544,0.929 1.175,1.285 2.269,1.285 3.671,0 7.354,-0.007 11.043,-0.007 1.461,0 2.712,-0.337 3.981,-1.086 4.005,-2.345 7.985,-4.531 11.99,-6.881 1.273,-0.748 2.362,-1.198 3.834,-1.198 36.316,-0.012 75.24,0 111.549,-0.007 2.315,0 4.712,2.707 4.712,5.039 v 0.803 c 0,0.875 0.415,1.204 1.269,1.034 9.422,-1.953 17.18,-6.477 24.54,-12.48 0.665,-0.551 0.665,-1.077 -0.001,-1.633"
         fill="#42bd3b"
         id="path599" />
      <g
         transform="matrix(1.42377,0,0,1.42371,-24.958,-18.774)"
         id="g623">
        <linearGradient
           id="e"
           gradientUnits="userSpaceOnUse"
           x1="-2061.553"
           y1="426.86801"
           x2="-2049.998"
           y2="406.09799"
           gradientTransform="matrix(0.9955,-0.1456,-0.1456,-0.9955,2277.006,357.99)">
          <stop
             offset="0"
             stop-color="#151313"
             id="stop601" />
          <stop
             offset=".163"
             stop-color="#ccc4c4"
             id="stop603" />
          <stop
             offset=".496"
             stop-color="#b7acad"
             id="stop605" />
          <stop
             offset="1"
             stop-color="#151313"
             id="stop607" />
        </linearGradient>
        <path
           d="m 179.035,232.781 c 1.229,8.398 -4.583,16.19 -12.981,17.418 -8.39,1.228 -16.189,-4.574 -17.417,-12.972 -1.229,-8.397 4.582,-16.198 12.972,-17.425 8.397,-1.228 16.197,4.582 17.426,12.979"
           fill="url(#e)"
           id="path610"
           style="fill:url(#e)" />
        <linearGradient
           id="f"
           gradientUnits="userSpaceOnUse"
           x1="-2638.197"
           y1="594.224"
           x2="-2622.0859"
           y2="577.45801"
           gradientTransform="matrix(-0.9189,-0.4098,0.4097,-0.9189,-2498.7,-300.918)">
          <stop
             offset="0"
             stop-color="#151313"
             id="stop612" />
          <stop
             offset=".25"
             stop-color="#ccc4c4"
             id="stop614" />
          <stop
             offset=".5"
             stop-color="#b7acad"
             id="stop616" />
          <stop
             offset="1"
             stop-color="#151313"
             id="stop618" />
        </linearGradient>
        <path
           d="m 166.299,219.828 -4.618,30.395 c 6.616,0.943 13.325,-2.556 16.184,-8.968 3.457,-7.752 -0.021,-16.823 -7.766,-20.277 a 15.375,15.375 0 0 0 -3.8,-1.15 z"
           fill="url(#f)"
           id="path621"
           style="fill:url(#f)" />
      </g>
      <path
         d="m 226.768,315.243 c 0,8.084 -6.564,14.655 -14.668,14.655 -8.095,0 -14.648,-6.571 -14.648,-14.655 0,-8.102 6.553,-14.668 14.648,-14.668 8.104,0 14.668,6.566 14.668,14.668"
         fill="#ffffff"
         stroke="#141414"
         stroke-width="1.139"
         id="path625" />
    </g>
  </g>
</svg>
