<?xml version="1.0" encoding="UTF-8" standalone="no"?>
<svg
   width="64.00074"
   height="64.006004"
   viewBox="0 0 7.2567879 7.2564247"
   version="1.1"
   id="svg232"
   sodipodi:docname="logoToyota.svg"
   inkscape:version="1.1.1 (3bf5ae0d25, 2021-09-20)"
   xmlns:inkscape="http://www.inkscape.org/namespaces/inkscape"
   xmlns:sodipodi="http://sodipodi.sourceforge.net/DTD/sodipodi-0.dtd"
   xmlns="http://www.w3.org/2000/svg"
   xmlns:svg="http://www.w3.org/2000/svg">
  <defs
     id="defs236" />
  <sodipodi:namedview
     id="namedview234"
     pagecolor="#ffffff"
     bordercolor="#666666"
     borderopacity="1.0"
     inkscape:pageshadow="2"
     inkscape:pageopacity="0.0"
     inkscape:pagecheckerboard="0"
     showgrid="false"
     fit-margin-top="11.98"
     fit-margin-left="0"
     fit-margin-right="0"
     fit-margin-bottom="11.98"
     inkscape:zoom="1.086324"
     inkscape:cx="100.79866"
     inkscape:cy="40.043304"
     inkscape:window-width="1360"
     inkscape:window-height="745"
     inkscape:window-x="-8"
     inkscape:window-y="-8"
     inkscape:window-maximized="1"
     inkscape:current-layer="svg232" />
  <linearGradient
     id="a"
     gradientUnits="userSpaceOnUse"
     x1="-907.03497"
     y1="1209.688"
     x2="-907.03497"
     y2="1300.343"
     gradientTransform="matrix(1,0,0,-1,1045.93,1353.947)">
    <stop
       offset="0"
       stop-color="#f0f3f5"
       id="stop8" />
    <stop
       offset=".056"
       stop-color="#e2e5e8"
       id="stop10" />
    <stop
       offset=".138"
       stop-color="#d4d8dd"
       id="stop12" />
    <stop
       offset=".242"
       stop-color="#ccd0d6"
       id="stop14" />
    <stop
       offset=".44"
       stop-color="#caced4"
       id="stop16" />
    <stop
       offset=".568"
       stop-color="#b3b7bd"
       id="stop18" />
    <stop
       offset=".835"
       stop-color="#797c83"
       id="stop20" />
    <stop
       offset="1"
       stop-color="#52545c"
       id="stop22" />
  </linearGradient>
  <linearGradient
     id="b"
     gradientUnits="userSpaceOnUse"
     x1="-907.03101"
     y1="1278.762"
     x2="-907.03101"
     y2="1327.886"
     gradientTransform="matrix(1,0,0,-1,1045.93,1353.947)">
    <stop
       offset="0"
       stop-color="#f0f3f5"
       id="stop27" />
    <stop
       offset=".056"
       stop-color="#e2e5e8"
       id="stop29" />
    <stop
       offset=".138"
       stop-color="#d4d8dd"
       id="stop31" />
    <stop
       offset=".242"
       stop-color="#ccd0d6"
       id="stop33" />
    <stop
       offset=".44"
       stop-color="#caced4"
       id="stop35" />
    <stop
       offset=".568"
       stop-color="#b3b7bd"
       id="stop37" />
    <stop
       offset=".835"
       stop-color="#797c83"
       id="stop39" />
    <stop
       offset="1"
       stop-color="#52545c"
       id="stop41" />
  </linearGradient>
  <linearGradient
     id="c"
     gradientUnits="userSpaceOnUse"
     x1="-890.724"
     y1="1287.791"
     x2="-921.39697"
     y2="1313.5291"
     gradientTransform="matrix(1,0,0,-1,1045.93,1353.947)">
    <stop
       offset="0"
       stop-color="#f0f3f5"
       id="stop46" />
    <stop
       offset=".056"
       stop-color="#e2e5e8"
       id="stop48" />
    <stop
       offset=".138"
       stop-color="#d4d8dd"
       id="stop50" />
    <stop
       offset=".242"
       stop-color="#ccd0d6"
       id="stop52" />
    <stop
       offset=".44"
       stop-color="#caced4"
       id="stop54" />
    <stop
       offset=".568"
       stop-color="#b3b7bd"
       id="stop56" />
    <stop
       offset=".835"
       stop-color="#797c83"
       id="stop58" />
    <stop
       offset="1"
       stop-color="#52545c"
       id="stop60" />
  </linearGradient>
  <linearGradient
     id="d"
     gradientUnits="userSpaceOnUse"
     x1="-887.604"
     y1="1244.974"
     x2="-932.33099"
     y2="1270.797"
     gradientTransform="matrix(1,0,0,-1,1045.93,1353.947)">
    <stop
       offset="0"
       stop-color="#f0f3f5"
       id="stop65" />
    <stop
       offset=".056"
       stop-color="#e2e5e8"
       id="stop67" />
    <stop
       offset=".138"
       stop-color="#d4d8dd"
       id="stop69" />
    <stop
       offset=".242"
       stop-color="#ccd0d6"
       id="stop71" />
    <stop
       offset=".44"
       stop-color="#caced4"
       id="stop73" />
    <stop
       offset=".568"
       stop-color="#b3b7bd"
       id="stop75" />
    <stop
       offset=".835"
       stop-color="#797c83"
       id="stop77" />
    <stop
       offset="1"
       stop-color="#52545c"
       id="stop79" />
  </linearGradient>
  <linearGradient
     id="e"
     gradientUnits="userSpaceOnUse"
     x1="-922.72601"
     y1="1351.951"
     x2="-922.72601"
     y2="1274.035"
     gradientTransform="matrix(1,0,0,-1,1045.93,1353.947)">
    <stop
       offset="0"
       stop-color="#f0f3f5"
       id="stop84" />
    <stop
       offset=".056"
       stop-color="#e2e5e8"
       id="stop86" />
    <stop
       offset=".138"
       stop-color="#d4d8dd"
       id="stop88" />
    <stop
       offset=".242"
       stop-color="#ccd0d6"
       id="stop90" />
    <stop
       offset=".44"
       stop-color="#caced4"
       id="stop92" />
    <stop
       offset=".568"
       stop-color="#b3b7bd"
       id="stop94" />
    <stop
       offset=".835"
       stop-color="#797c83"
       id="stop96" />
    <stop
       offset="1"
       stop-color="#52545c"
       id="stop98" />
  </linearGradient>
  <linearGradient
     id="f"
     gradientUnits="userSpaceOnUse"
     x1="-891.34399"
     y1="1351.951"
     x2="-891.34399"
     y2="1274.035"
     gradientTransform="matrix(1,0,0,-1,1045.93,1353.947)">
    <stop
       offset="0"
       stop-color="#f0f3f5"
       id="stop103" />
    <stop
       offset=".056"
       stop-color="#e2e5e8"
       id="stop105" />
    <stop
       offset=".138"
       stop-color="#d4d8dd"
       id="stop107" />
    <stop
       offset=".242"
       stop-color="#ccd0d6"
       id="stop109" />
    <stop
       offset=".44"
       stop-color="#caced4"
       id="stop111" />
    <stop
       offset=".568"
       stop-color="#b3b7bd"
       id="stop113" />
    <stop
       offset=".835"
       stop-color="#797c83"
       id="stop115" />
    <stop
       offset="1"
       stop-color="#52545c"
       id="stop117" />
  </linearGradient>
  <linearGradient
     id="g"
     gradientUnits="userSpaceOnUse"
     x1="-890.39301"
     y1="1352.606"
     x2="-890.39301"
     y2="1222.572"
     gradientTransform="matrix(1,0,0,-1,1045.93,1353.947)">
    <stop
       offset="0"
       stop-color="#f0f3f5"
       id="stop122" />
    <stop
       offset=".056"
       stop-color="#e2e5e8"
       id="stop124" />
    <stop
       offset=".138"
       stop-color="#d4d8dd"
       id="stop126" />
    <stop
       offset=".242"
       stop-color="#ccd0d6"
       id="stop128" />
    <stop
       offset=".44"
       stop-color="#caced4"
       id="stop130" />
    <stop
       offset=".568"
       stop-color="#b3b7bd"
       id="stop132" />
    <stop
       offset=".835"
       stop-color="#797c83"
       id="stop134" />
    <stop
       offset="1"
       stop-color="#52545c"
       id="stop136" />
  </linearGradient>
  <linearGradient
     id="h"
     gradientUnits="userSpaceOnUse"
     x1="-923.67499"
     y1="1352.606"
     x2="-923.67499"
     y2="1222.572"
     gradientTransform="matrix(1,0,0,-1,1045.93,1353.947)">
    <stop
       offset="0"
       stop-color="#f0f3f5"
       id="stop141" />
    <stop
       offset=".056"
       stop-color="#e2e5e8"
       id="stop143" />
    <stop
       offset=".138"
       stop-color="#d4d8dd"
       id="stop145" />
    <stop
       offset=".242"
       stop-color="#ccd0d6"
       id="stop147" />
    <stop
       offset=".44"
       stop-color="#caced4"
       id="stop149" />
    <stop
       offset=".568"
       stop-color="#b3b7bd"
       id="stop151" />
    <stop
       offset=".835"
       stop-color="#797c83"
       id="stop153" />
    <stop
       offset="1"
       stop-color="#52545c"
       id="stop155" />
  </linearGradient>
  <linearGradient
     id="i"
     gradientUnits="userSpaceOnUse"
     x1="-907.03802"
     y1="1351.944"
     x2="-907.03802"
     y2="1192.832"
     gradientTransform="matrix(1,0,0,-1,1045.93,1353.947)">
    <stop
       offset="0"
       stop-color="#f0f3f5"
       id="stop162" />
    <stop
       offset=".253"
       stop-color="#edf0f3"
       id="stop164" />
    <stop
       offset=".406"
       stop-color="#e5e8ea"
       id="stop166" />
    <stop
       offset=".531"
       stop-color="#d7dadc"
       id="stop168" />
    <stop
       offset=".642"
       stop-color="#c3c5c9"
       id="stop170" />
    <stop
       offset=".744"
       stop-color="#a9abaf"
       id="stop172" />
    <stop
       offset=".839"
       stop-color="#888b90"
       id="stop174" />
    <stop
       offset=".926"
       stop-color="#63656b"
       id="stop176" />
    <stop
       offset="1"
       stop-color="#3d3f46"
       id="stop178" />
  </linearGradient>
  <linearGradient
     id="j"
     gradientUnits="userSpaceOnUse"
     x1="-907.03003"
     y1="1351.952"
     x2="-907.03003"
     y2="1192.83"
     gradientTransform="matrix(1,0,0,-1,1045.93,1353.947)">
    <stop
       offset="0"
       stop-color="#f0f3f5"
       id="stop183" />
    <stop
       offset=".253"
       stop-color="#edf0f3"
       id="stop185" />
    <stop
       offset=".406"
       stop-color="#e5e8ea"
       id="stop187" />
    <stop
       offset=".531"
       stop-color="#d7dadc"
       id="stop189" />
    <stop
       offset=".642"
       stop-color="#c3c5c9"
       id="stop191" />
    <stop
       offset=".744"
       stop-color="#a9abaf"
       id="stop193" />
    <stop
       offset=".839"
       stop-color="#888b90"
       id="stop195" />
    <stop
       offset=".926"
       stop-color="#63656b"
       id="stop197" />
    <stop
       offset="1"
       stop-color="#3d3f46"
       id="stop199" />
  </linearGradient>
  <linearGradient
     id="k"
     gradientUnits="userSpaceOnUse"
     x1="-907.034"
     y1="1351.9351"
     x2="-907.034"
     y2="1192.817"
     gradientTransform="matrix(1,0,0,-1,1045.93,1353.947)">
    <stop
       offset="0"
       stop-color="#f0f3f5"
       id="stop204" />
    <stop
       offset=".253"
       stop-color="#edf0f3"
       id="stop206" />
    <stop
       offset=".406"
       stop-color="#e5e8ea"
       id="stop208" />
    <stop
       offset=".531"
       stop-color="#d7dadc"
       id="stop210" />
    <stop
       offset=".642"
       stop-color="#c3c5c9"
       id="stop212" />
    <stop
       offset=".744"
       stop-color="#a9abaf"
       id="stop214" />
    <stop
       offset=".839"
       stop-color="#888b90"
       id="stop216" />
    <stop
       offset=".926"
       stop-color="#63656b"
       id="stop218" />
    <stop
       offset="1"
       stop-color="#3d3f46"
       id="stop220" />
  </linearGradient>
  <linearGradient
     id="l"
     gradientUnits="userSpaceOnUse"
     x1="-907.03302"
     y1="1318.944"
     x2="-907.03302"
     y2="1273.5959"
     gradientTransform="matrix(1,0,0,-1,1045.93,1353.947)">
    <stop
       offset="0"
       stop-color="#caced4"
       id="stop225" />
    <stop
       offset="1"
       stop-color="#52545c"
       id="stop227" />
  </linearGradient>
  <g
     id="g333"
     transform="matrix(0.02783578,0,0,0.02783578,-0.23791241,1.3580639)">
    <path
       d="m 8.547,81.561 c 0,44.972 58.476,81.562 130.35,81.562 71.873,0 130.35,-36.59 130.35,-81.562 C 269.246,36.585 210.77,0 138.896,0 67.022,0 8.547,36.585 8.547,81.561 Z m 4,0 c 0,-42.762 56.679,-77.554 126.35,-77.554 69.669,0 126.35,34.792 126.35,77.554 0,42.771 -56.681,77.562 -126.35,77.562 -69.671,-10e-4 -126.35,-34.79 -126.35,-77.562 z"
       id="path4" />
    <path
       d="M 126.58,14.827 C 96.072,16.69 73.913,24.776 70.136,35.429 a 9.999,9.999 0 0 0 -0.586,3.345 c 0,1.797 0.508,3.594 1.516,5.312 4.234,7.214 17.377,13.163 36.08,16.354 l 1.98,0.324 0.332,-1.978 c 3.07,-18.727 9.809,-33.453 18.496,-40.406 l 4.922,-3.944 z M 74.519,42.069 c -0.652,-1.109 -0.973,-2.203 -0.973,-3.281 0,-0.68 0.117,-1.344 0.359,-2.02 2.883,-8.138 22.468,-15.246 47.487,-17.539 -7.137,8.073 -12.625,21.082 -15.488,36.887 C 89.646,53.108 77.956,47.928 74.519,42.069 Z m -4.383,-6.641 z m 50.866,24.555 -0.391,2.176 2.207,0.168 c 5.234,0.391 10.645,0.602 16.074,0.602 5.434,0 10.848,-0.211 16.083,-0.602 l 2.203,-0.168 -0.392,-2.176 c -3.009,-16.898 -9.703,-26.992 -17.891,-26.992 -8.194,0 -14.885,10.094 -17.893,26.992 z m 17.894,-22.992 c 5.598,0 10.766,8.383 13.489,21.469 -4.427,0.289 -8.936,0.469 -13.493,0.469 -4.551,0 -9.062,-0.18 -13.484,-0.469 2.715,-13.086 7.891,-21.469 13.488,-21.469 z m 10.938,-18.609 c 8.684,6.953 15.43,21.681 18.5,40.406 l 0.328,1.978 1.977,-0.324 c 18.711,-3.191 31.861,-9.142 36.08,-16.355 1.641,-2.772 1.953,-5.766 0.938,-8.655 C 203.881,24.78 181.721,16.694 151.215,14.829 l -6.288,-0.391 z m 6.574,0.847 c 25.012,2.293 44.596,9.414 47.471,17.539 0.25,0.676 0.367,1.34 0.367,2.02 0,1.078 -0.328,2.172 -0.965,3.281 -3.449,5.858 -15.143,11.039 -31.393,14.047 -2.863,-15.804 -8.343,-28.813 -15.48,-36.887 z M 50.832,43.28 C 37.121,54.765 29.875,68.409 29.875,82.744 c 0,33.722 41.12,62.226 95.643,66.288 l 6.09,0.457 -4.637,-3.961 c -11.945,-10.219 -19.363,-34.465 -19.363,-63.28 l 0.125,-6.808 -1.672,-0.34 C 77.382,69.96 56.979,57.901 54.074,44.397 L 53.379,41.155 Z M 33.879,82.744 c 0,-12.292 5.996,-24.089 17.254,-34.335 5.245,13.645 24.843,25.012 52.545,30.301 -0.035,1.562 -0.066,3.538 -0.066,3.538 0,26.718 6.34,49.792 16.797,62.241 -49.68,-5.301 -86.53,-31.25 -86.53,-61.745 z m 85.494,-3.604 -0.012,0.726 c 0,26.784 8.398,46.991 19.535,46.991 11.133,0 19.532,-20.207 19.532,-46.991 l -0.027,-2.89 -2.148,0.184 c -5.664,0.496 -11.496,0.742 -17.355,0.742 -5.859,0 -11.699,-0.246 -17.348,-0.742 l -2.156,-0.195 z m 35.031,2.147 c -0.301,24.921 -8.152,41.573 -15.508,41.573 -7.363,0 -15.215,-16.652 -15.508,-41.573 5.086,0.375 10.281,0.609 15.508,0.609 5.235,0 10.415,-0.234 15.508,-0.609 z m 69.307,-36.89 C 220.809,57.901 200.402,69.959 171.732,75.1 l -1.68,0.312 0.133,6.835 c 0,28.815 -7.422,53.062 -19.363,63.28 l -4.637,3.961 6.082,-0.457 c 54.528,-4.062 95.649,-32.566 95.649,-66.288 0,-14.335 -7.254,-27.979 -20.965,-39.464 l -2.539,-2.125 z m 2.941,4.012 c 11.266,10.246 17.266,22.043 17.266,34.335 0,30.495 -36.848,56.444 -86.533,61.745 10.457,-12.449 16.797,-35.523 16.797,-62.241 0,0 -0.039,-1.977 -0.066,-3.538 27.693,-5.289 47.29,-16.657 52.536,-30.301 z"
       id="path6" />
    <path
       d="m 225.129,34.101 c 0.184,0.508 0.352,1.026 0.484,1.547 0.754,2.996 0.598,5.938 -0.379,8.805 13.008,10.727 20.676,23.957 20.676,38.292 0,35.78 -47.914,64.792 -107.014,64.792 -59.104,0 -107.014,-29.012 -107.014,-64.792 0,-14.323 7.676,-27.564 20.668,-38.292 -0.969,-2.867 -1.125,-5.809 -0.371,-8.805 A 9.638,9.638 0 0 1 52.8,33.996 c -17.75,12.646 -28.512,29.219 -28.512,47.37 0,39.632 51.308,71.757 114.607,71.757 63.291,0 114.607,-32.125 114.607,-71.757 0.002,-18.113 -10.717,-34.648 -28.373,-47.265 z"
       fill="url(#a)"
       id="path25"
       style="fill:url(#a)" />
    <path
       d="m 154.818,60.335 c -5.051,0.379 -10.375,0.586 -15.926,0.586 -5.547,0 -10.867,-0.207 -15.918,-0.586 h -0.016 l -3.301,2.398 c 6.09,0.531 12.521,0.832 19.238,0.832 6.718,0 13.148,-0.301 19.242,-0.832 z m 58.541,-25.141 c -4.023,-13.297 -37.187,-23.062 -74.463,-23.062 -37.27,0 -70.433,9.767 -74.456,23.062 -3.492,11.535 15.57,22.211 45.644,26.445 l -2.613,-3.181 C 83.143,54.318 68.683,45.49 72.019,36.104 c 4.043,-11.396 33.409,-19.648 66.874,-19.648 33.464,0 62.837,8.254 66.876,19.648 3.332,9.387 -11.121,18.215 -35.455,22.354 l -2.604,3.181 c 30.063,-4.234 49.138,-14.91 45.649,-26.445 z"
       fill="url(#b)"
       id="path44"
       style="fill:url(#b)" />
    <path
       d="m 123.014,60.335 c 2.793,-15.52 8.852,-25.219 15.879,-25.219 7.035,0 13.089,9.699 15.886,25.219 h 0.056 l 3.267,2.371 C 155.344,42.21 147.79,29.112 138.898,29.112 130,29.112 122.449,42.21 119.695,62.706 l 3.266,-2.371 z"
       fill="url(#c)"
       id="path63"
       style="fill:url(#c)" />
    <path
       d="m 159.092,74.319 -2.672,4.832 c 0,0.352 0.016,0.714 0.016,1.081 0,25.726 -7.867,45.232 -17.542,45.232 -9.684,0 -17.535,-19.508 -17.535,-45.232 0,-0.406 0.008,-0.809 0.016,-1.198 l -2.676,-4.715 a 145.44,145.44 0 0 0 -0.117,5.886 c 0,29.167 9.094,51.261 20.316,51.261 11.222,0 20.324,-22.094 20.324,-51.261 a 147.012,147.012 0 0 0 -0.13,-5.886 z"
       fill="url(#d)"
       id="path82"
       style="fill:url(#d)" />
    <path
       d="m 110.127,61.651 c 3.844,-28.488 15.27,-49.521 28.77,-49.521 -14.473,0 -26.809,18.634 -31.387,46.384 l 2.578,3.137 z"
       fill="url(#e)"
       id="path101"
       style="fill:url(#e)" />
    <path
       d="m 167.67,61.651 h 0.027 l 2.578,-3.137 c -4.57,-27.75 -16.914,-46.384 -31.379,-46.384 13.5,0.002 24.934,21.033 28.774,49.521 z"
       fill="url(#f)"
       id="path120"
       style="fill:url(#f)" />
    <path
       d="m 172.072,77.053 -3.281,-3.918 h -0.027 c 0.184,3.113 0.289,6.277 0.289,9.491 0,38.934 -13.504,70.495 -30.156,70.495 18.671,0 33.281,-29.272 33.281,-70.495 0,-1.886 -0.039,-3.736 -0.106,-5.573 z"
       fill="url(#g)"
       id="path139"
       style="fill:url(#g)" />
    <path
       d="m 108.748,82.627 c 0,-3.214 0.105,-6.378 0.285,-9.491 h -0.022 l -3.289,3.906 a 155.884,155.884 0 0 0 -0.109,5.585 c 0,41.223 14.621,70.495 33.285,70.495 -16.646,0 -30.15,-31.562 -30.15,-70.495 z"
       fill="url(#h)"
       id="path158"
       style="fill:url(#h)" />
    <path
       d="m 225.234,44.452 c 4.973,4.102 9.168,8.578 12.449,13.332 a 45.87,45.87 0 0 0 -8.75,-20.82 89.125,89.125 0 0 0 -3.806,-2.862 c 0.185,0.508 0.353,1.026 0.483,1.547 0.757,2.995 0.601,5.936 -0.376,8.803 z m -172.683,0 C 51.582,41.585 51.426,38.643 52.18,35.647 a 9.638,9.638 0 0 1 0.621,-1.652 119.88,119.88 0 0 0 -3.941,2.969 46.053,46.053 0 0 0 -8.75,20.82 c 3.281,-4.754 7.468,-9.231 12.441,-13.332 z"
       fill="#2d2f34"
       id="path160" />
    <path
       d="m 10.547,81.561 c 0,-43.934 57.46,-79.558 128.35,-79.558 70.88,0 128.341,35.624 128.341,79.558 0,43.943 -57.461,79.554 -128.341,79.554 -70.89,-0.001 -128.35,-35.61 -128.35,-79.554 z m 128.349,71.561 c 63.292,0 114.607,-32.125 114.607,-71.757 0,-39.636 -51.315,-71.772 -114.607,-71.772 -63.3,0 -114.611,32.138 -114.611,71.772 0,39.632 51.312,71.757 114.611,71.757 z"
       fill="url(#i)"
       id="path181"
       style="fill:url(#i)" />
    <path
       d="m 108.748,82.627 c 0,-38.525 13.504,-70.495 30.148,-70.495 16.652,0 30.157,31.97 30.157,70.495 0,38.934 -13.505,70.495 -30.157,70.495 -16.652,0 -30.148,-31.562 -30.148,-70.495 z m 30.148,48.839 c 11.223,0 20.325,-22.094 20.325,-51.249 0,-30.257 -9.103,-51.104 -20.325,-51.104 -11.222,0 -20.316,20.847 -20.316,51.104 0,29.155 9.094,51.249 20.316,51.249 z"
       fill="url(#j)"
       id="path202"
       style="fill:url(#j)" />
    <path
       d="M 52.18,35.647 C 55.488,22.55 95.494,3.488 138.896,3.488 c 43.398,0 82.03,13.62 86.717,32.159 5.246,20.78 -33.309,39.586 -86.717,39.586 -53.417,0 -91.97,-18.805 -86.716,-39.586 z m 86.716,-23.515 c -37.27,0 -70.433,9.767 -74.456,23.062 -4.508,14.895 28.593,28.371 74.456,28.371 45.872,0 78.967,-13.478 74.463,-28.371 -4.023,-13.297 -37.185,-23.062 -74.463,-23.062 z"
       fill="url(#k)"
       id="path223"
       style="fill:url(#k)" />
    <path
       d="m 118.658,74.28 0.023,0.016 2.754,4.855 c 5.605,0.479 11.434,0.753 17.461,0.753 6.055,0 11.898,-0.273 17.54,-0.765 l 2.68,-4.845 0.016,-0.016 c -6.445,0.613 -13.203,0.953 -20.234,0.953 A 213.256,213.256 0 0 1 118.658,74.28 Z M 226.066,40.14 c -0.688,14.858 -23.527,28.022 -57.287,32.983 l 0.012,0.012 3.293,3.935 c 33.033,-5.938 54.764,-20.524 53.982,-36.93 z m -174.339,0 c -0.781,16.422 20.948,30.991 53.975,36.93 l 3.301,-3.935 0.008,-0.012 C 75.245,68.163 52.422,54.999 51.727,40.14 Z"
       fill="url(#l)"
       id="path230"
       style="fill:url(#l)" />
  </g>
</svg>
