<?xml version="1.0" encoding="UTF-8" standalone="no"?>
<svg
   height="52.000679"
   viewBox="36 72.5 14.976013 16.843605"
   width="52.000046"
   version="1.1"
   id="svg258"
   sodipodi:docname="logoGreatWall.svg"
   inkscape:version="1.1.1 (3bf5ae0d25, 2021-09-20)"
   xmlns:inkscape="http://www.inkscape.org/namespaces/inkscape"
   xmlns:sodipodi="http://sodipodi.sourceforge.net/DTD/sodipodi-0.dtd"
   xmlns:xlink="http://www.w3.org/1999/xlink"
   xmlns="http://www.w3.org/2000/svg"
   xmlns:svg="http://www.w3.org/2000/svg">
  <defs
     id="defs262" />
  <sodipodi:namedview
     id="namedview260"
     pagecolor="#ffffff"
     bordercolor="#666666"
     borderopacity="1.0"
     inkscape:pageshadow="2"
     inkscape:pageopacity="0.0"
     inkscape:pagecheckerboard="true"
     showgrid="false"
     fit-margin-top="9.2"
     fit-margin-left="0"
     fit-margin-right="0"
     fit-margin-bottom="9.2"
     inkscape:zoom="6.2135922"
     inkscape:cx="29.532031"
     inkscape:cy="17.461719"
     inkscape:window-width="1366"
     inkscape:window-height="745"
     inkscape:window-x="-8"
     inkscape:window-y="-8"
     inkscape:window-maximized="1"
     inkscape:current-layer="svg258" />
  <linearGradient
     id="a"
     gradientUnits="userSpaceOnUse"
     x1="274.61499"
     x2="530.61499"
     y1="115.218"
     y2="375.21799">
    <stop
       offset="0"
       stop-color="#f7f7f7"
       id="stop184" />
    <stop
       offset="1"
       stop-color="#252525"
       id="stop186" />
  </linearGradient>
  <radialGradient
     id="b"
     cx="396.5"
     cy="380.5"
     gradientUnits="userSpaceOnUse"
     r="158.155">
    <stop
       offset="0"
       stop-color="#ccc"
       id="stop189" />
    <stop
       offset="1"
       stop-color="#fff"
       id="stop191" />
  </radialGradient>
  <linearGradient
     id="c">
    <stop
       offset="0"
       stop-color="#9b9b9b"
       id="stop194" />
    <stop
       offset=".093"
       stop-color="#828282"
       id="stop196" />
    <stop
       offset=".251"
       stop-color="#5e5e5e"
       id="stop198" />
    <stop
       offset=".4"
       stop-color="#444"
       id="stop200" />
    <stop
       offset=".533"
       stop-color="#343434"
       id="stop202" />
    <stop
       offset=".638"
       stop-color="#2f2f2f"
       id="stop204" />
    <stop
       offset=".781"
       stop-color="#fff"
       id="stop206" />
    <stop
       offset="1"
       stop-color="#a0a0a0"
       id="stop208" />
  </linearGradient>
  <linearGradient
     id="d"
     gradientUnits="userSpaceOnUse"
     x1="374.33899"
     x2="531.73999"
     xlink:href="#c"
     y1="180.63499"
     y2="345.323" />
  <linearGradient
     id="e">
    <stop
       offset="0"
       stop-color="#9b9b9b"
       id="stop212" />
    <stop
       offset=".542"
       stop-color="#2f2f2f"
       id="stop214" />
    <stop
       offset=".722"
       stop-color="#313131"
       id="stop216" />
    <stop
       offset=".796"
       stop-color="#383838"
       id="stop218" />
    <stop
       offset=".852"
       stop-color="#444"
       id="stop220" />
    <stop
       offset=".897"
       stop-color="#565656"
       id="stop222" />
    <stop
       offset=".936"
       stop-color="#6d6d6d"
       id="stop224" />
    <stop
       offset=".971"
       stop-color="#888"
       id="stop226" />
    <stop
       offset="1"
       stop-color="#a6a6a6"
       id="stop228" />
  </linearGradient>
  <linearGradient
     id="f"
     gradientUnits="userSpaceOnUse"
     x1="505.52802"
     x2="496.004"
     xlink:href="#e"
     y1="290.64001"
     y2="104.927" />
  <linearGradient
     id="g"
     gradientTransform="matrix(-1,0,0,1,792,0)"
     gradientUnits="userSpaceOnUse"
     x1="374.33899"
     x2="531.73999"
     xlink:href="#c"
     y1="180.63499"
     y2="345.323" />
  <linearGradient
     id="h"
     gradientTransform="matrix(-1,0,0,1,792,0)"
     gradientUnits="userSpaceOnUse"
     x1="505.52802"
     x2="496.005"
     xlink:href="#e"
     y1="290.64001"
     y2="104.927" />
  <g
     clip-rule="evenodd"
     fill-rule="evenodd"
     id="g246"
     transform="matrix(0.02339359,0,0,0.02339359,34.224137,73.795645)">
    <ellipse
       cx="396"
       cy="238.5"
       fill="url(#a)"
       rx="245"
       ry="166"
       stroke="#000000"
       id="ellipse234"
       style="fill:url(#a)" />
    <ellipse
       cx="396"
       cy="238.5"
       fill="url(#b)"
       rx="217"
       ry="153"
       id="ellipse236"
       style="fill:url(#b)" />
    <path
       d="m 531,256 c -9,-34 -20,-66 -40,-97 -19.62,-28.96 -61.04,-18.65 -93.32,-23.69 v 198.85 c 0,59.96 105.88,45.31 166.27,-10.8 C 543.29,308.48 537.59,280.47 531,256 Z"
       fill="url(#d)"
       id="path238"
       style="fill:url(#d)" />
    <path
       d="m 604.91,238.5 c 0,-81.74 -93.98,-148 -209.91,-148 h -0.17 v 34.33 h 2.85 v 10.48 c 32.27,5.04 73.7,-5.27 93.32,23.69 20,31 31,63 40,97 6.59,24.47 12.3,52.48 32.95,67.36 24.1,-22.39 40.96,-51.37 40.96,-84.86 z"
       fill="url(#f)"
       id="path240"
       style="fill:url(#f)" />
    <path
       d="m 261,256 c 9,-34 20,-66 40,-97 19.62,-28.96 61.04,-18.65 93.32,-23.69 v 198.85 c 0,59.96 -105.88,45.31 -166.27,-10.8 C 248.71,308.48 254.41,280.47 261,256 Z"
       fill="url(#g)"
       id="path242"
       style="fill:url(#g)" />
    <path
       d="m 187.09,238.5 c 0,-81.74 93.98,-148 209.91,-148 h 0.17 v 34.33 h -2.85 v 10.48 c -32.27,5.04 -73.7,-5.27 -93.32,23.69 -20,31 -31,63 -40,97 -6.59,24.47 -12.3,52.48 -32.95,67.36 -24.1,-22.39 -40.96,-51.37 -40.96,-84.86 z"
       fill="url(#h)"
       id="path244"
       style="fill:url(#h)" />
  </g>
  <path
     d="m 50.938388,83.702362 c -0.04281,-0.06316 -0.251715,-0.05264 -0.325638,-0.04492 -0.05123,0.0054 -0.09989,0.02293 -0.140362,0.05053 -0.02035,0.694088 -0.01123,1.527602 -0.01123,2.268243 0,0.07533 -0.01848,0.271599 0.01123,0.314409 0.03299,0.04796 0.169136,0.0393 0.235807,0.0393 0.09849,0 0.189722,0.0054 0.230193,-0.04492 0.02035,-0.668823 0.01123,-1.536959 0.01123,-2.268242 0,-0.07416 0.01848,-0.270664 -0.01123,-0.31441 z m 0.488459,0.01123 c -0.01006,0.679583 -0.0056,1.517308 -0.0056,2.251399 0,0.09194 -0.02176,0.277915 0.01123,0.325638 0.03532,0.05123 0.254522,0.04983 0.353711,0.0393 0.04889,-0.0051 0.103166,-0.02129 0.123518,-0.05615 v -2.55458 c -0.08328,-0.09311 -0.389269,-0.08118 -0.482843,-0.0056 z m -15.22642,0.510916 c 0.285636,-0.05357 0.548112,0.03041 0.735495,0.117903 0.04351,0.02035 0.149719,0.09591 0.196506,0.0786 0.0793,-0.02924 0.05895,-0.313006 0.02807,-0.381784 -0.0379,-0.08468 -0.175452,-0.13849 -0.275109,-0.168433 -0.105037,-0.03158 -0.25382,-0.05942 -0.376168,-0.06737 -0.306223,-0.02012 -0.560511,0.03392 -0.752338,0.117904 -0.382483,0.167496 -0.663207,0.550215 -0.690577,1.083589 v 0.218964 c 0.07065,0.746723 0.52659,1.194476 1.414844,1.128506 0.125624,-0.0094 0.243995,-0.02316 0.370555,-0.05614 0.104335,-0.02737 0.273471,-0.06386 0.308795,-0.145976 0.02784,-0.06503 0.01684,-0.188085 0.01684,-0.286338 v -0.606361 c 0,-0.157439 0.02433,-0.30248 -0.08422,-0.342483 -0.109248,-0.04024 -0.303649,-0.01123 -0.460386,-0.01123 h -0.235808 c -0.07275,0 -0.181534,-0.01029 -0.218964,0.01123 -0.07767,0.04468 -0.05474,0.310667 0,0.370555 0.153462,0.0131 0.331254,0.0019 0.494073,0.0056 v 0.57829 c -0.325873,0.156503 -0.696427,0.03649 -0.870242,-0.145976 -0.183171,-0.192062 -0.27464,-0.570804 -0.185277,-0.920772 0.07673,-0.300841 0.275577,-0.520507 0.583904,-0.578289 z m 11.683694,-0.353711 c -0.03532,0.0372 -0.04866,0.179428 -0.06176,0.235807 -0.133343,0.569166 -0.271833,1.183248 -0.398626,1.718025 -0.143637,-0.56823 -0.283297,-1.145818 -0.4267,-1.72364 -0.01731,-0.06948 -0.03813,-0.204927 -0.07299,-0.235807 -0.04585,-0.04047 -0.165158,-0.03369 -0.258265,-0.03369 -0.091,0 -0.20984,0 -0.252651,0.0393 -0.03369,0.03088 -0.05591,0.156971 -0.07299,0.230192 -0.134513,0.575951 -0.27581,1.166405 -0.409855,1.718026 -0.127261,-0.55747 -0.273003,-1.152369 -0.398627,-1.718026 -0.01825,-0.08164 -0.0255,-0.206331 -0.06176,-0.241421 -0.05661,-0.05474 -0.457579,-0.04281 -0.494073,0.01684 -0.03719,0.06082 0.03041,0.229023 0.05053,0.308795 0.158374,0.626715 0.312772,1.207577 0.471614,1.819086 0.02339,0.0896 0.04819,0.24727 0.09545,0.286337 0.08281,0.06831 0.553726,0.06293 0.62882,0 0.03626,-0.03041 0.04959,-0.118137 0.06737,-0.190891 0.12422,-0.509981 0.226918,-0.983233 0.359326,-1.465375 0.111353,0.484248 0.243527,0.966389 0.36494,1.448531 0.01848,0.07299 0.0262,0.167966 0.06176,0.202121 0.08351,0.08001 0.573377,0.06854 0.645663,-0.0056 0.04585,-0.04702 0.06574,-0.200015 0.08983,-0.291951 0.156971,-0.601216 0.331254,-1.225591 0.47723,-1.802243 0.02597,-0.10223 0.07392,-0.20984 0.04492,-0.320024 -0.08281,-0.03954 -0.381783,-0.06527 -0.449157,0.0056 z m -4.362436,2.054892 c -0.04866,-0.03392 -0.07275,-0.125623 -0.0786,-0.20212 -0.01871,-0.247738 0.01006,-0.622738 0.0056,-0.847784 0.131472,-0.0033 0.276512,0.007 0.398627,-0.0056 0.06059,-0.07673 0.06152,-0.293122 0.0056,-0.376169 -0.115564,-0.0248 -0.27581,-0.0049 -0.409856,-0.01123 -0.0035,-0.136853 0.0073,-0.287975 -0.0056,-0.41547 -0.09428,-0.06691 -0.384357,-0.06854 -0.471615,0.0056 -0.01287,0.127495 -0.0021,0.278618 -0.0056,0.41547 -0.0648,-0.01006 -0.165159,-0.0082 -0.230193,0 -0.06971,0.07346 -0.06667,0.301778 -0.0056,0.381784 0.06691,0.01544 0.169136,-0.0044 0.235808,0.01123 0.03954,0.411493 -0.0896,0.999374 0.09545,1.285711 0.0669,0.1034 0.205395,0.178961 0.381783,0.190892 0.145976,0.0098 0.366577,-0.0094 0.421085,-0.08422 0.05474,-0.07509 0.04445,-0.28353 -0.0056,-0.359325 -0.09311,0.01708 -0.243761,0.07229 -0.331253,0.01123 z m -4.946341,-1.487832 c -0.293355,-0.02129 -0.376169,0.193699 -0.499687,0.308796 -0.0033,-0.0772 0.0068,-0.167732 -0.0056,-0.235808 -0.08351,-0.05825 -0.334996,-0.06106 -0.404241,0.01123 -0.0094,0.574547 -0.0094,1.188394 0,1.762941 0.09381,0.06714 0.383421,0.06714 0.477229,0 0.0131,-0.353711 0.0019,-0.731752 0.0056,-1.09482 0.08422,-0.116968 0.160012,-0.262944 0.308796,-0.297566 0.08843,-0.02059 0.200015,0.05942 0.258265,0.03369 0.051,-0.02246 0.04421,-0.126091 0.04492,-0.20212 0.0023,-0.216625 -0.0028,-0.273003 -0.185278,-0.286338 z m 1.628194,0.08422 c -0.159076,-0.07814 -0.368917,-0.106207 -0.583904,-0.07299 -0.378976,0.05872 -0.602385,0.316749 -0.67935,0.67935 -0.04094,0.192295 -0.03532,0.434887 0.0056,0.617591 0.08515,0.380379 0.316983,0.57361 0.746723,0.61759 h 0.269494 c 0.08469,-0.01216 0.190892,-0.02527 0.291952,-0.05053 0.07907,-0.01988 0.203291,-0.04421 0.235808,-0.10106 0.03907,-0.06831 0.02059,-0.238381 -0.0056,-0.320024 -0.106908,-0.0012 -0.215455,0.051 -0.331253,0.0786 -0.381549,0.09077 -0.779708,-0.0014 -0.746723,-0.443542 h 0.819711 c 0.134045,0 0.285168,0.02129 0.336868,-0.05615 0.04749,-0.07112 0.03041,-0.221069 0.02246,-0.308795 -0.02948,-0.326341 -0.177324,-0.53969 -0.381784,-0.640049 z m -0.797253,0.690579 c 0.004,-0.252417 0.148315,-0.451263 0.404241,-0.432314 0.207501,0.01544 0.315813,0.182236 0.308795,0.432314 -0.21218,2.34e-4 -0.50109,0 -0.713036,0 z m 3.031809,0.207735 c 0,-0.287975 0.01942,-0.584138 -0.123518,-0.763567 -0.197208,-0.247504 -0.686134,-0.263412 -1.04429,-0.15159 -0.108546,0.03392 -0.239551,0.0765 -0.280723,0.157205 -0.04141,0.08118 -0.01989,0.298268 0.05053,0.314409 0.05825,0.01333 0.139894,-0.05217 0.185277,-0.07299 0.146912,-0.06761 0.435823,-0.170539 0.623205,-0.05614 0.10457,0.06386 0.120009,0.182236 0.11229,0.376169 -0.436291,-0.008 -0.849422,0.02363 -1.016218,0.303181 -0.09989,0.167498 -0.08562,0.423658 0,0.572675 0.08515,0.147847 0.248674,0.236275 0.449157,0.263879 h 0.202121 c 0.09802,-0.01404 0.179428,-0.04889 0.25265,-0.08983 0.07486,-0.04164 0.132408,-0.09311 0.190892,-0.134747 0.0021,0.04468 -0.0075,0.1165 0.0056,0.162819 0.08188,0.02924 0.332656,0.06433 0.381783,-0.0056 0.02386,-0.03369 0.01123,-0.149719 0.01123,-0.21335 z m -0.477229,0.393012 c -0.01357,0.04959 -0.115799,0.134747 -0.190892,0.174049 -0.119775,0.06246 -0.302713,0.03532 -0.370555,-0.04492 -0.06386,-0.07533 -0.0655,-0.212882 -0.01123,-0.291952 0.09217,-0.134513 0.340844,-0.12539 0.572675,-0.123518 -0.01872,0.101528 0.0248,0.195804 0,0.286337 z m 7.91639,-1.14535 c -0.175452,-0.245633 -0.664144,-0.280957 -1.027446,-0.174048 -0.106207,0.03135 -0.272302,0.08258 -0.31441,0.174048 -0.0379,0.08235 -0.01848,0.298502 0.05615,0.308795 0.05685,0.0077 0.143402,-0.05123 0.20212,-0.0786 0.170305,-0.07977 0.593495,-0.18902 0.690579,0.0393 0.03509,0.08258 0.02152,0.142935 0.02807,0.280723 -0.466702,0.0021 -0.872347,0.03088 -1.033061,0.342482 -0.09007,0.174517 -0.06223,0.418746 0.02246,0.555832 0.08398,0.136151 0.256628,0.222941 0.443543,0.247036 h 0.196506 c 0.169603,-0.02059 0.296396,-0.101762 0.404241,-0.196506 0.0098,-0.0087 0.02456,-0.03252 0.0393,-0.02246 0.01029,0.07182 -0.02129,0.123986 0.01684,0.16282 0.06386,0.06503 0.305754,0.01427 0.370554,-0.0056 0.02082,-0.304818 0.01123,-0.57595 0.01123,-0.864627 0,-0.289144 0.0248,-0.585073 -0.106675,-0.769181 z m -0.36494,1.139736 c -0.02152,0.08889 -0.215923,0.204694 -0.325639,0.213349 -0.117435,0.0091 -0.214753,-0.03486 -0.258265,-0.106674 -0.06737,-0.111354 -0.01684,-0.267857 0.07299,-0.325639 0.119775,-0.07697 0.300374,-0.05732 0.510916,-0.06176 -0.01637,0.100826 0.02176,0.190657 0,0.280723 z"
     fill="#ce181e"
     id="path248"
     style="stroke-width:0.0233936" />
  <path
     clip-rule="evenodd"
     d="m 46.481442,81.189656 c -0.05731,0 -0.112757,-0.0042 -0.165393,-0.01263 -0.03299,-0.0054 -0.814799,-0.146444 -0.793043,-1.110494 v -1.708668 l -2.035242,-1.114002 -2.035242,1.114002 v 1.707264 c 0.02199,0.965454 -0.759824,1.106517 -0.793043,1.111898 -0.05217,0.0084 -0.107844,0.01263 -0.165159,0.01263 -0.160947,0 -0.573142,-0.0379 -0.922175,-0.388099 -0.322363,-0.323534 -0.484481,-0.803336 -0.482376,-1.426307 0.0063,-1.728553 1.979332,-3.134975 4.397995,-3.134975 2.418663,0 4.391679,1.406422 4.397995,3.134975 0.0023,0.622737 -0.160012,1.102773 -0.482142,1.426073 -0.349032,0.350436 -0.761227,0.388333 -0.922175,0.388333 z"
     fill="#ffffff"
     fill-rule="evenodd"
     id="path250"
     style="stroke-width:0.0233936" />
  <path
     d="m 43.487998,76.298759 c 1.165469,0 2.259353,0.324469 3.080702,0.913285 0.808716,0.580161 1.256002,1.348407 1.258809,2.163439 0.0023,0.60683 -0.154164,1.072597 -0.465299,1.384667 -0.333592,0.334762 -0.727072,0.371022 -0.880768,0.371022 -0.05427,0 -0.106675,-0.004 -0.155802,-0.01193 -0.0019,-2.34e-4 -0.192529,-0.03439 -0.377338,-0.176154 -0.251949,-0.193231 -0.375467,-0.487756 -0.366578,-0.875388 v -1.74446 l -0.06082,-0.03322 -1.976758,-1.081954 -0.05615,-0.03064 -0.05615,0.03064 -1.976758,1.081954 -0.06082,0.03322 v 1.744694 c 0.02059,0.910946 -0.713037,1.046395 -0.743682,1.051542 -0.04936,0.008 -0.101996,0.01193 -0.156036,0.01193 -0.153695,0 -0.547176,-0.03626 -0.880768,-0.371022 -0.310901,-0.312071 -0.467404,-0.778071 -0.465299,-1.384667 0.003,-0.814798 0.450093,-1.583278 1.259043,-2.163439 0.821115,-0.58905 1.914999,-0.913519 3.080468,-0.913519 m 0,-0.116968 c -2.461239,0 -4.449928,1.429582 -4.456479,3.193225 -0.0054,1.431921 0.864627,1.873124 1.463035,1.873124 0.06153,0 0.12001,-0.0047 0.174517,-0.01333 0,0 0.865562,-0.140362 0.842169,-1.16968 v -1.672641 l 1.976758,-1.081954 1.976758,1.081954 v 1.672641 c -0.02339,1.029318 0.84217,1.16968 0.84217,1.16968 0.05451,0.0087 0.112991,0.01333 0.174516,0.01333 0.598174,0 1.468415,-0.441203 1.463035,-1.873124 -0.0066,-1.763643 -1.995239,-3.193225 -4.456479,-3.193225 z"
     fill="#4d4d4d"
     id="path252"
     style="stroke-width:0.0233936" />
  <path
     d="m 41.018828,78.475719 2.676578,-1.473328 0.107376,0.195103 -2.676554,1.473328 z"
     fill="#ffffff"
     id="path254"
     style="stroke-width:0.0233936" />
  <path
     d="m 43.172161,77.197704 0.107377,-0.195102 2.676554,1.473328 -0.107377,0.195102 z"
     fill="#ffffff"
     id="path256"
     style="stroke-width:0.0233936" />
</svg>
